<svg fill="none" height="1117" viewBox="0 0 1728 1117" width="1728" xmlns="http://www.w3.org/2000/svg" xmlns:xlink="http://www.w3.org/1999/xlink"><clipPath id="a"><path d="m0 0h1728v1117h-1728z"/></clipPath><g clip-path="url(#a)"><path d="m480.79 242.907-2.239 7.096 6.659 3.319-7.095-2.239-3.319 6.659 2.238-7.095-6.659-3.319 7.096 2.238z" fill="#b3c1ee"/><path d="m1606.41 86.9969-2.42 6.8297 6.79-2.5381-6.54 3.1186 6.59 3.0041-6.83-2.4193 2.54 6.7861-3.12-6.5397-3 6.5937 2.42-6.83-6.79 2.5382 6.54-3.1187-6.59-3.004 6.83 2.4193-2.54-6.7865 3.12 6.5401z" fill="#dee1ec"/><path d="m628 66 .655 8.3445 8.345.6555-8.345.6555-.655 8.3445-.655-8.3445-8.345-.6555 8.345-.6555z" fill="#e6eaf6"/><path d="m1050.73 340.622-1.95 6.209 5.82 2.904-6.21-1.959-2.9 5.827 1.96-6.209-5.83-2.904 6.21 1.959z" fill="#e0e6f8"/><path d="m1376.11 327.113.59 7.417 7.41.583-7.41.582-.59 7.418-.58-7.418-7.42-.582 7.42-.583z" fill="#cdd6f6"/><path d="m1290.5 28 .69 8.8081 8.81.6919-8.81.6919-.69 8.8081-.69-8.8081-8.81-.6919 8.81-.6919z" fill="#e6ebfa"/><path d="m747.5 183 .546 6.954 6.954.546-6.954.546-.546 6.954-.546-6.954-6.954-.546 6.954-.546z" fill="#a9baf1"/><path d="m179.702 64.4984-1.193 3.4316 3.529-.8637-3.427 1.2063 2.875 2.2207-3.08-1.9273.057 3.6328-.413-3.6096-2.805 2.3093 2.564-2.5738-3.554-.7531 3.611.4001-1.627-3.2484 1.938 3.0727z" fill="#b3c1ee"/><path d="m180.557 415.248-1.679 5.321 4.994 2.489-5.321-1.678-2.49 4.994 1.679-5.322-4.994-2.489 5.322 1.679z" fill="#b3c1ee"/><path d="m1092.63 165.873-1.47 4.319 4.55-.379-4.48.889 2.6 3.747-3-3.43-1.95 4.126 1.47-4.319-4.54.379 4.47-.889-2.6-3.747 3 3.43z" fill="#e3e5ed"/><path d="m573.382 559.873-1.467 4.319 4.545-.379-4.474.889 2.601 3.747-3.006-3.43-1.945 4.126 1.467-4.319-4.545.379 4.473-.889-2.6-3.747 3.006 3.43z" fill="#b3c1ee"/><path d="m600.382 510.873-1.467 4.319 4.545-.379-4.474.889 2.601 3.747-3.006-3.43-1.945 4.126 1.467-4.319-4.545.379 4.473-.889-2.6-3.747 3.006 3.43z" fill="#b3c1ee"/><path d="m370.382 669.873-1.467 4.319 4.545-.379-4.474.889 2.601 3.747-3.006-3.43-1.945 4.126 1.467-4.319-4.545.379 4.473-.889-2.6-3.747 3.006 3.43z" fill="#b3c1ee"/><path d="m487.382 801.873-1.467 4.319 4.545-.379-4.474.889 2.601 3.747-3.006-3.43-1.945 4.126 1.467-4.319-4.545.379 4.473-.889-2.6-3.747 3.006 3.43z" fill="#b3c1ee" opacity=".6"/><path d="m1269.38 690.873-1.47 4.319 4.55-.379-4.47.889 2.6 3.747-3.01-3.43-1.94 4.126 1.46-4.319-4.54.379 4.47-.889-2.6-3.747 3.01 3.43z" fill="#b3c1ee"/><path d="m990.455 716.498-1.515 4.3 3.79-.684-3.766 1.175 1.893 3.461-2.251-3.125-1.897 4.145 1.515-4.299-3.791.684 3.767-1.175-1.894-3.461 2.252 3.125z" fill="#b3c1ee"/><path d="m77.382 156.873-1.4672 4.319 4.5455-.379-4.4738.889 2.6008 3.747-3.0066-3.43-1.9448 4.126 1.4673-4.319-4.5456.379 4.4739-.889-2.6008-3.747 3.0066 3.43z" fill="#b3c1ee"/><path d="m371.382 32.873-1.467 4.3189 4.545-.3788-4.474.8888 2.601 3.7471-3.006-3.4301-1.945 4.126 1.467-4.3189-4.545.3788 4.473-.8888-2.6-3.7471 3.006 3.4301z" fill="#b3c1ee"/><path d="m1633.38 581.873-1.47 4.319 4.55-.379-4.47.889 2.6 3.747-3.01-3.43-1.94 4.126 1.46-4.319-4.54.379 4.47-.889-2.6-3.747 3.01 3.43z" fill="#b3c1ee"/><path d="m52.382 497.873-1.4672 4.319 4.5455-.379-4.4738.889 2.6008 3.747-3.0066-3.43-1.9448 4.126 1.4673-4.319-4.5456.379 4.4739-.889-2.6008-3.747 3.0066 3.43z" fill="#b3c1ee"/><path d="m253.382 262.873-1.399 4.435 4.162 2.074-4.435-1.399-2.074 4.162 1.399-4.435-4.162-2.074 4.435 1.399z" fill="#b3c1ee"/><path d="m858.369 539.387 17 38" stroke="#111" stroke-width="3"/><path d="m887.228 568.483-13 2" stroke="#111" stroke-width="3"/><rect fill="#111" height="2" rx="1" width="6" x="897" y="611"/><rect fill="#111" height="2" rx="1" width="6" x="897" y="608"/><rect fill="#111" height="2" rx="1" width="6" x="897" y="605"/><rect fill="#111" height="2" rx="1" width="6" x="897" y="602"/><path d="m900 613v-11" stroke="#111" stroke-width="2"/><rect fill="#111" height="2" rx="1" width="6" x="900" y="585"/><rect fill="#111" height="2" rx="1" width="6" x="900" y="582"/><rect fill="#111" height="2" rx="1" width="6" x="900" y="579"/><rect fill="#111" height="2" rx="1" width="6" x="900" y="576"/><path d="m903 587v-11" stroke="#111" stroke-width="2"/><rect fill="#111" height="2" rx="1" width="6" x="885" y="598"/><rect fill="#111" height="2" rx="1" width="6" x="885" y="595"/><rect fill="#111" height="2" rx="1" width="6" x="885" y="592"/><rect fill="#111" height="2" rx="1" width="6" x="885" y="589"/><path d="m888 600v-11" stroke="#111" stroke-width="2"/><rect fill="#111" height="2" rx="1" width="6" x="853" y="568"/><rect fill="#111" height="2" rx="1" width="6" x="853" y="565"/><rect fill="#111" height="2" rx="1" width="6" x="853" y="562"/><rect fill="#111" height="2" rx="1" width="6" x="853" y="559"/><path d="m856 570v-11" stroke="#111" stroke-width="2"/><rect fill="#111" height="2" rx="1" width="6" x="834" y="549"/><rect fill="#111" height="2" rx="1" width="6" x="834" y="546"/><rect fill="#111" height="2" rx="1" width="6" x="834" y="543"/><rect fill="#111" height="2" rx="1" width="6" x="834" y="540"/><path d="m837 551v-11" stroke="#111" stroke-width="2"/><rect fill="#111" height="2" rx="1" width="6" x="834" y="520"/><rect fill="#111" height="2" rx="1" width="6" x="834" y="517"/><rect fill="#111" height="2" rx="1" width="6" x="834" y="514"/><rect fill="#111" height="2" rx="1" width="6" x="834" y="511"/><path d="m837 522v-11" stroke="#111" stroke-width="2"/><rect fill="#111" height="752" rx="2" width="6" x="870" y="523"/><rect fill="#111" height="6" rx="1" transform="matrix(-.70710678 -.70710678 .70710678 -.70710678 1124.297596 1646.475312)" width="99.2" x="903.145" y="590.388"/><rect fill="#111" height="6" rx="1" transform="matrix(-.70710678 -.70710678 .70710678 -.70710678 1103.791499 1695.981409)" width="99.2" x="903.145" y="619.388"/><path d="m1698.37 539.387 17 38" stroke="#111" stroke-width="3"/><path d="m1727.23 568.483-13 2" stroke="#111" stroke-width="3"/><rect fill="#111" height="2" rx="1" width="6" x="1725" y="598"/><rect fill="#111" height="2" rx="1" width="6" x="1725" y="595"/><rect fill="#111" height="2" rx="1" width="6" x="1725" y="592"/><rect fill="#111" height="2" rx="1" width="6" x="1725" y="589"/><path d="m1728 600v-11" stroke="#111" stroke-width="2"/><rect fill="#111" height="2" rx="1" width="6" x="1693" y="568"/><rect fill="#111" height="2" rx="1" width="6" x="1693" y="565"/><rect fill="#111" height="2" rx="1" width="6" x="1693" y="562"/><rect fill="#111" height="2" rx="1" width="6" x="1693" y="559"/><path d="m1696 570v-11" stroke="#111" stroke-width="2"/><rect fill="#111" height="2" rx="1" width="6" x="1674" y="549"/><rect fill="#111" height="2" rx="1" width="6" x="1674" y="546"/><rect fill="#111" height="2" rx="1" width="6" x="1674" y="543"/><rect fill="#111" height="2" rx="1" width="6" x="1674" y="540"/><path d="m1677 551v-11" stroke="#111" stroke-width="2"/><rect fill="#111" height="2" rx="1" width="6" x="1674" y="520"/><rect fill="#111" height="2" rx="1" width="6" x="1674" y="517"/><rect fill="#111" height="2" rx="1" width="6" x="1674" y="514"/><rect fill="#111" height="2" rx="1" width="6" x="1674" y="511"/><path d="m1677 522v-11" stroke="#111" stroke-width="2"/><rect fill="#111" height="752" rx="2" width="6" x="1710" y="523"/><rect fill="#111" height="6" rx="1" transform="matrix(-.70710678 -.70710678 .70710678 -.70710678 2558.275827 2240.448544)" width="99.2" x="1743.15" y="590.388"/><rect fill="#111" height="6" rx="1" transform="matrix(-.70710678 -.70710678 .70710678 -.70710678 2537.769731 2289.954641)" width="99.2" x="1743.15" y="619.388"/><path d="m2.36923 539.387 16.99997 38" stroke="#111" stroke-width="3"/><path d="m31.2281 568.483-13 2" stroke="#111" stroke-width="3"/><rect fill="#111" height="2" rx="1" width="6" x="41" y="611"/><rect fill="#111" height="2" rx="1" width="6" x="41" y="608"/><rect fill="#111" height="2" rx="1" width="6" x="41" y="605"/><rect fill="#111" height="2" rx="1" width="6" x="41" y="602"/><path d="m44 613v-11" stroke="#111" stroke-width="2"/><rect fill="#111" height="2" rx="1" width="6" x="44" y="585"/><rect fill="#111" height="2" rx="1" width="6" x="44" y="582"/><rect fill="#111" height="2" rx="1" width="6" x="44" y="579"/><rect fill="#111" height="2" rx="1" width="6" x="44" y="576"/><path d="m47 587v-11" stroke="#111" stroke-width="2"/><rect fill="#111" height="2" rx="1" width="6" x="29" y="598"/><rect fill="#111" height="2" rx="1" width="6" x="29" y="595"/><rect fill="#111" height="2" rx="1" width="6" x="29" y="592"/><rect fill="#111" height="2" rx="1" width="6" x="29" y="589"/><path d="m32 600v-11" stroke="#111" stroke-width="2"/><rect fill="#111" height="2" rx="1" width="6" x="-3" y="568"/><rect fill="#111" height="2" rx="1" width="6" x="-3" y="565"/><rect fill="#111" height="2" rx="1" width="6" x="-3" y="562"/><rect fill="#111" height="2" rx="1" width="6" x="-3" y="559"/><path d="m0 570v-11" stroke="#111" stroke-width="2"/><rect fill="#111" height="752" rx="2" width="6" x="14" y="523"/><rect fill="#111" height="6" rx="1" transform="matrix(-.70710678 -.70710678 .70710678 -.70710678 -336.985809 1041.191908)" width="99.2" x="47.145" y="590.388"/><rect fill="#111" height="6" rx="1" transform="matrix(-.70710678 -.70710678 .70710678 -.70710678 -357.491906 1090.698004)" width="99.2" x="47.145" y="619.388"/><g stroke="#111"><path d="m837.5 515.5c-334.29 23.782-521.712 22.917-856 0"/><path d="m837.5 515.5c325.23 26.795 508.94 27.918 839.5 0"/><path d="m1677 515.5c127.61 17.042 199.7 19.218 330 0"/><path d="m837 544.5c-335.06 18.762-521.951 19.981-853 0"/><path d="m837.5 544.5c327.86 24.422 511.64 24.921 839.5 0"/><path d="m1677 544.5c119.58 11.245 187.38 13.009 311 0"/><path d="m903 580c-335.56 15.868-523.121 17.654-856 0"/><path d="m47 580c-168.769 12.928-263.066 13.795-430.5 0"/><path d="m903.5 580c323.73 21.136 508.11 21.538 842.5 0"/><path d="m900 606c-333.644 19.299-521.02 20.815-856 0"/><path d="m44 606c-146.998 10.881-228.515 11.872-371.5 0"/><path d="m900 606c325.86 21.407 510.07 21.261 841.25 0"/></g></g></svg>