<svg fill="none" height="180" viewBox="0 0 180 180" width="180" xmlns="http://www.w3.org/2000/svg"><path d="m0 0h180v180h-180z" fill="#00154a"/><g fill="#fff"><path d="m89.1875 104.781c0 2.688-.5156 5.203-1.5469 7.547-1 2.313-2.375 4.344-4.125 6.094-1.7187 1.719-3.75 3.078-6.0937 4.078-2.3438 1-4.8281 1.5-7.4531 1.5h-45.5157v-9.609h45.5157c1.3124 0 2.5468-.25 3.7031-.75 1.1875-.5 2.2187-1.188 3.0937-2.063s1.5625-1.89 2.0625-3.047c.5-1.187.75-2.437.75-3.75 0-1.312-.25-2.547-.75-3.703-.5-1.1561-1.1875-2.1718-2.0625-3.0468s-1.9062-1.5624-3.0937-2.0624c-1.1563-.5-2.3907-.75-3.7031-.75h-45.5157v-9.6094h35.9063c1.3125 0 2.5468-.25 3.7031-.75 1.1875-.5 2.2187-1.1875 3.0937-2.0625s1.5626-1.8907 2.0626-3.0469c.5-1.1875.75-2.4375.75-3.75s-.25-2.5469-.75-3.7031c-.5-1.1875-1.1876-2.2188-2.0626-3.0938s-1.9062-1.5625-3.0937-2.0625c-1.1563-.5-2.3906-.75-3.7031-.75h-40.6875v57.6094h-9.6094v-67.2188h50.2969c2.625 0 5.1094.5157 7.4531 1.5469 2.3437 1 4.375 2.375 6.0937 4.125 1.75 1.7188 3.125 3.75 4.125 6.0938 1.0313 2.3437 1.5469 4.8281 1.5469 7.4531 0 2.0312-.2969 3.9531-.8906 5.7656-.5937 1.7813-1.3906 3.4375-2.3906 4.9688 1.875.6562 3.5937 1.5781 5.1562 2.7656 1.5938 1.1875 2.9531 2.5625 4.0781 4.125 1.1563 1.5625 2.0469 3.2969 2.6719 5.2031.6563 1.8749.9844 3.8599.9844 5.9529z"/><path d="m170.797 124h-43.266c-4.656 0-8.89-.875-12.703-2.625-3.812-1.75-7.078-4.141-9.797-7.172-2.687-3.031-4.765-6.594-6.2341-10.687-1.4688-4.0941-2.2031-8.4691-2.2031-13.1254 0-4.625.7343-8.9687 2.2031-13.0312 1.4691-4.0938 3.5471-7.6563 6.2341-10.6875 2.719-3.0625 5.985-5.4688 9.797-7.2188 3.813-1.7812 8.047-2.6719 12.703-2.6719h43.266v9.6094h-43.266c-3.312 0-6.297.6406-8.953 1.9219-2.625 1.25-4.859 2.9687-6.703 5.1563-1.813 2.1562-3.219 4.6874-4.219 7.5937-.968 2.9063-1.453 6.0156-1.453 9.3281s.485 6.4375 1.453 9.375c1 2.9064 2.406 5.4534 4.219 7.6404 1.844 2.156 4.078 3.86 6.703 5.11 2.656 1.25 5.641 1.875 8.953 1.875h43.266z"/></g></svg>