<svg fill="none" height="200" viewBox="0 0 565 200" width="565" xmlns="http://www.w3.org/2000/svg"><g fill="#000"><path d="m103.399 35.0966c-1.066-.0578-2.138-.0898-3.216-.0956l-.3578-1.0098-.3574 1.0098c-1.0785.0058-2.1508.0378-3.2162.0956l3.5736-10.0966z"/><path d="m94.5269 35.2128-4.9142-9.5142-2.1633 10.4781c1.0489-.2022 2.1067-.3791 3.1728-.5302l.2148-1.0404.4879.9447c1.0596-.1384 2.1271-.2513 3.202-.338z"/><path d="m82.6228 37.3007c1.0317-.2824 2.0736-.5401 3.1251-.7722l-6.1575-8.7473-.7159 10.6691c1.0127-.3446 2.0367-.665 3.0712-.9603l.0705-1.051z"/><path d="m74.2452 40.2268c.9838-.4216 1.9802-.8196 2.9883-1.1933l-7.2884-7.8243.7438 10.6709c.9572-.4808 1.928-.9387 2.9116-1.3729l-.0733-1.0512z"/><path d="m66.35 44.2713c.9177-.5524 1.8501-1.0827 2.7965-1.5904l-8.2901-6.7624 2.1917 10.4789c.8835-.6074 1.7829-1.1935 2.6973-1.7576l-.2173-1.039z"/><path d="m59.0802 49.3527c.8348-.6724 1.6866-1.3246 2.5546-1.9559l-9.1412-5.5751 3.6002 10.0885c.7934-.7219 1.6048-1.4245 2.4334-2.107l-.3594-1.0069z"/><path d="m52.5653 55.3735c.7368-.78 1.4927-1.5418 2.2669-2.2845l-9.8197-4.2805 4.9398 9.5033c.6887-.8229 1.3973-1.6286 2.1251-2.4162l-.4938-.9501z"/><path d="m46.9239 62.2229c.6248-.8734 1.2707-1.7307 1.937-2.5712l-10.3085-2.9027 6.1835 8.7359c.5708-.9092 1.1636-1.8033 1.7775-2.6815l-.6154-.8694z"/><path d="m42.264 69.777c.5005-.9512 1.0238-1.8884 1.5693-2.811l-10.5995-1.4709 7.3099 7.8067c.4418-.9794.9072-1.946 1.3954-2.8989l-.7221-.7712z"/><path d="m38.68 77.8964c.3657-1.0114.7557-2.0112 1.1695-2.9985l-10.6939-.0139 8.304 6.738c.3037-1.0322.6324-2.0538.9852-3.064l-.8171-.663z"/><path d="m36.2443 86.4276c.2236-1.0528.4727-2.0961.7467-3.1293l-10.5971 1.4425 9.1517 5.549c.1596-1.0658.3451-2.1231.5559-3.1713l-.9045-.5484z"/><path d="m34.9991 95.2086c.0783-1.0747.1827-2.1421.3126-3.2016l-10.3117 2.8748 9.8308 4.255c.014-1.0788.0543-2.1513.1203-3.2169l-.9808-.4245z"/><path d="m34.9511 104.08c-.066-1.065-.1063-2.138-.1203-3.217l-9.8308 4.255 10.3117 2.875c-.1299-1.06-.2343-2.127-.3126-3.202l-1.0288-.286z"/><path d="m36.1015 112.881c-.2108-1.048-.3963-2.105-.5559-3.171l-9.1517 5.549 10.5971 1.443c-.274-1.033-.5231-2.077-.7467-3.13l-1.0473-.142z"/><path d="m38.4448 121.442c-.3528-1.01-.6815-2.032-.9852-3.064l-8.304 6.738 10.6939-.014c-.4138-.987-.8038-1.987-1.1695-2.998l-1.0523.001z"/><path d="m41.9391 129.597c-.4882-.953-.9536-1.919-1.3954-2.899l-7.3099 7.807 10.5995-1.471c-.5455-.923-1.0688-1.86-1.5693-2.811l-1.047.145z"/><path d="m46.5134 137.197c-.6139-.879-1.2067-1.773-1.7775-2.682l-6.1835 8.736 10.3085-2.903c-.6663-.84-1.3122-1.697-1.937-2.571l-1.0259.289z"/><path d="m52.0774 144.104c-.7278-.787-1.4364-1.593-2.1251-2.416l-4.9398 9.503 9.8197-4.28c-.7742-.743-1.5301-1.504-2.2669-2.284l-.9817.427z"/><path d="m58.5272 150.197c-.8286-.683-1.64-1.385-2.4334-2.107l-3.6002 10.088 9.1412-5.575c-.868-.631-1.7198-1.283-2.5546-1.956l-.9124.557z"/><path d="m65.7454 155.36c-.9144-.564-1.8138-1.15-2.6973-1.757l-2.1917 10.478 8.2901-6.762c-.9464-.508-1.8788-1.038-2.7965-1.59l-.8219.67z"/><path d="m73.6005 159.493c-.9836-.434-1.9544-.892-2.9116-1.373l-.7438 10.671 7.2884-7.825c-1.0081-.373-2.0045-.771-2.9883-1.193l-.718.771z"/><path d="m81.9457 162.51c-1.0345-.295-2.0585-.616-3.0712-.96l.7159 10.669 6.1575-8.747c-1.0515-.233-2.0934-.49-3.1251-.773l-.6066.862z"/><path d="m90.6222 164.354c-1.0661-.152-2.1239-.329-3.1728-.531l2.1633 10.478 4.9142-9.514c-1.0749-.087-2.1424-.199-3.202-.338l-.4879.945z"/><path d="m99.4678 164.999c-1.0785-.006-2.1508-.038-3.2162-.096l3.5736 10.097 3.5738-10.097c-1.066.058-2.138.09-3.216.096l-.3578 1.01z"/><path d="m108.325 164.449c-1.059.139-2.127.251-3.202.338l4.915 9.514 2.163-10.478c-1.049.202-2.107.379-3.173.531l-.215 1.04z"/><path d="m117.028 162.699c-1.032.283-2.074.54-3.126.773l6.158 8.747.716-10.669c-1.013.344-2.037.665-3.071.96l-.071 1.051z"/><path d="m125.405 159.773c-.984.422-1.98.82-2.988 1.193l7.288 7.825-.744-10.671c-.957.481-1.928.939-2.911 1.373l.073 1.051z"/><path d="m133.3 155.729c-.917.552-1.85 1.082-2.796 1.59l8.29 6.762-2.192-10.478c-.883.607-1.783 1.193-2.697 1.757l.217 1.039z"/><path d="m140.57 150.647c-.835.673-1.686 1.325-2.554 1.956l9.141 5.575-3.6-10.088c-.794.722-1.605 1.424-2.434 2.107l.359 1.007z"/><path d="m147.085 144.627c-.737.78-1.493 1.541-2.267 2.284l9.82 4.28-4.94-9.503c-.689.823-1.397 1.629-2.125 2.416l.494.95z"/><path d="m152.726 137.777c-.624.874-1.27 1.731-1.937 2.571l10.309 2.903-6.184-8.736c-.57.909-1.163 1.803-1.777 2.682l.615.869z"/><path d="m157.386 130.223c-.5.951-1.024 1.888-1.569 2.811l10.6 1.471-7.31-7.807c-.442.98-.908 1.946-1.396 2.899l.722.771z"/><path d="m160.97 122.104c-.365 1.011-.755 2.011-1.169 2.998l10.694.014-8.304-6.738c-.304 1.032-.633 2.054-.985 3.064l.817.663z"/><path d="m163.406 113.572c-.224 1.053-.473 2.097-.747 3.13l10.597-1.443-9.151-5.549c-.16 1.066-.345 2.123-.556 3.171l.904.549z"/><path d="m164.651 104.791c-.078 1.075-.182 2.142-.312 3.202l10.311-2.875-9.83-4.255c-.014 1.079-.055 2.152-.121 3.217l.981.425z"/><path d="m164.699 95.9199c.066 1.0656.107 2.1381.121 3.2169l9.83-4.255-10.311-2.8748c.13 1.0595.234 2.1269.312 3.2016l1.029.2868z"/><path d="m163.549 87.1185c.211 1.0482.396 2.1055.556 3.1713l9.151-5.549-10.597-1.4425c.274 1.0332.523 2.0765.747 3.1293l1.047.1425z"/><path d="m161.206 78.5581c.352 1.0101.681 2.0317.985 3.0639l8.304-6.738-10.694.0139c.414.9873.804 1.9871 1.169 2.9985l1.053-.0014z"/><path d="m157.711 70.4029c.488.9529.954 1.9195 1.396 2.8989l7.31-7.8067-10.6 1.4709c.545.9226 1.069 1.8598 1.569 2.811l1.047-.1453z"/><path d="m153.137 62.8034c.614.8782 1.207 1.7723 1.777 2.6815l6.184-8.7359-10.309 2.9027c.667.8405 1.313 1.6978 1.937 2.5712l1.026-.2889z"/><path d="m147.573 55.8956c.728.7876 1.436 1.5933 2.125 2.4162l4.94-9.5033-9.82 4.2805c.774.7427 1.53 1.5045 2.267 2.2845l.982-.428z"/><path d="m141.123 49.8032c.829.6825 1.64 1.3851 2.434 2.107l3.6-10.0885-9.141 5.5751c.868.6313 1.719 1.2835 2.554 1.9559l.912-.5564z"/><path d="m133.905 44.6398c.914.5641 1.814 1.1502 2.697 1.7576l2.192-10.4789-8.29 6.7624c.946.5077 1.879 1.038 2.796 1.5904l.822-.6705z"/><path d="m126.05 40.5072c.983.4342 1.954.8921 2.911 1.3729l.744-10.6709-7.288 7.8243c1.008.3737 2.004.7717 2.988 1.1933l.718-.7708z"/><path d="m117.705 37.49c1.034.2953 2.058.6157 3.071.9603l-.716-10.6691-6.158 8.7473c1.052.2321 2.094.4898 3.126.7722l.606-.8617z"/><path d="m109.028 35.6465c1.066.1511 2.124.328 3.173.5302l-2.163-10.4781-4.915 9.5142c1.075.0867 2.143.1996 3.202.338l.488-.9447z"/><path d="m100 150c27.614 0 50-22.386 50-50 0-27.6142-22.386-50-50-50-27.6142 0-50 22.3858-50 50 0 27.614 22.3858 50 50 50z"/><path clip-rule="evenodd" d="m16 0c-8.83656 0-16 7.16344-16 16v168c0 8.837 7.16344 16 16 16h168c8.837 0 16-7.163 16-16v-168c0-8.83656-7.163-16-16-16zm168 12h-168c-2.2091 0-4 1.7909-4 4v168c0 2.209 1.7909 4 4 4h168c2.209 0 4-1.791 4-4v-168c0-2.2091-1.791-4-4-4z" fill-rule="evenodd"/><path d="m253.68 86.04-4.512 14.592h15.072l-4.512-14.592c-.256-.576-.544-.992-.864-1.248-.256-.256-.576-.384-.96-.384h-2.4c-.384 0-.736.128-1.056.384-.256.256-.512.672-.768 1.248zm-5.472 45.504c0 1.216-.288 2.112-.864 2.688-.512.512-1.376.768-2.592.768h-14.112c-1.216 0-2.112-.256-2.688-.768-.512-.576-.768-1.472-.768-2.688v-25.344c0-1.92.288-4.128.864-6.624.64-2.496 1.6-5.408 2.88-8.736l8.352-21.792c.384-1.088.96-1.888 1.728-2.4.832-.512 1.888-.768 3.168-.768h25.824c1.216 0 2.208.256 2.976.768.832.512 1.44 1.312 1.824 2.4l8.352 21.792c1.28 3.328 2.208 6.24 2.784 8.736.64 2.496.96 4.704.96 6.624v25.344c0 1.216-.288 2.112-.864 2.688-.512.512-1.376.768-2.592.768h-14.496c-1.28 0-2.24-.256-2.88-.768-.576-.576-.864-1.472-.864-2.688v-13.44h-16.992z"/><path d="m339.069 135h-36.864c-1.216 0-2.112-.256-2.688-.768-.512-.576-.768-1.472-.768-2.688v-62.208c0-1.216.256-2.08.768-2.592.576-.576 1.472-.864 2.688-.864h30.624c6.272 0 10.912 1.216 13.92 3.648 3.008 2.368 4.512 6.048 4.512 11.04v4.608c0 2.688-.48 4.896-1.44 6.624-.896 1.664-2.304 2.912-4.224 3.744 4.096.384 7.136 1.792 9.12 4.224s2.976 5.984 2.976 10.656v8.832c0 5.376-1.536 9.344-4.608 11.904-3.008 2.56-7.68 3.84-14.016 3.84zm-18.72-52.8v10.368h8.16c1.216 0 2.112-.32 2.688-.96.64-.64.96-1.6.96-2.88v-2.688c0-1.28-.32-2.24-.96-2.88-.576-.64-1.472-.96-2.688-.96zm0 25.152v11.328h12.48c1.216 0 2.112-.32 2.688-.96.64-.64.96-1.6.96-2.88v-3.744c0-1.28-.32-2.208-.96-2.784-.576-.64-1.472-.96-2.688-.96z"/><path d="m426.871 116.856c0 2.944-.448 5.632-1.344 8.064-.832 2.368-2.368 4.416-4.608 6.144-2.176 1.664-5.216 2.976-9.12 3.936-3.84.96-8.735 1.44-14.687 1.44s-10.88-.48-14.784-1.44-6.976-2.272-9.216-3.936c-2.176-1.728-3.712-3.776-4.608-6.144-.832-2.432-1.249-5.12-1.249-8.064v-32.736c0-2.944.417-5.6 1.249-7.968.896-2.432 2.432-4.512 4.608-6.24 2.24-1.728 5.312-3.072 9.216-4.032s8.832-1.44 14.784-1.44 10.847.48 14.687 1.44c3.904.96 6.944 2.304 9.12 4.032 2.24 1.728 3.776 3.808 4.608 6.24.896 2.368 1.344 5.024 1.344 7.968zm-37.823-3.456c0 1.28.479 2.368 1.439 3.264.96.832 3.169 1.248 6.625 1.248s5.664-.416 6.624-1.248c.96-.896 1.44-1.984 1.44-3.264v-25.824c0-1.216-.48-2.24-1.44-3.072-.96-.896-3.168-1.344-6.624-1.344s-5.665.448-6.625 1.344c-.96.832-1.439 1.856-1.439 3.072z"/><path d="m497.941 116.856c0 2.944-.448 5.632-1.344 8.064-.832 2.368-2.368 4.416-4.608 6.144-2.176 1.664-5.184 2.976-9.024 3.936s-8.736 1.44-14.688 1.44-10.848-.48-14.688-1.44-6.88-2.272-9.12-3.936c-2.176-1.728-3.712-3.776-4.608-6.144-.832-2.432-1.248-5.12-1.248-8.064v-47.52c0-1.216.256-2.08.768-2.592.576-.576 1.472-.864 2.688-.864h15.072c1.216 0 2.08.288 2.592.864.576.512.864 1.376.864 2.592v43.776c0 1.28.48 2.368 1.44 3.264.96.832 3.104 1.248 6.432 1.248 3.392 0 5.568-.416 6.528-1.248.96-.896 1.44-1.984 1.44-3.264v-43.776c0-1.216.256-2.08.768-2.592.576-.576 1.472-.864 2.688-.864h14.592c1.216 0 2.08.288 2.592.864.576.512.864 1.376.864 2.592z"/><path d="m543.358 135h-15.552c-1.216 0-2.112-.256-2.688-.768-.512-.576-.768-1.472-.768-2.688v-47.136h-14.112c-1.216 0-2.112-.256-2.688-.768-.512-.576-.768-1.472-.768-2.688v-11.616c0-1.216.256-2.08.768-2.592.576-.576 1.472-.864 2.688-.864h50.688c1.216 0 2.08.288 2.592.864.576.512.864 1.376.864 2.592v11.616c0 1.216-.288 2.112-.864 2.688-.512.512-1.376.768-2.592.768h-14.112v47.136c0 1.216-.288 2.112-.864 2.688-.512.512-1.376.768-2.592.768z"/></g></svg>