<svg fill="none" height="20" viewBox="0 0 36 20" width="36" xmlns="http://www.w3.org/2000/svg"><path clip-rule="evenodd" d="m36 0h-36v20h36zm-18.1582 14.5684c.2148-.4883.3223-1.0125.3223-1.5723 0-.1821-.0119-.3604-.0358-.5347-.0333-.2429-.0897-.478-.1693-.7055-.1302-.3973-.3158-.7586-.5567-1.084-.2343-.3255-.5175-.6121-.8496-.8594-.3255-.24731-.6836-.43945-1.0742-.57617.2083-.31909.3743-.66406.4981-1.03516.1237-.37768.1855-.77807.1855-1.20117 0-.30542-.0335-.60181-.1005-.88892-.053-.22705-.1269-.44824-.2218-.66381-.2083-.48829-.4948-.91138-.8593-1.26954-.3581-.3645-.7813-.65112-1.2696-.85937-.4882-.21484-1.0058-.32227-1.5527-.32227h-10.47851v14.00391h2.00195v-12.00195h8.47656c.2734 0 .5306.052.7715.15625.2474.10424.4622.24731.6445.42968.1823.18238.3255.39722.4297.64454.1042.24096.1563.49804.1563.77148s-.0521.53394-.1563.78125c-.1042.24097-.2474.45239-.4297.63477-.1823.18237-.3971.32544-.6445.42968-.2409.10425-.4981.15625-.7715.15625h-7.48047v2.00195h9.48247c.2734 0 .5305.052.7714.1563.2474.1042.4623.2473.6446.4296.1063.1065.1993.2227.279.3489.057.0901.1073.1856.1507.2859.1041.241.1562.4981.1562.7715 0 .083-.0048.1648-.0144.2454-.022.185-.0693.3635-.1418.5358-.1042.241-.2474.4524-.4297.6348-.0929.093-.1943.1758-.3041.2483-.1057.0698-.2191.1304-.3405.1814-.2409.1042-.498.1562-.7714.1562h-9.48247v2.002h9.48247c.5468 0 1.0644-.1042 1.5527-.3125s.9114-.4915 1.2695-.8496c.3646-.3645.6511-.7879.8594-1.2695zm8.3105 2.4316h9.0137v-2.002h-9.0137c-.6901 0-1.3118-.1301-1.8652-.3906-.346-.1648-.6594-.3672-.9402-.6074-.1631-.1396-.3152-.292-.4563-.457-.3776-.4558-.6706-.9864-.8789-1.5918-.2018-.6121-.3027-1.263-.3027-1.95315 0-.69019.1009-1.33789.3027-1.94336.2083-.60547.5013-1.13281.8789-1.58203.3841-.45581.8496-.81372 1.3965-1.07422.5534-.26685 1.1751-.40039 1.8652-.40039h9.0137v-2.00196h-9.0137c-.97 0-1.8522.18555-2.6464.55664-.7943.36451-1.4747.86597-2.0411 1.50391-.5598.63159-.9928 1.37378-1.2988 2.22656-.306.84644-.459 1.75122-.459 2.71485 0 .96995.153 1.88155.459 2.73435s.739 1.595 1.2988 2.2266c.5664.6316 1.2468 1.1296 2.0411 1.4941.7942.3645 1.6764.5469 2.6464.5469z" fill="#fff" fill-rule="evenodd"/></svg>