<svg fill="none" height="200" viewBox="0 0 526 200" width="526" xmlns="http://www.w3.org/2000/svg"><g fill="#000"><path d="m240.496 86.816h4.224c3.256 0 5.72.792 7.392 2.376 1.76 1.584 2.64 3.784 2.64 6.6v23.1c0 3.256-.88 5.632-2.64 7.128-1.76 1.408-4.312 2.112-7.656 2.112h-10.956c-6.952 0-10.428-3.124-10.428-9.372v-42.636c0-4.224 1.672-6.336 5.016-6.336 3.08 0 4.62 2.288 4.62 6.864l.132 4.62c0 3.696 2.552 5.544 7.656 5.544zm4.752 28.644v-15.972c0-5.368-1.848-8.052-5.544-8.052h-1.716c-3.432 0-5.148 2.904-5.148 8.712l-.132 15.444c0 5.368 1.804 8.052 5.412 8.052h1.848c3.52 0 5.28-2.728 5.28-8.184z"/><path d="m284.318 91.436c-2.728 0-4.664.792-5.808 2.376-1.144 1.496-1.716 3.74-1.716 6.732v14.916c0 5.368 2.42 8.052 7.26 8.052 2.112 0 3.476-.308 4.092-.924.616-.704 1.012-1.452 1.188-2.244.264-.88.616-1.628 1.056-2.244.528-.616 1.716-.924 3.564-.924 3.168 0 4.752 1.936 4.752 5.808 0 1.848-.836 3.168-2.508 3.96-1.672.704-4.18 1.056-7.524 1.056h-11.484c-6.688 0-10.032-3.036-10.032-9.108v-23.1c.176-5.984 3.652-8.976 10.428-8.976h11.088c3.344 0 5.852.484 7.524 1.452 1.672.88 2.508 1.98 2.508 3.3 0 3.696-1.584 5.544-4.752 5.544-1.936 0-3.168-.264-3.696-.792-.528-.616-.968-1.276-1.32-1.98-.264-.792-.66-1.452-1.188-1.98-.44-.616-1.584-.924-3.432-.924z"/><path d="m349.524 102.788h-31.416c-3.52 0-5.28-.968-5.28-2.904 0-2.024 1.804-3.036 5.412-3.036h31.284c3.52 0 5.28 1.012 5.28 3.036 0 1.936-1.76 2.904-5.28 2.904z"/><path d="m412.437 119.156c0 5.896-3.608 8.844-10.824 8.844h-22.044c-7.04 0-10.56-2.948-10.56-8.844v-39.468c0-5.544 3.52-8.316 10.56-8.316h22.044c7.216 0 10.824 2.772 10.824 8.316zm-27.324 3.96h9.768c.968 0 1.936-.132 2.904-.396s1.848-.704 2.64-1.32c.88-.616 1.54-1.452 1.98-2.508.528-1.144.792-2.596.792-4.356v-24.024c0-.88-.308-1.32-.924-1.32-.792 0-2.2 1.012-4.224 3.036l-16.368 21.912c-2.464 2.376-3.696 4.312-3.696 5.808 0 2.112 2.376 3.168 7.128 3.168zm14.388-37.356c2.024-1.848 3.036-3.564 3.036-5.148 0-1.496-.836-2.552-2.508-3.168-1.584-.616-3.08-.924-4.488-.924h-9.24c-2.728 0-4.796.704-6.204 2.112-1.32 1.408-1.98 3.696-1.98 6.864v22.968c0 .792.22 1.188.66 1.188.528 0 1.848-.924 3.96-2.772z"/><path d="m445.798 122.06v-38.544c0-2.376-.572-3.96-1.716-4.752-1.144-.88-2.42-1.452-3.828-1.716-1.408-.352-2.728-.66-3.96-.924-1.144-.264-1.716-.968-1.716-2.112 0-1.672 1.672-2.508 5.016-2.508h5.676c6.864 0 10.296 3.124 10.296 9.372v41.712c0 4.4-1.628 6.6-4.884 6.6s-4.884-2.376-4.884-7.128z"/><path d="m525.359 119.156c0 5.896-3.608 8.844-10.824 8.844h-22.044c-7.04 0-10.56-2.948-10.56-8.844v-39.468c0-5.544 3.52-8.316 10.56-8.316h22.044c7.216 0 10.824 2.772 10.824 8.316zm-27.324 3.96h9.768c.968 0 1.936-.132 2.904-.396s1.848-.704 2.64-1.32c.88-.616 1.54-1.452 1.98-2.508.528-1.144.792-2.596.792-4.356v-24.024c0-.88-.308-1.32-.924-1.32-.792 0-2.2 1.012-4.224 3.036l-16.368 21.912c-2.464 2.376-3.696 4.312-3.696 5.808 0 2.112 2.376 3.168 7.128 3.168zm14.388-37.356c2.024-1.848 3.036-3.564 3.036-5.148 0-1.496-.836-2.552-2.508-3.168-1.584-.616-3.08-.924-4.488-.924h-9.24c-2.728 0-4.796.704-6.204 2.112-1.32 1.408-1.98 3.696-1.98 6.864v22.968c0 .792.22 1.188.66 1.188.528 0 1.848-.924 3.96-2.772z"/><path d="m96 20h20v9h-20z"/><path d="m188 20v16h-20v-16z"/><path d="m188 47h-20v40h20z"/><path d="m164 20v39h-20v-39z"/><path d="m164 70h-20v17h20z"/><path d="m140 20v27h-20v-27z"/><path d="m140 58h-20v29h20z"/><path d="m96 87v-47h20v47z"/><path d="m12 161h26v26h-26z"/><path d="m68 187v-26h-26v26z"/><path d="m57 131h26v26h-26z"/><path d="m113 131h-26v26h26z"/><path d="m117 131h26v26h-26z"/><path d="m72 161v26h26v-26z"/><path d="m102 187v-26h26v26z"/><path d="m132 161v26h26v-26z"/><path d="m162 161h26v26h-26z"/><g clip-rule="evenodd" fill-rule="evenodd"><path d="m83 20h-71v14h71zm-55.0034 4.4903c-.3166.5628-.6661 1.4726-1.0339 2.7804l-1.9254-.5414c.3822-1.3589.7827-2.449 1.2161-3.2196.2164-.3847.4679-.7388.7697-1.0071.3079-.2736.7219-.5026 1.2269-.5026s.919.229 1.2269.5026c.3018.2683.5533.6224.7697 1.0071.4334.7706.8339 1.8607 1.2161 3.2196.3678 1.3078.7173 2.2176 1.0339 2.7804.0995.177.1853.3004.2534.3838.0681-.0834.1539-.2068.2534-.3838.3166-.5628.6661-1.4726 1.0339-2.7804.3822-1.3589.7827-2.449 1.2161-3.2196.2164-.3847.4679-.7388.7697-1.0071.3079-.2736.7219-.5026 1.2269-.5026s.919.229 1.2269.5026c.3018.2683.5533.6224.7697 1.0071.4334.7706.8339 1.8607 1.2161 3.2196.3678 1.3078.7173 2.2176 1.0339 2.7804.0995.177.1853.3004.2534.3838.0681-.0834.1539-.2068.2534-.3838.3166-.5628.6661-1.4726 1.0339-2.7804.3822-1.3589.7827-2.449 1.2161-3.2196.2164-.3847.4679-.7388.7697-1.0071.3079-.2736.7219-.5026 1.2269-.5026s.919.229 1.2269.5026c.3018.2683.5533.6224.7697 1.0071.4334.7706.8339 1.8607 1.2161 3.2196.3678 1.3078.7173 2.2176 1.0339 2.7804.0995.177.1853.3004.2534.3838.0681-.0834.1539-.2068.2534-.3838.3166-.5628.6661-1.4726 1.0339-2.7804.3822-1.3589.7827-2.449 1.2161-3.2196.2164-.3847.4679-.7388.7697-1.0071.3079-.2736.7219-.5026 1.2269-.5026s.919.229 1.2269.5026c.3018.2683.5533.6224.7697 1.0071.4334.7706.8339 1.8607 1.2161 3.2196.3678 1.3078.7173 2.2176 1.0339 2.7804.0995.177.1853.3004.2534.3838.0681-.0834.1539-.2068.2534-.3838.3166-.5628.6661-1.4726 1.0339-2.7804.3822-1.3589.7827-2.449 1.2161-3.2196.2164-.3847.4679-.7388.7697-1.0071.3079-.2736.7219-.5026 1.2269-.5026s.919.229 1.2269.5026c.3018.2683.5533.6224.7697 1.0071.4334.7706.8339 1.8607 1.216 3.2196.3679 1.3078.7174 2.2176 1.034 2.7804.0995.177.1853.3004.2534.3838.0681-.0834.1539-.2068.2534-.3838.3166-.5628.6661-1.4726 1.034-2.7804l1.9252.5414c-.3821 1.3589-.7826 2.449-1.216 3.2196-.2164.3847-.4679.7388-.7697 1.0071-.3079.2736-.7219.5026-1.2269.5026s-.919-.229-1.2269-.5026c-.3018-.2683-.5533-.6224-.7697-1.0071-.4334-.7706-.8339-1.8607-1.216-3.2196-.3679-1.3078-.7174-2.2176-1.034-2.7804-.0995-.177-.1853-.3004-.2534-.3838-.0681.0834-.1539.2068-.2534.3838-.3166.5628-.6661 1.4726-1.0339 2.7804-.3822 1.3589-.7827 2.449-1.2161 3.2196-.2164.3847-.4679.7388-.7697 1.0071-.3079.2736-.7219.5026-1.2269.5026s-.919-.229-1.2269-.5026c-.3018-.2683-.5533-.6224-.7697-1.0071-.4334-.7706-.8339-1.8607-1.2161-3.2196-.3678-1.3078-.7173-2.2176-1.0339-2.7804-.0995-.177-.1853-.3004-.2534-.3838-.0681.0834-.1539.2068-.2534.3838-.3166.5628-.6661 1.4726-1.0339 2.7804-.3822 1.3589-.7827 2.449-1.2161 3.2196-.2164.3847-.4679.7388-.7697 1.0071-.3079.2736-.7219.5026-1.2269.5026s-.919-.229-1.2269-.5026c-.3018-.2683-.5533-.6224-.7697-1.0071-.4334-.7706-.8339-1.8607-1.2161-3.2196-.3678-1.3078-.7173-2.2176-1.0339-2.7804-.0995-.177-.1853-.3004-.2534-.3838-.0681.0834-.1539.2068-.2534.3838-.3166.5628-.6661 1.4726-1.0339 2.7804-.3822 1.3589-.7827 2.449-1.2161 3.2196-.2164.3847-.4679.7388-.7697 1.0071-.3079.2736-.7219.5026-1.2269.5026s-.919-.229-1.2269-.5026c-.3018-.2683-.5533-.6224-.7697-1.0071-.4334-.7706-.8339-1.8607-1.2161-3.2196-.3678-1.3078-.7173-2.2176-1.0339-2.7804-.0995-.177-.1853-.3004-.2534-.3838-.0681.0834-.1539.2068-.2534.3838-.3166.5628-.6661 1.4726-1.0339 2.7804-.3822 1.3589-.7827 2.449-1.2161 3.2196-.2164.3847-.4679.7388-.7697 1.0071-.3079.2736-.7219.5026-1.2269.5026s-.919-.229-1.2269-.5026c-.3018-.2683-.5533-.6224-.7697-1.0071-.4334-.7706-.8339-1.8607-1.2161-3.2196-.3678-1.3078-.7173-2.2176-1.0339-2.7804-.0995-.177-.1853-.3004-.2534-.3838-.0681.0834-.1539.2068-.2534.3838z"/><path d="m12 70v-16h71v16zm36.4831-14.2474 4.0669 8.0334 4.05-8 4.05 8 4.0338-7.9681 4.2 8 4.0662-8.0319 4.9422 9.7623-1.7844.9034-3.1578-6.2377-4.0338 7.9681-4.2-8-4.0662 8.0319-4.05-8-4.05 8-4.0331-7.9666-3.8839 7.9669-4.1999-8-3.9 8-4.2001-8-3.8999 8-4.2331-8.063-3.3146 6.3135-1.7708-.9296 5.0854-9.6865 4.167 7.937 3.9-8 4.1999 8 3.9001-8 4.2 8z"/><path d="m12 72h71v15h-71zm42.9863 2.184-4.8764 6v-5.9117l-5.0824 6v-6.0285l-5.0138 6v-6l-6.7811 8.115 1.5348 1.2824 3.2463-3.885v6l5.0138-6v5.9715l5.0824-6v6.0883l4.8764-6v5.9402l5.0137-6v3.2438h2v-8.7562l-5.0137 6z"/><path d="m83 36v16h-71v-16zm-40.4 2v9h-3.4v-7.605h-7.4v6.21h-3.4v-7.245h-7.4v5.14h2v-3.14h3.4v7.245h7.4v-6.21h3.4v7.605h7.4v-9h3.4v8.19h7.4v-7.38h3.4v6.795h7.4v-6.21h3.4v7.425h7.4v-5.32h-2v3.32h-3.4v-7.425h-7.4v6.21h-3.4v-6.795h-7.4v7.38h-3.4v-8.19z"/><path d="m16 0c-8.83656 0-16 7.16344-16 16v168c0 8.837 7.16344 16 16 16h168c8.837 0 16-7.163 16-16v-168c0-8.83656-7.163-16-16-16zm174 89v-71h-96v71zm-180 70h45v-30h90v30h45v30h-180zm75-70h-75v-71h75z"/></g></g></svg>