<svg fill="none" height="106" viewBox="0 0 499 106" width="499" xmlns="http://www.w3.org/2000/svg"><path d="m3.39601 100.404c-2.98014-2.4696-3.39406069-6.8874-.92452-9.8675l72.21011-87.14024c2.4696-2.980142 6.8874-3.39406917 9.8676-.92453 2.9801 2.46954 3.394 6.88738.9245 9.86747l-72.2102 87.1403c-2.4695 2.9805-6.88735 3.3945-9.86749.9245z" fill="#080808"/><path d="m27.396 103.404c-2.9801-2.47-3.3941-6.8874-.9245-9.8675l72.2101-87.14024c2.4694-2.98014 6.8874-3.39407 9.8674-.92453s3.394 6.88737.925 9.86747l-72.2105 87.1398c-2.4695 2.981-6.8874 3.395-9.8675.925z" fill="#080808"/><path d="m53.396 103.404c-2.9801-2.47-3.3941-6.8874-.9245-9.8675l72.2105-87.14024c2.469-2.98014 6.887-3.39407 9.867-.92453s3.394 6.88737.925 9.86747l-72.2105 87.1398c-2.4695 2.981-6.8874 3.395-9.8675.925z" fill="#080808"/><path d="m79.396 103.404c-2.9801-2.47-3.3941-6.8874-.9245-9.8675l72.2105-87.14024c2.469-2.98014 6.887-3.39407 9.867-.92453s3.394 6.88737.925 9.86747l-72.2105 87.1398c-2.4695 2.981-6.8874 3.395-9.8675.925z" fill="#080808"/><g fill="#000"><path d="m242.232 84.5201c0 6.912-2.304 12.0747-6.912 15.4879-2.219 1.621-4.523 2.901-6.912 3.84-2.304.853-4.565 1.28-6.784 1.28h-27.904c-2.219 0-4.523-.427-6.912-1.28-2.304-.939-4.565-2.219-6.784-3.84-2.219-1.7065-3.925-3.7972-5.12-6.2719-1.195-2.56-1.792-5.632-1.792-9.216v-60.8c0-3.4133.597-6.4 1.792-8.96 1.195-2.6453 2.901-4.77866 5.12-6.39999h-.128c2.219-1.45067 4.523-2.64533 6.912-3.584s4.693-1.408 6.912-1.408h27.904c2.219 0 4.523.46933 6.912 1.408s4.693 2.13333 6.912 3.584h-.128c2.219 1.62133 3.925 3.75469 5.12 6.39999 1.195 2.56 1.792 5.5467 1.792 8.96v8.832c0 4.096-2.56 6.144-7.68 6.144-5.035 0-7.552-2.048-7.552-6.144v-7.68c0-2.1333-.64-4.096-1.92-5.888s-3.499-2.688-6.656-2.688h-21.504c-3.157 0-5.376.896-6.656 2.688s-1.92 3.7547-1.92 5.888v58.624c0 2.2187.64 4.224 1.92 6.016s3.499 2.688 6.656 2.688h21.504c3.157 0 5.376-.896 6.656-2.688s1.92-3.7973 1.92-6.016v-7.424c0-4.0107 2.517-6.016 7.552-6.016 5.12 0 7.68 2.0053 7.68 6.016z"/><path d="m278.916 105c-2.645 0-5.163-.341-7.552-1.024-2.389-.768-4.693-1.835-6.912-3.2v.128c-4.181-2.6452-6.272-7.5092-6.272-14.5919v-6.272c0-3.4987.597-6.528 1.792-9.088 1.28-2.6453 3.029-4.736 5.248-6.272h-.128c2.133-1.4507 4.395-2.5173 6.784-3.2 2.389-.768 4.693-1.152 6.912-1.152h28.288v-11.904c0-2.1333-.683-4.0533-2.048-5.76-1.28-1.792-3.499-2.688-6.656-2.688h-14.976c-3.243 0-5.504.8107-6.784 2.432-1.195 1.536-1.792 3.3707-1.792 5.504v1.024c0 4.4373-2.389 6.656-7.168 6.656s-7.168-2.2187-7.168-6.656v-1.152c0-3.4987.597-6.4427 1.792-8.832 1.28-2.3893 2.987-4.3947 5.12-6.016h-.128c2.219-1.4507 4.523-2.6453 6.912-3.584 2.475-.9387 4.821-1.408 7.04-1.408h19.456c2.133 0 4.395.4693 6.784 1.408 2.475.9387 4.779 2.1333 6.912 3.584h-.128c2.219 1.6213 3.925 3.7547 5.12 6.4 1.195 2.56 1.792 5.5467 1.792 8.96v51.328c0 4.0959-2.347 6.1439-7.04 6.1439-.939 0-1.835-.043-2.688-.128-.768-.085-1.493-.299-2.176-.64-.597-.427-1.109-.981-1.536-1.664-.341-.768-.512-1.749-.512-2.944l-.128-28.0319h-25.856c-1.877 0-3.328.2133-4.352.64s-1.835 1.1093-2.432 2.048c-.683 1.4507-1.195 2.6027-1.536 3.456-.256.768-.384 1.664-.384 2.688v4.992c0 2.2187.64 3.9253 1.92 5.12 1.365 1.1093 3.669 1.664 6.912 1.664h14.336c3.157 0 4.736 2.0053 4.736 6.016 0 1.7069-.384 3.1569-1.152 4.3519-.768 1.109-1.963 1.664-3.584 1.664z"/><path d="m351.537 99.6241c0 4.0959-2.347 6.1439-7.04 6.1439-4.864 0-7.296-2.048-7.296-6.1439v-52.992c0-6.9973 2.091-11.8613 6.272-14.592s9.003-4.096 14.464-4.096h14.592c3.157 0 4.736 2.0053 4.736 6.016.171 4.0107-1.408 6.016-4.736 6.016h-13.568c-3.072 0-5.077.5973-6.016 1.792s-1.408 2.8587-1.408 4.992z"/><path d="m402.168 84.5201c0 2.048.64 3.968 1.92 5.76 1.365 1.792 3.627 2.688 6.784 2.688h16c3.157 0 5.376-.768 6.656-2.304 1.365-1.6213 2.048-3.456 2.048-5.504v-1.408c0-4.0107 2.347-6.016 7.04-6.016s7.04 2.0053 7.04 6.016v1.536c0 3.584-.597 6.528-1.792 8.832-1.109 2.304-2.816 4.3093-5.12 6.0159-4.523 3.243-9.045 4.864-13.568 4.864h-21.504c-4.523 0-8.917-1.621-13.184-4.864-2.048-1.7066-3.627-3.8399-4.736-6.3999-1.109-2.6453-1.664-5.6747-1.664-9.088v-36.48c0-6.912 2.133-12.032 6.4-15.36 2.133-1.536 4.309-2.7307 6.528-3.584 2.304-.9387 4.523-1.408 6.656-1.408h21.504c2.048 0 4.309.4267 6.784 1.28 2.475.768 4.779 1.8347 6.912 3.2 2.048 1.4507 3.669 3.456 4.864 6.016 1.28 2.56 1.92 5.5893 1.92 9.088v17.28c0 1.9627-.597 3.712-1.792 5.248-1.109 1.536-3.2 2.304-6.272 2.304h-27.648c-3.072 0-4.693-2.0053-4.864-6.016 0-4.0107 1.621-6.016 4.864-6.016h21.76l-.128-11.904c0-2.1333-.683-4.0533-2.048-5.76-1.28-1.792-3.499-2.688-6.656-2.688h-16c-3.157 0-5.419.896-6.784 2.688-1.28 1.7067-1.92 3.6267-1.92 5.76z"/><path d="m482.731 39.9761v46.592c0 2.2187.469 3.9254 1.408 5.12.939 1.1947 2.944 1.792 6.016 1.792h3.328c3.328 0 4.907 1.9627 4.736 5.888 0 4.0109-1.579 6.0159-4.736 6.0159h-4.224c-2.731 0-5.291-.341-7.68-1.024-2.389-.768-4.693-1.835-6.912-3.2v.128c-4.181-2.7306-6.272-7.5946-6.272-14.5919v-46.72h-4.992c-3.072 0-4.693-2.0053-4.864-6.016 0-4.0107 1.621-6.016 4.864-6.016h4.992v-13.696c0-4.096 2.432-6.14399 7.296-6.14399 4.693 0 7.04 2.04799 7.04 6.14399v13.696h10.624c3.328 0 4.907 2.0053 4.736 6.016 0 4.0107-1.579 6.016-4.736 6.016z"/></g></svg>