<svg fill="none" height="96" viewBox="0 0 329 96" width="329" xmlns="http://www.w3.org/2000/svg"><path clip-rule="evenodd" d="m48.854 0c-27.015 0-48.854 22-48.854 49.217 0 21.756 13.993 40.172 33.405 46.69 2.427.49 3.316-1.059 3.316-2.362 0-1.141-.08-5.052-.08-9.127-13.59 2.934-16.42-5.867-16.42-5.867-2.184-5.704-5.42-7.17-5.42-7.17-4.448-3.015.324-3.015.324-3.015 4.934.326 7.523 5.052 7.523 5.052 4.367 7.496 11.404 5.378 14.235 4.074.404-3.178 1.699-5.378 3.074-6.6-10.839-1.141-22.243-5.378-22.243-24.283 0-5.378 1.94-9.778 5.014-13.2-.485-1.222-2.184-6.275.486-13.038 0 0 4.125-1.304 13.426 5.052 3.9821-1.0773 8.0888-1.6254 12.214-1.63 4.125 0 8.33.571 12.213 1.63 9.302-6.356 13.427-5.052 13.427-5.052 2.67 6.763.97 11.816.485 13.038 3.155 3.422 5.015 7.822 5.015 13.2 0 18.905-11.404 23.06-22.324 24.283 1.78 1.548 3.316 4.481 3.316 9.126 0 6.6-.08 11.897-.08 13.526 0 1.304.89 2.853 3.316 2.364 19.412-6.52 33.405-24.935 33.405-46.691.08-27.217-21.839-49.217-48.773-49.217z" fill="#24292f" fill-rule="evenodd"/><g fill="#000"><path d="m146.664 79.248c-4.16 0-8-1.056-11.52-3.168s-6.304-4.96-8.352-8.544-3.072-7.488-3.072-11.712v-22.464c0-4.224 1.024-8.128 3.072-11.712s4.832-6.432 8.352-8.544 7.36-3.16801 11.52-3.16801c3.392 0 6.56.60801 9.504 1.82401 2.944 1.152 5.536 2.848 7.776 5.088.32.256.48.64.48 1.152 0 .448-.16.864-.48 1.248-1.344 1.536-2.208 2.496-2.592 2.88-.448.32-.896.48-1.344.48-.512 0-.992-.224-1.44-.672-3.2-3.072-7.136-4.608-11.808-4.608-2.752 0-5.28.736-7.584 2.208s-4.128 3.456-5.472 5.952c-1.344 2.432-2.016 5.056-2.016 7.872v22.464c0 2.816.672 5.472 2.016 7.968 1.344 2.432 3.168 4.384 5.472 5.856s4.832 2.208 7.584 2.208c4.672 0 8.608-1.536 11.808-4.608.448-.448.928-.672 1.44-.672.448 0 .896.16 1.344.48.384.384 1.248 1.344 2.592 2.88.32.32.48.736.48 1.248 0 .448-.16.832-.48 1.152-2.24 2.24-4.832 3.968-7.776 5.184-2.944 1.152-6.112 1.728-9.504 1.728z"/><path d="m196.009 79.248c-3.776 0-7.264-.928-10.464-2.784s-5.728-4.384-7.584-7.584c-1.856-3.264-2.784-6.784-2.784-10.56v-14.976c0-3.776.928-7.264 2.784-10.464 1.856-3.264 4.384-5.824 7.584-7.68s6.688-2.784 10.464-2.784 7.264.928 10.464 2.784 5.728 4.416 7.584 7.68c1.856 3.2 2.784 6.688 2.784 10.464v14.976c0 3.776-.928 7.296-2.784 10.56-1.856 3.2-4.384 5.728-7.584 7.584s-6.688 2.784-10.464 2.784zm0-7.104c2.432 0 4.672-.576 6.72-1.728 2.048-1.216 3.648-2.848 4.8-4.896 1.216-2.048 1.824-4.288 1.824-6.72v-15.936c0-2.432-.608-4.672-1.824-6.72-1.152-2.048-2.752-3.648-4.8-4.8-2.048-1.216-4.288-1.824-6.72-1.824s-4.672.608-6.72 1.824c-2.048 1.152-3.68 2.752-4.896 4.8-1.152 2.048-1.728 4.288-1.728 6.72v15.936c0 2.432.576 4.672 1.728 6.72 1.216 2.048 2.848 3.68 4.896 4.896 2.048 1.152 4.288 1.728 6.72 1.728z"/><path d="m249.898 79.248c-3.648 0-7.008-.896-10.08-2.688s-5.504-4.224-7.296-7.296-2.688-6.432-2.688-10.08v-16.704c0-3.648.896-7.008 2.688-10.08s4.224-5.504 7.296-7.296c3.136-1.792 6.528-2.688 10.176-2.688 2.624 0 5.152.48 7.584 1.44 2.496.96 4.672 2.304 6.528 4.032v-21.40801c0-.384.128-.704.384-.96s.576-.384.96-.384h4.8c.384 0 .704.128.96.384s.384.576.384.96v70.17601c0 .384-.128.704-.384.96s-.576.384-.96.384h-4.416c-.384 0-.704-.128-.96-.384s-.384-.576-.384-.96v-4.224c-1.792 2.176-3.968 3.872-6.528 5.088-2.496 1.152-5.184 1.728-8.064 1.728zm.768-7.104c2.432 0 4.672-.576 6.72-1.728 2.112-1.216 3.744-2.848 4.896-4.896 1.216-2.048 1.824-4.288 1.824-6.72v-15.936c0-2.432-.608-4.672-1.824-6.72-1.152-2.048-2.784-3.648-4.896-4.8-2.048-1.216-4.288-1.824-6.72-1.824s-4.672.608-6.72 1.824c-2.048 1.152-3.68 2.752-4.896 4.8-1.152 2.048-1.728 4.288-1.728 6.72v15.936c0 2.432.576 4.672 1.728 6.72 1.216 2.048 2.848 3.68 4.896 4.896 2.048 1.152 4.288 1.728 6.72 1.728z"/><path d="m307.759 78c-3.776 0-7.264-.928-10.464-2.784s-5.728-4.384-7.584-7.584c-1.856-3.264-2.784-6.784-2.784-10.56v-13.728c0-3.776.928-7.264 2.784-10.464 1.856-3.264 4.384-5.824 7.584-7.68s6.688-2.784 10.464-2.784 7.264.928 10.464 2.784 5.728 4.416 7.584 7.68c1.856 3.2 2.784 6.688 2.784 10.464v6.528c0 .96-.352 1.792-1.056 2.496-.64.64-1.44.96-2.4.96h-30.72v4.224c0 2.432.576 4.672 1.728 6.72 1.216 2.048 2.848 3.68 4.896 4.896 2.048 1.152 4.288 1.728 6.72 1.728h13.92c.384 0 .704.128.96.384s.384.576.384.96v4.416c0 .384-.128.704-.384.96s-.576.384-.96.384zm13.344-31.584v-3.552c0-2.432-.608-4.672-1.824-6.72-1.152-2.048-2.752-3.648-4.8-4.8-2.048-1.216-4.288-1.824-6.72-1.824s-4.672.608-6.72 1.824c-2.048 1.152-3.68 2.752-4.896 4.8-1.152 2.048-1.728 4.288-1.728 6.72v3.552z"/></g></svg>