<svg fill="none" height="133" viewBox="0 0 797 133" width="797" xmlns="http://www.w3.org/2000/svg"><g fill="#000"><path d="m.418213 79.2065v2.3049l18.698887 32.3876 32.3873 18.699h37.3977l32.3869-18.699 18.699-32.3876v-2.3049z"/><path d="m22.4216 31.4214 4.8617 13.8683 13.1383 5.1317-13.1383 5.1317-4.8617 13.8683-4.8616-13.8683-13.13837-5.1317 13.13837-5.1317z"/><path d="m70.4216.421387 4.8617 13.868313 13.1383 5.1317-13.1383 5.1317-4.8617 13.8683-4.8616-13.8683-13.1384-5.1317 13.1384-5.1317z"/><path d="m118.422 31.4214 4.861 13.8683 13.139 5.1317-13.139 5.1317-4.861 13.8683-4.862-13.8683-13.138-5.1317 13.138-5.1317z"/><path d="m229.953 96.4995c-5.782-5.5312-8.672-14.0781-8.672-25.6406 0-11.5938 2.89-20.1563 8.672-25.6875 5.812-5.5625 14.515-8.3438 26.109-8.3438h10.453c7.094 0 13.36 1.8438 18.797 5.5313 5.469 3.6875 8.203 8.7344 8.203 15.1406 0 1.8438-.547 3.1719-1.64 3.9844-1.094.7812-2.157 1.1719-3.188 1.1719h-5.578c-2.875 0-5.109-1.7188-6.703-5.1563-2.313-4.9375-6.156-7.4062-11.531-7.4062h-8.344c-6.844 0-11.485 1.4687-13.922 4.4062-2.438 2.9375-3.656 8.375-3.656 16.3125s1.218 13.3906 3.656 16.3594c2.437 2.9375 7.078 4.4062 13.922 4.4062h9.328c5.375 0 9.203-2.4687 11.484-7.4062 1.594-3.4688 3.844-5.2031 6.75-5.2031h5.578c1.469 0 2.625.5468 3.469 1.6406.875 1.0937 1.313 2.2812 1.313 3.5625 0 6.4062-2.719 11.4531-8.157 15.1406-5.437 3.656-11.703 5.484-18.796 5.484h-11.438c-11.594 0-20.297-2.765-26.109-8.2965zm142.376.9844c-6.375 5.5941-15.75 8.3911-28.125 8.3911-12.344 0-21.719-2.797-28.125-8.3911-6.406-5.625-9.609-14.5156-9.609-26.6719 0-12.1562 3.203-21.0312 9.609-26.625 6.406-5.5937 15.781-8.3906 28.125-8.3906 12.375 0 21.75 2.7969 28.125 8.3906 6.406 5.5938 9.609 14.4688 9.609 26.625 0 12.1563-3.203 21.0469-9.609 26.6719zm-12.797-43.4063c-3.156-3.75-8.266-5.625-15.328-5.625-7.031 0-12.141 1.875-15.328 5.625-3.156 3.75-4.735 9.3438-4.735 16.7813 0 7.4062 1.579 12.9844 4.735 16.7344 3.187 3.7187 8.297 5.5781 15.328 5.5781 7.062 0 12.172-1.8594 15.328-5.5781 3.156-3.75 4.734-9.3282 4.734-16.7344 0-7.4375-1.578-13.0313-4.734-16.7813zm38.783 45.9374v-58.3592c0-1.2188.421-2.2657 1.265-3.1407s1.875-1.3125 3.094-1.3125h13.781c1.094 0 2.25.4375 3.469 1.3125s2.219 1.9219 3 3.1407l28.312 43.5468v-43.6406c0-1.2187.422-2.25 1.266-3.0937.875-.8438 1.922-1.2657 3.141-1.2657h8.062c1.219 0 2.25.4219 3.094 1.2657.875.8437 1.312 1.9062 1.312 3.1875v58.3592c0 1.219-.437 2.266-1.312 3.141-.844.844-1.875 1.265-3.094 1.265h-15.562c-1.219 0-2.469-.421-3.75-1.265-1.282-.875-2.297-1.922-3.047-3.141l-25.922-40.2186v40.2186c0 1.219-.438 2.266-1.313 3.141-.843.844-1.875 1.265-3.093 1.265h-8.25c-1.219 0-2.266-.421-3.141-1.265-.875-.875-1.312-1.922-1.312-3.141zm84.204-53.953v-4.4062c0-1.2813.422-2.3438 1.266-3.1875.843-.8438 1.906-1.2657 3.187-1.2657h59.484c1.282 0 2.344.4219 3.188 1.2657.844.8437 1.266 1.9062 1.266 3.1875v4.4062c0 1.2813-.422 2.3438-1.266 3.1875-.844.8125-1.906 1.2188-3.188 1.2188h-20.906v49.6407c0 1.219-.437 2.25-1.312 3.094-.844.812-1.875 1.218-3.094 1.218h-8.859c-1.219 0-2.266-.406-3.141-1.218-.844-.844-1.266-1.875-1.266-3.094v-49.6407h-20.906c-1.281 0-2.344-.4063-3.187-1.2188-.844-.8437-1.266-1.9062-1.266-3.1875zm73.517 54.047 11.765-44.6251c3.188-12.1563 13.563-18.25 31.125-18.2813h25.266c1.156 0 2.109.4375 2.859 1.3125.782.875 1.172 1.8907 1.172 3.0469v58.547c0 1.219-.437 2.25-1.312 3.094-.875.812-1.922 1.218-3.141 1.218h-8.812c-1.282 0-2.344-.406-3.188-1.218-.812-.844-1.219-1.907-1.219-3.188v-11.8124h-33.328l-3.14 11.8124c-.313 1.281-1.016 2.344-2.11 3.188-1.093.812-2.25 1.218-3.468 1.218h-9.235c-1.219 0-2.094-.343-2.625-1.031-.531-.719-.797-1.344-.797-1.875.032-.531.094-1 .188-1.406zm24.656-25.172h29.859v-24.4687h-13.359c-3 0-5.625.8593-7.875 2.5781-2.219 1.6875-3.719 3.9687-4.5 6.8437zm72.486 21.5625c-5.782-5.5312-8.672-14.0781-8.672-25.6406 0-11.5938 2.89-20.1563 8.672-25.6875 5.812-5.5625 14.515-8.3438 26.109-8.3438h10.453c7.094 0 13.36 1.8438 18.797 5.5313 5.469 3.6875 8.203 8.7344 8.203 15.1406 0 1.8438-.547 3.1719-1.64 3.9844-1.094.7812-2.157 1.1719-3.188 1.1719h-5.578c-2.875 0-5.109-1.7188-6.703-5.1563-2.313-4.9375-6.156-7.4062-11.531-7.4062h-8.344c-6.844 0-11.485 1.4687-13.922 4.4062-2.438 2.9375-3.656 8.375-3.656 16.3125s1.218 13.3906 3.656 16.3594c2.437 2.9375 7.078 4.4062 13.922 4.4062h9.328c5.375 0 9.203-2.4687 11.484-7.4062 1.594-3.4688 3.844-5.2031 6.75-5.2031h5.578c1.469 0 2.625.5468 3.469 1.6406.875 1.0937 1.313 2.2812 1.313 3.5625 0 6.4062-2.719 11.4531-8.157 15.1406-5.437 3.656-11.703 5.484-18.796 5.484h-11.438c-11.594 0-20.297-2.765-26.109-8.2965zm73.657-50.4375v-4.4062c0-1.2813.422-2.3438 1.266-3.1875.844-.8438 1.906-1.2657 3.187-1.2657h59.485c1.281 0 2.343.4219 3.187 1.2657.844.8437 1.266 1.9062 1.266 3.1875v4.4062c0 1.2813-.422 2.3438-1.266 3.1875-.844.8125-1.906 1.2188-3.187 1.2188h-20.907v49.6407c0 1.219-.437 2.25-1.312 3.094-.844.812-1.875 1.218-3.094 1.218h-8.859c-1.219 0-2.266-.406-3.141-1.218-.844-.844-1.265-1.875-1.265-3.094v-49.6407h-20.907c-1.281 0-2.343-.4063-3.187-1.2188-.844-.8437-1.266-1.9062-1.266-3.1875z"/></g></svg>