<svg width="600" height="266" viewBox="0 0 600 266" fill="none" xmlns="http://www.w3.org/2000/svg">
<g clip-path="url(#clip0_96_161)">
<path d="M82 -49H112V341H82V-49Z" fill="black"/>
<path d="M485 -49H515V341H485V-49Z" fill="black"/>
<path d="M-49 220V190H638V220H-49Z" fill="black"/>
<path d="M-49 76V46H638V76H-49Z" fill="black"/>
<path d="M184.8 109.2C189.621 109.2 193.269 110.459 195.744 112.976C198.261 115.451 199.52 119.099 199.52 123.92V139.28C199.52 144.101 198.261 147.771 195.744 150.288C193.269 152.763 189.621 154 184.8 154H159.84V109.2H184.8ZM188 123.92C188 120.08 186.08 118.16 182.24 118.16H171.36V145.04H182.24C186.08 145.04 188 143.12 188 139.28V123.92Z" fill="black"/>
<path d="M271.182 121.36C271.182 118.8 269.902 117.52 267.342 117.52H256.462C253.902 117.52 252.622 118.8 252.622 121.36V141.84C252.622 144.4 253.902 145.68 256.462 145.68H267.342C269.902 145.68 271.182 144.4 271.182 141.84V121.36ZM282.702 141.84C282.702 146.32 281.678 149.584 279.63 151.632C277.625 153.637 274.382 154.64 269.902 154.64H253.902C249.422 154.64 246.158 153.637 244.11 151.632C242.105 149.584 241.102 146.32 241.102 141.84V121.36C241.102 116.88 242.105 113.637 244.11 111.632C246.158 109.584 249.422 108.56 253.902 108.56H269.902C274.382 108.56 277.625 109.584 279.63 111.632C281.678 113.637 282.702 116.88 282.702 121.36V141.84Z" fill="black"/>
<path d="M343.242 140.56L354.122 109.2H366.602L349.642 154H336.842L319.882 109.2H332.362L343.242 140.56Z" fill="black"/>
<path d="M441.8 154H406.28V109.2H441.8V118.16H417.8V126.8H436.68V135.76H417.8V145.04H441.8V154Z" fill="black"/>
</g>
<defs>
<clipPath id="clip0_96_161">
<rect width="600" height="266" fill="white"/>
</clipPath>
</defs>
</svg>
