<svg width="300" height="348" viewBox="0 0 300 348" fill="none" xmlns="http://www.w3.org/2000/svg">
<path fill-rule="evenodd" clip-rule="evenodd" d="M0 347.205L300 174L0 0.794922V347.205ZM85.9332 192.62C89.0532 194.14 92.5732 194.9 96.4932 194.9C100.413 194.9 103.913 194.14 106.993 192.62C110.113 191.06 112.573 188.66 114.373 185.42C116.213 182.14 117.133 178.06 117.133 173.18C117.133 168.3 116.213 164.24 114.373 161C112.573 157.72 110.113 155.3 106.993 153.74C103.913 152.18 100.413 151.4 96.4932 151.4C92.5732 151.4 89.0532 152.18 85.9332 153.74C82.8532 155.3 80.3932 157.72 78.5532 161C76.7532 164.24 75.8532 168.3 75.8532 173.18C75.8532 178.06 76.7532 182.14 78.5532 185.42C80.3932 188.66 82.8532 191.06 85.9332 192.62ZM105.073 185.18C103.153 187.9 100.293 189.26 96.4932 189.26C92.6932 189.26 89.8132 187.9 87.8532 185.18C85.9332 182.42 84.9732 178.42 84.9732 173.18C84.9732 167.94 85.9332 163.94 87.8532 161.18C89.8132 158.42 92.6932 157.04 96.4932 157.04C100.293 157.04 103.153 158.42 105.073 161.18C107.033 163.94 108.013 167.94 108.013 173.18C108.013 178.42 107.033 182.42 105.073 185.18ZM16.1799 193.58C16.4199 193.86 16.7399 194 17.1399 194H36.5199C40.3999 194 43.8799 193.26 46.9599 191.78C50.0799 190.3 52.5599 188.02 54.3999 184.94C56.2399 181.82 57.16 177.92 57.16 173.24C57.16 168.56 56.2399 164.66 54.3999 161.54C52.5599 158.38 50.0799 156.06 46.9599 154.58C43.84 153.06 40.3599 152.3 36.5199 152.3H17.1399C16.7399 152.3 16.4199 152.44 16.1799 152.72C15.9399 153 15.8199 153.44 15.8199 154.04C15.8199 154.88 16.0999 155.54 16.6599 156.02C17.2199 156.46 18.2599 156.98 19.7799 157.58L20.5599 157.88V188.42L19.7799 188.72C18.2599 189.32 17.2199 189.86 16.6599 190.34C16.0999 190.78 15.8199 191.42 15.8199 192.26C15.8199 192.86 15.9399 193.3 16.1799 193.58ZM45.0999 184.4C43.1799 187.04 40.3199 188.36 36.5199 188.36H29.5599V157.94H36.5199C40.3199 157.94 43.1799 159.3 45.0999 162.02C47.0599 164.7 48.0399 168.44 48.0399 173.24C48.0399 178.04 47.0599 181.76 45.0999 184.4ZM137.123 157.4H134.243C133.683 157.4 133.243 157.22 132.923 156.86C132.643 156.5 132.503 155.98 132.503 155.3C132.503 154.3 132.863 153.56 133.583 153.08C134.303 152.56 135.263 152.3 136.463 152.3H151.343C152.103 152.3 152.483 152.7 152.483 153.5C152.483 154.18 152.223 154.74 151.703 155.18C151.183 155.58 150.383 155.98 149.303 156.38L146.663 157.34L156.083 185C156.323 185.72 156.503 186.46 156.623 187.22C156.783 187.98 156.863 188.46 156.863 188.66H157.103C157.103 188.46 157.163 187.98 157.283 187.22C157.443 186.46 157.663 185.72 157.943 185L168.083 157.4H164.543C163.983 157.4 163.543 157.22 163.223 156.86C162.943 156.5 162.803 155.98 162.803 155.3C162.803 154.3 163.163 153.56 163.883 153.08C164.603 152.56 165.563 152.3 166.763 152.3H179.063C179.823 152.3 180.203 152.7 180.203 153.5C180.203 154.46 179.443 155.3 177.923 156.02L174.923 157.4L161.123 194H150.623L137.123 157.4ZM197.778 193.58C198.018 193.86 198.338 194 198.738 194H234.618V183.68C234.618 183.24 234.518 182.9 234.318 182.66C234.118 182.42 233.758 182.3 233.238 182.3C232.678 182.3 232.198 182.62 231.798 183.26C231.398 183.86 230.918 184.94 230.358 186.5L229.638 188.48H211.158V175.4H224.778L225.798 177.56C226.158 178.32 226.498 178.88 226.818 179.24C227.178 179.6 227.538 179.78 227.898 179.78C228.738 179.78 229.158 179.38 229.158 178.58V166.82C229.158 166.02 228.738 165.62 227.898 165.62C227.538 165.62 227.178 165.8 226.818 166.16C226.498 166.52 226.158 167.08 225.798 167.84L224.778 170H211.158V157.82H228.738L229.458 159.8C230.018 161.36 230.498 162.46 230.898 163.1C231.298 163.7 231.778 164 232.338 164C232.858 164 233.218 163.88 233.418 163.64C233.618 163.4 233.718 163.06 233.718 162.62V152.3H198.738C198.338 152.3 198.018 152.44 197.778 152.72C197.538 153 197.418 153.44 197.418 154.04C197.418 154.88 197.698 155.54 198.258 156.02C198.818 156.46 199.858 156.98 201.378 157.58L202.158 157.88V188.42L201.378 188.72C199.858 189.32 198.818 189.86 198.258 190.34C197.698 190.78 197.418 191.42 197.418 192.26C197.418 192.86 197.538 193.3 197.778 193.58Z" fill="black"/>
</svg>
