<svg fill="none" height="45" viewBox="0 0 380 45" width="380" xmlns="http://www.w3.org/2000/svg"><g fill="#000"><path d="m46.7188 45h-46.3438v-44.8125h46.3438v6.40625h-39.93755v32.00005h39.93755zm-5.4376-19.1875h-31.31245v-6.4063h31.31245z"/><path d="m158.745 45h-6.406v-12.8125h-35.75v-6.375h35.75v-19.21875h-22.969c-2.188 0-4.25.42708-6.188 1.28125-1.937.83333-3.625 1.97917-5.062 3.4375-1.438 1.4375-2.583 3.125-3.438 5.0625-.833 1.9375-1.25 4.0104-1.25 6.2188v22.4062h-6.406v-22.4062c0-2.0626.261-4.0417.781-5.9376.542-1.9166 1.292-3.6979 2.25-5.3437.98-1.66667 2.146-3.17708 3.5-4.53125 1.375-1.375 2.886-2.55208 4.532-3.53125 1.666-.97917 3.448-1.72917 5.343-2.25 1.896-.541667 3.875-.8125 5.938-.8125h29.375z"/><path d="m272.084 32.1875c0 1.7917-.334 3.4687-1 5.0313-.667 1.5416-1.584 2.8958-2.75 4.0624-1.146 1.1459-2.5 2.0521-4.063 2.7188-1.541.6667-3.198 1-4.969 1h-38.937v-6.4062h38.937c.896 0 1.73-.1667 2.5-.5.771-.3334 1.438-.7917 2-1.375.584-.5834 1.042-1.2605 1.375-2.0313.334-.7917.5-1.625.5-2.5s-.166-1.6979-.5-2.4687c-.333-.7709-.791-1.448-1.375-2.0313-.562-.5833-1.229-1.0417-2-1.375-.77-.3333-1.604-.5-2.5-.5h-26.125c-1.75 0-3.406-.3333-4.968-1-1.563-.6667-2.927-1.5729-4.094-2.7187-1.146-1.1667-2.063-2.5313-2.75-4.0938-.667-1.5625-1-3.2292-1-5 0-1.75.333-3.40625 1-4.96875.687-1.5625 1.604-2.91667 2.75-4.0625 1.167-1.16667 2.531-2.08333 4.094-2.75 1.562-.6875 3.218-1.03125 4.968-1.03125h35.719v6.40625h-35.719c-.875 0-1.708.16667-2.5.5-.77.33333-1.447.79167-2.031 1.375-.583.58333-1.041 1.27083-1.375 2.06245-.333.7709-.5 1.5938-.5 2.4688s.167 1.7083.5 2.5c.334.7708.792 1.4479 1.375 2.0312.584.5834 1.261 1.0417 2.031 1.375.792.3334 1.625.5 2.5.5h26.125c1.771 0 3.428.3438 4.969 1.0313 1.563.6667 2.917 1.5833 4.063 2.75 1.166 1.1458 2.083 2.5 2.75 4.0625.666 1.5417 1 3.1875 1 4.9375z"/><path d="m357.047 45h-6.406v-38.40625h-22.656v-6.40625h51.719v6.40625h-22.657z"/></g></svg>