<svg fill="none" height="266" viewBox="0 0 600 266" width="600" xmlns="http://www.w3.org/2000/svg" xmlns:xlink="http://www.w3.org/1999/xlink"><clipPath id="a"><path d="m0 0h600v266h-600z"/></clipPath><g clip-path="url(#a)" fill="#000"><path d="m145.793 78.125v-24.3164c0-.5078.182-.9375.547-1.2891.364-.3515.801-.5273 1.308-.5273h22.52c.508 0 .937.1823 1.289.5469.365.3645.547.8007.547 1.3086v1.8359c0 .5078-.182.944-.547 1.3086-.352.3516-.781.5273-1.289.5273h-17.012v6.875h13.848c.508 0 .937.1823 1.289.5469.365.3646.547.7943.547 1.2891v1.8554c0 .5079-.182.944-.547 1.3086-.352.3516-.781.5274-1.289.5274h-13.848v8.2031c0 .5339-.182.9831-.547 1.3477-.351.3515-.781.5273-1.289.5273h-3.672c-.507 0-.944-.1758-1.308-.5273-.365-.3646-.547-.8138-.547-1.3477z"/><path d="m172.805 55.6836v-1.8359c0-.5339.175-.9766.527-1.3282.352-.3515.794-.5273 1.328-.5273h24.785c.534 0 .977.1758 1.328.5273.352.3516.528.7943.528 1.3282v1.8359c0 .5338-.176.9766-.528 1.3281-.351.3386-.794.5078-1.328.5078h-8.711v20.6836c0 .5078-.182.9375-.546 1.2891-.352.3385-.782.5078-1.29.5078h-3.691c-.508 0-.944-.1693-1.309-.5078-.351-.3516-.527-.7813-.527-1.2891v-20.6836h-8.711c-.534 0-.976-.1692-1.328-.5078-.352-.3515-.527-.7943-.527-1.3281z"/><path d="m218.527 78.2031v-24.3164c0-.5338.183-.9831.547-1.3476.365-.3646.801-.5469 1.309-.5469h3.672c.507 0 .937.1823 1.289.5469.364.3645.547.8138.547 1.3476v20.586h17.011c.508 0 .938.1822 1.289.5468.365.3646.547.8008.547 1.3086v1.836c0 .5078-.182.944-.547 1.3086-.351.3515-.781.5273-1.289.5273h-22.519c-.508 0-.944-.1693-1.309-.5078-.364-.3516-.547-.7813-.547-1.2891z"/><path d="m273.195 77.1094c-2.656 2.3307-6.562 3.4961-11.718 3.4961-5.144 0-9.05-1.1654-11.719-3.4961-2.669-2.3438-4.004-6.0482-4.004-11.1133s1.335-8.763 4.004-11.0938c2.669-2.3307 6.575-3.4961 11.719-3.4961 5.156 0 9.062 1.1654 11.718 3.4961 2.67 2.3308 4.004 6.0287 4.004 11.0938s-1.334 8.7695-4.004 11.1133zm-5.332-18.086c-1.315-1.5625-3.444-2.3437-6.386-2.3437-2.93 0-5.059.7812-6.387 2.3437-1.315 1.5625-1.973 3.8933-1.973 6.9922 0 3.086.658 5.4102 1.973 6.9727 1.328 1.5495 3.457 2.3242 6.387 2.3242 2.942 0 5.071-.7747 6.386-2.3242 1.315-1.5625 1.973-3.8867 1.973-6.9727 0-3.0989-.658-5.4297-1.973-6.9922z"/><path d="m293.039 80.1562c-4.323 0-7.643-1.1653-9.961-3.496-2.305-2.3308-3.457-5.892-3.457-10.6836 0-4.8047 1.205-8.3594 3.613-10.6641 2.422-2.3177 6.049-3.4766 10.879-3.4766h4.356c2.877 0 5.469.6901 7.773 2.0703 2.318 1.3672 3.477 3.0795 3.477 5.1368 0 .7682-.228 1.3216-.684 1.6601-.456.3255-.898.4883-1.328.4883h-2.324c-1.12 0-2.012-.638-2.676-1.9141-.664-1.276-2.305-1.914-4.922-1.914h-3.476c-2.852 0-4.786.612-5.801 1.8359-1.016 1.224-1.524 3.4766-1.524 6.7578 0 3.2813.456 5.5534 1.368 6.8164.911 1.25 2.539 1.875 4.882 1.875h4.004c2.097 0 3.594-.3971 4.492-1.1914.899-.8073 1.361-1.9596 1.387-3.457h-4.414c-.508 0-.944-.1758-1.308-.5273-.352-.3646-.528-.8008-.528-1.3086v-1.5235c0-.5078.176-.9375.528-1.289.364-.3646.8-.5469 1.308-.5469h9.805c.508 0 .937.1823 1.289.5469.364.3515.547.7812.547 1.289v2.168c0 3.6458-1.094 6.4518-3.282 8.418-2.187 1.9531-5.397 2.9296-9.628 2.9296z"/><path d="m314.348 78.2031v-24.3554c0-.5079.182-.9441.547-1.3086.364-.3646.8-.5469 1.308-.5469h3.633c.534 0 .976.1823 1.328.5469.365.3645.547.8007.547 1.3086v24.3164c0 .5078-.189.944-.566 1.3086-.365.3515-.801.5273-1.309.5273h-3.633c-.508 0-.944-.1693-1.308-.5078-.365-.3516-.547-.7813-.547-1.2891z"/><path d="m325.715 72.832c0-.7682.228-1.3151.683-1.6406.456-.3385.899-.5078 1.329-.5078h2.324c1.172 0 2.064.638 2.676 1.9141.612 1.276 1.985 1.914 4.121 1.914l6.836.1367c2.291 0 3.437-.7487 3.437-2.2461 0-1.1328-1.4-2.0247-4.199-2.6757-1.25-.2995-2.63-.5925-4.141-.8789-1.51-.2995-3.014-.6706-4.511-1.1133-1.485-.4427-2.852-.9636-4.102-1.5625-1.25-.599-2.266-1.4193-3.047-2.461-.768-1.0547-1.152-2.2916-1.152-3.7109 0-2.6172.931-4.6289 2.793-6.0352 1.862-1.4192 5.065-2.1289 9.609-2.1289l4.961.1172c2.669 0 5.072.6901 7.207 2.0703 2.149 1.3672 3.223 3.0795 3.223 5.1368 0 .7682-.228 1.3216-.684 1.6601-.456.3386-.892.5078-1.308.5078h-2.325c-1.172 0-2.063-.638-2.675-1.914-.612-1.2891-1.986-1.9336-4.122-1.9336l-5.878-.1172c-2.292 0-3.438.7487-3.438 2.2461 0 .8203.723 1.4909 2.168 2.0117 1.458.5208 3.216.9831 5.273 1.3867 2.071.3906 4.148.8659 6.231 1.4258s3.848 1.4844 5.293 2.7734c1.458 1.2761 2.187 2.8711 2.187 4.7852 0 2.6172-.937 4.6354-2.812 6.0547-1.862 1.4062-5.059 2.1093-9.59 2.1093l-5.918-.1171c-2.669 0-5.078-.6836-7.226-2.0508-2.149-1.3802-3.223-3.099-3.223-5.1563z"/><path d="m355.5 55.6836v-1.8359c0-.5339.176-.9766.527-1.3282.352-.3515.795-.5273 1.328-.5273h24.786c.533 0 .976.1758 1.328.5273.351.3516.527.7943.527 1.3282v1.8359c0 .5338-.176.9766-.527 1.3281-.352.3386-.795.5078-1.328.5078h-8.711v20.6836c0 .5078-.183.9375-.547 1.2891-.352.3385-.781.5078-1.289.5078h-3.692c-.507 0-.944-.1693-1.308-.5078-.352-.3516-.528-.7813-.528-1.2891v-20.6836h-8.711c-.533 0-.976-.1692-1.328-.5078-.351-.3515-.527-.7943-.527-1.3281z"/><path d="m387.199 78.2031v-24.3554c0-.5079.183-.9441.547-1.3086.365-.3646.801-.5469 1.309-.5469h3.633c.533 0 .976.1823 1.328.5469.364.3645.546.8007.546 1.3086v24.3164c0 .5078-.188.944-.566 1.3086-.364.3515-.801.5273-1.308.5273h-3.633c-.508 0-.944-.1693-1.309-.5078-.364-.3516-.547-.7813-.547-1.2891z"/><path d="m402.18 76.6992c-2.409-2.3047-3.614-5.8659-3.614-10.6836 0-4.8307 1.205-8.3984 3.614-10.7031 2.422-2.3177 6.048-3.4766 10.879-3.4766h4.355c2.956 0 5.566.7683 7.832 2.3047 2.279 1.5365 3.418 3.6393 3.418 6.3086 0 .7682-.228 1.3216-.684 1.6602-.455.3255-.898.4883-1.328.4883h-2.324c-1.198 0-2.129-.7162-2.793-2.1485-.963-2.0573-2.565-3.0859-4.805-3.0859h-3.476c-2.852 0-4.785.612-5.801 1.8359-1.015 1.224-1.523 3.4896-1.523 6.7969s.508 5.5794 1.523 6.8164c1.016 1.224 2.949 1.8359 5.801 1.8359h3.887c2.239 0 3.834-1.0286 4.785-3.0859.664-1.4453 1.601-2.168 2.812-2.168h2.324c.612 0 1.094.2279 1.446.6836.364.4558.547.9505.547 1.4844 0 2.6693-1.133 4.7721-3.399 6.3086-2.265 1.5234-4.876 2.2851-7.832 2.2851h-4.765c-4.831 0-8.457-1.1523-10.879-3.457z"/><path d="m431.262 72.832c0-.7682.228-1.3151.683-1.6406.456-.3385.899-.5078 1.328-.5078h2.325c1.172 0 2.063.638 2.675 1.9141.612 1.276 1.986 1.914 4.122 1.914l6.835.1367c2.292 0 3.438-.7487 3.438-2.2461 0-1.1328-1.4-2.0247-4.199-2.6757-1.25-.2995-2.63-.5925-4.141-.8789-1.51-.2995-3.014-.6706-4.512-1.1133-1.484-.4427-2.851-.9636-4.101-1.5625-1.25-.599-2.266-1.4193-3.047-2.461-.768-1.0547-1.152-2.2916-1.152-3.7109 0-2.6172.931-4.6289 2.793-6.0352 1.862-1.4192 5.065-2.1289 9.609-2.1289l4.961.1172c2.669 0 5.072.6901 7.207 2.0703 2.148 1.3672 3.223 3.0795 3.223 5.1368 0 .7682-.228 1.3216-.684 1.6601-.456.3386-.892.5078-1.309.5078h-2.324c-1.172 0-2.064-.638-2.676-1.914-.612-1.2891-1.985-1.9336-4.121-1.9336l-5.879-.1172c-2.291 0-3.437.7487-3.437 2.2461 0 .8203.723 1.4909 2.168 2.0117 1.458.5208 3.216.9831 5.273 1.3867 2.071.3906 4.147.8659 6.231 1.4258 2.083.5599 3.847 1.4844 5.293 2.7734 1.458 1.2761 2.187 2.8711 2.187 4.7852 0 2.6172-.937 4.6354-2.812 6.0547-1.862 1.4062-5.059 2.1093-9.59 2.1093l-5.918-.1171c-2.669 0-5.078-.6836-7.227-2.0508-2.148-1.3802-3.222-3.099-3.222-5.1563z"/><path d="m33 92 43.3013 75h-86.6026z"/><path d="m33 125 43.3013 75h-86.6026z"/><path d="m33 154 43.3013 75h-86.6026z"/><path d="m33 185 43.3013 75h-86.6026z"/><path d="m22 251h22v39h-22z"/><path d="m127.121 128 32.148 55.682h-64.2957z"/><path d="m127.121 152.5 32.148 55.682h-64.2957z"/><path d="m127.121 174.03 32.148 55.682h-64.2957z"/><path d="m127.121 197.045 32.148 55.682h-64.2957z"/><path d="m118.955 246.045h16.333v28.955h-16.333z"/><path d="m230 89.8799 40.703 70.5001h-81.406z"/><path d="m230 120.9 40.703 70.5h-81.406z"/><path d="m230 148.16 40.703 70.5h-81.406z"/><path d="m230 177.3 40.703 70.5h-81.406z"/><path d="m219.66 239.34h20.68v36.66h-20.68z"/><path d="m514.081 150 26.051 45.121h-52.102z"/><path d="m514.081 169.853 26.051 45.122h-52.102z"/><path d="m514.081 187.3 26.051 45.121h-52.102z"/><path d="m514.081 205.95 26.051 45.121h-52.102z"/><path d="m507.463 245.657h13.236v23.463h-13.236z"/><path d="m597.5 115 31.61 63.303h-63.22z"/><path d="m597.5 142.853 31.61 63.303h-63.22z"/><path d="m597.5 167.331 31.61 63.303h-63.22z"/><path d="m597.5 193.496 31.61 63.303h-63.22z"/><path d="m589.47 249.202h16.06v32.918h-16.06z"/><path d="m320 102 31.177 66.712h-62.354z"/><path d="m320 131.353 31.177 66.712h-62.354z"/><path d="m320 157.149 31.177 66.712h-62.354z"/><path d="m320 184.723 31.177 66.712h-62.354z"/><path d="m312.08 243.43h15.84v34.69h-15.84z"/><path d="m423 96 45.033 70.418h-90.066z"/><path d="m423 126.984 45.033 70.418h-90.066z"/><path d="m423 154.212 45.033 70.419h-90.066z"/><path d="m423 183.319 45.033 70.418h-90.066z"/><path d="m411.56 245.287h22.88v36.617h-22.88z"/></g></svg>