<svg enable-background="new 0 0 128 128" height="128" viewBox="0 0 128 128" width="128" xmlns="http://www.w3.org/2000/svg"><g fill="#282d33"><path d="m58.8 128c-31.743 0-57.567-25.56-57.567-56.977 0-31.415 25.824-56.973 57.567-56.973v4c-29.537 0-53.567 23.764-53.567 52.973-.001 29.211 24.03 52.977 53.567 52.977 29.534 0 53.562-23.766 53.562-52.977h4c-.001 31.417-25.823 56.977-57.562 56.977z"/><path d="m58.801 128c-18.828 0-34.146-25.56-34.146-56.977 0-31.415 15.318-56.973 34.146-56.973v4c-16.623 0-30.146 23.764-30.146 52.973 0 29.211 13.523 52.977 30.146 52.977 12.952 0 24.763-15.209 28.72-36.986l3.936.715c-4.378 24.087-17.502 40.271-32.656 40.271z"/><path d="m58.801 128h-2v-74.873h4v70.837c28.612-1.043 51.563-24.391 51.563-52.94 0-2.927-.241-5.842-.718-8.664l3.943-.666c.514 3.042.774 6.18.774 9.33 0 31.416-25.822 56.976-57.562 56.976z"/><path d="m112.13 92.398h-106.662l-.49-1.289c-2.484-6.527-3.744-13.286-3.744-20.086 0-6.806 1.262-13.568 3.749-20.097l.491-1.288h53.06v4h-50.286c-2.001 5.672-3.015 11.513-3.015 17.385 0 5.867 1.013 11.705 3.011 17.375h101.107c1.998-5.68 3.01-11.519 3.01-17.375h4c0 6.788-1.259 13.546-3.741 20.085z"/><path d="m89.014 89.717-1.29-1.089c-1.489-1.256-36.478-31.004-36.478-51.253 0-20.609 16.942-37.375 37.768-37.375 20.817 0 37.754 16.766 37.754 37.375 0 20.248-34.976 49.997-36.464 51.253zm0-85.717c-18.619 0-33.768 14.972-33.768 33.375 0 16.358 27.436 41.493 33.768 47.075 6.329-5.582 33.754-30.717 33.754-47.075 0-18.403-15.142-33.375-33.754-33.375zm0 52.938c-10.901 0-19.771-8.776-19.771-19.563 0-10.779 8.869-19.548 19.771-19.548 10.88 0 19.73 8.769 19.73 19.548 0 10.787-8.85 19.563-19.73 19.563zm0-35.111c-8.696 0-15.771 6.975-15.771 15.548 0 8.582 7.074 15.563 15.771 15.563 8.674 0 15.73-6.981 15.73-15.563 0-8.573-7.056-15.548-15.73-15.548z"/><path d="m89.014 56.938c-10.901 0-19.771-8.776-19.771-19.563 0-10.779 8.869-19.548 19.771-19.548 10.88 0 19.73 8.769 19.73 19.548 0 10.787-8.85 19.563-19.73 19.563zm0-35.111c-8.696 0-15.771 6.975-15.771 15.548 0 8.582 7.074 15.563 15.771 15.563 8.674 0 15.73-6.981 15.73-15.563 0-8.573-7.056-15.548-15.73-15.548z"/></g></svg>