<svg fill="none" height="246" viewBox="0 0 558 246" width="558" xmlns="http://www.w3.org/2000/svg" xmlns:xlink="http://www.w3.org/1999/xlink"><clipPath id="a"><path d="m0 0h558v246h-558z"/></clipPath><g clip-path="url(#a)"><g fill="#f00"><path d="m200.36 63.792c2.368 2.944 5.088 6.752 8.16 11.424 3.072 4.608 5.216 7.68 6.432 9.216s2.176 2.304 2.88 2.304c.768 0 1.44-.416 2.016-1.248s2.688-4.032 6.336-9.6 6.656-9.792 9.024-12.672c2.368-2.944 4.256-4.448 5.664-4.512s3.232-.096 5.472-.096 4.864.064 7.872.192 4.992.928 5.952 2.4c1.024 1.408 1.632 3.424 1.824 6.048.384 6.72.576 15.648.576 26.784 0 11.072-.288 19.808-.864 26.208-.128 1.536-.704 2.912-1.728 4.128s-2.432 1.824-4.224 1.824c-3.904.064-8.256.096-13.056.096-4.736 0-8.512-.096-11.328-.288-1.024-.064-1.952-.448-2.784-1.152-.768-.768-1.184-1.76-1.248-2.976l-.576-15.84c-.064-1.536-.416-2.4-1.056-2.592-.576-.192-1.12.224-1.632 1.248-3.392 6.016-7.616 12.736-12.672 20.16-1.216 1.856-2.816 2.784-4.8 2.784s-3.616-.928-4.896-2.784c-2.24-3.2-6.048-9.984-11.424-20.352-.32-.64-.704-1.024-1.152-1.152-.384-.128-.736.032-1.056.48s-.48 1.184-.48 2.208l-.48 15.84c-.064 1.216-.608 2.208-1.632 2.976-1.024.704-2.208 1.088-3.552 1.152h-9.504c-1.728-.064-3.136-.672-4.224-1.824-1.024-1.152-1.632-2.464-1.824-3.936-.512-5.696-.768-14.528-.768-26.496 0-12.032.16-20.864.48-26.496.192-2.688.8-4.768 1.824-6.24s2.848-2.208 5.472-2.208c13.44 0 20.704.096 21.792.288s2.816 1.76 5.184 4.704z"/><path d="m331.32 124.368-11.232-13.44c-1.152-1.408-2.336-2.112-3.552-2.112-1.472 0-2.208 1.216-2.208 3.648v9.12c0 1.152-.512 2.08-1.536 2.784s-2.24 1.12-3.648 1.248c-4.032.256-8.608.384-13.728.384-5.056 0-9.856-.128-14.4-.384-1.92-.128-3.456-.768-4.608-1.92-1.152-1.216-1.792-2.56-1.92-4.032-.512-5.632-.768-14.368-.768-26.208 0-11.904.128-19.968.384-24.192.32-4.224.896-7.008 1.728-8.352.896-1.408 2.688-2.112 5.376-2.112h25.728c2.112 0 3.872.832 5.28 2.496s2.112 3.712 2.112 6.144l.096 10.752c0 1.344.352 2.016 1.056 2.016.448 0 1.344-.544 2.688-1.632l18.816-17.568c1.536-1.472 3.36-2.208 5.472-2.208 2.176-.064 4.48-.096 6.912-.096l7.392.096c1.024 0 1.728.48 2.112 1.44s.192 1.824-.576 2.592c-7.36 7.36-14.72 14.176-22.08 20.448-.64.576-.96 1.184-.96 1.824 0 .576.352 1.216 1.056 1.92l5.184 5.184c2.624 2.624 4.768 4.768 6.432 6.432 1.728 1.664 3.744 3.68 6.048 6.048 4.608 4.736 8.128 8.576 10.56 11.52 1.28 1.536 1.92 3.104 1.92 4.704 0 .576-.096 1.184-.288 1.824-.704 2.176-2.24 3.264-4.608 3.264h-25.824c-1.984 0-3.456-.544-4.416-1.632z"/><path d="m418.67 125.808c-4.288.384-10.432.576-18.432.576s-13.472-.128-16.416-.384c-2.88-.192-5.056-.704-6.528-1.536s-2.272-2.144-2.4-3.936c-.384-6.912-.576-14.784-.576-23.616 0-8.896.128-18.304.384-28.224.128-6.144 2.976-9.408 8.544-9.792 3.904-.256 9.888-.384 17.952-.384s14.368.128 18.912.384c4.608.192 9.024 1.248 13.248 3.168 4.288 1.856 7.712 4.288 10.272 7.296 5.312 6.208 7.968 13.408 7.968 21.6 0 8.64-2.784 16.352-8.352 23.136-2.688 3.264-6.176 5.952-10.464 8.064-4.224 2.112-8.928 3.328-14.112 3.648zm-4.32-46.272v23.232c0 .512.192.992.576 1.44s.896.672 1.536.672c4.096 0 7.232-1.408 9.408-4.224 2.24-2.816 3.36-6.144 3.36-9.984s-1.024-7.168-3.072-9.984c-1.984-2.88-4.672-4.32-8.064-4.32-.832 0-1.472.032-1.92.096-1.216.32-1.824 1.344-1.824 3.072z"/></g><path d="m24-7c6.8147 173.282 156.104 211.896 551 229" stroke="#f00" stroke-width="7"/><path d="m26-18c14.6044 156.49 128.566 206.462 552 217" stroke="#f00" stroke-width="7"/></g></svg>