<svg width="35" height="200" viewBox="0 0 35 200" fill="none" xmlns="http://www.w3.org/2000/svg">
<path fill-rule="evenodd" clip-rule="evenodd" d="M35 0H0V200H35V0ZM7.73242 15.8525C7.19922 17.5791 6.93262 19.5723 6.93262 21.832C6.93262 24.0918 7.19922 26.0977 7.73242 27.8496C8.29102 29.6016 9.05273 31.0869 10.0176 32.3057C11.0078 33.499 12.1758 34.4258 13.5215 35.0859C14.8672 35.7207 16.3145 36.0889 17.8633 36.1904V32.4199C17.0254 32.3438 16.2256 32.0898 15.4639 31.6582C14.7021 31.2012 14.0293 30.541 13.4453 29.6777C12.8867 28.8145 12.4424 27.748 12.1123 26.4785C11.7822 25.1836 11.6045 23.6348 11.5791 21.832C11.6045 20.0547 11.7822 18.5186 12.1123 17.2236C12.4424 15.9287 12.8867 14.8623 13.4453 14.0244C14.0039 13.1865 14.6641 12.5518 15.4258 12.1201C16.1875 11.6885 17 11.4219 17.8633 11.3203V7.51172C16.2891 7.61328 14.8291 7.99414 13.4834 8.6543C12.1631 9.28906 11.0078 10.2158 10.0176 11.4346C9.05273 12.6279 8.29102 14.1006 7.73242 15.8525ZM23.6904 8.61621C22.3701 7.95605 20.9355 7.58789 19.3867 7.51172V11.2822C20.2246 11.3584 21.0244 11.625 21.7861 12.082C22.5479 12.5137 23.208 13.1611 23.7666 14.0244C24.3506 14.8623 24.8076 15.9287 25.1377 17.2236C25.4678 18.4932 25.6455 20.0293 25.6709 21.832C25.6455 23.6348 25.4678 25.1836 25.1377 26.4785C24.8076 27.748 24.3633 28.8145 23.8047 29.6777C23.2461 30.5156 22.5859 31.1631 21.8242 31.6201C21.0625 32.0518 20.25 32.3184 19.3867 32.4199V36.1904C20.9609 36.0889 22.4082 35.7207 23.7285 35.0859C25.0488 34.4258 26.1914 33.499 27.1562 32.3057C28.1465 31.0869 28.9209 29.6016 29.4795 27.8496C30.0381 26.0977 30.3174 24.0918 30.3174 21.832C30.3174 19.5723 30.0381 17.5791 29.4795 15.8525C28.9209 14.1006 28.1465 12.6279 27.1562 11.4346C26.1914 10.2158 25.0361 9.27637 23.6904 8.61621ZM27.8037 57.9307H23.1572V77.2783L13.7119 60.6348V69.3945L23.1572 86H27.8037V57.9307ZM7.50391 57.9307V86H12.1504V57.9307H7.50391ZM21.748 107.931H26.9658L18.625 124.574V136H13.9785V126.631L21.748 107.931ZM11.2744 107.931L15.502 118.861L13.4453 123.851L6.05664 107.931H11.2744ZM12.0361 157.931H6.81836L14.3975 172.365L7.27539 186H12.5693L16.6064 177.164V168.442L12.0361 157.931ZM20.377 172.365L27.9561 157.931H22.7383L18.168 167.681V176.364L22.2051 186H27.499L20.377 172.365Z" fill="black"/>
</svg>
