<svg fill="none" height="122" viewBox="0 0 661 122" width="661" xmlns="http://www.w3.org/2000/svg"><g fill="#000"><path d="m104.188 38.375c0 4.4167-.855 8.5833-2.563 12.5-1.6667 3.875-3.9583 7.2708-6.875 10.1875-2.875 2.875-6.25 5.1458-10.125 6.8125s-8.0208 2.5-12.4375 2.5h-51.4375v-12.625h51.4375c2.6667 0 5.1667-.5 7.5-1.5 2.3333-1.0417 4.3542-2.4375 6.0625-4.1875 1.75-1.75 3.125-3.7917 4.125-6.125 1-2.375 1.5-4.8958 1.5-7.5625s-.5-5.1667-1.5-7.5-2.375-4.3542-4.125-6.0625c-1.7083-1.75-3.7292-3.125-6.0625-4.125s-4.8333-1.5-7.5-1.5h-58.625v76.8125h-12.8125v-89.625h71.4375c4.4167 0 8.5625.85417 12.4375 2.5625 3.875 1.6667 7.25 3.9583 10.125 6.875 2.9167 2.875 5.2083 6.25 6.875 10.125 1.708 3.875 2.563 8.0208 2.563 12.4375z"/><path d="m186.5 38.375h-48c-1.333 0-2.583.2708-3.75.8125-1.167.5-2.188 1.1875-3.062 2.0625-.876.875-1.563 1.8958-2.063 3.0625s-.75 2.3958-.75 3.6875v48h-12.813v-48c0-3.125.584-6.0417 1.75-8.75 1.167-2.7083 2.771-5.0625 4.813-7.0625 2.042-2.0417 4.417-3.6458 7.125-4.8125s5.625-1.75 8.75-1.75h48z"/><path d="m281.062 60.8125c0 4.8333-.916 9.375-2.75 13.625-1.833 4.25-4.333 7.9792-7.5 11.1875-3.124 3.1667-6.812 5.6875-11.062 7.5625-4.25 1.8333-8.792 2.7708-13.625 2.8125h-19.687c-4.834-.0417-9.376-.9792-13.626-2.8125-4.25-1.875-7.958-4.3958-11.124-7.5625-3.126-3.2083-5.605-6.9375-7.438-11.1875s-2.75-8.7917-2.75-13.625.917-9.375 2.75-13.625c1.833-4.2917 4.312-8.0208 7.438-11.1875 3.166-3.2083 6.874-5.7292 11.124-7.5625 4.25-1.875 8.792-2.8125 13.626-2.8125h19.687c3.208 0 6.313.4167 9.313 1.25s5.791 2.0208 8.374 3.5625c2.584 1.5417 4.938 3.3958 7.063 5.5625 2.125 2.125 3.937 4.5 5.437 7.125 1.5 2.5833 2.667 5.375 3.5 8.375.834 3 1.25 6.1042 1.25 9.3125zm-12.75 0c0-3.0833-.583-5.9792-1.75-8.6875-1.166-2.7083-2.75-5.0625-4.75-7.0625-2-2.0417-4.354-3.6458-7.062-4.8125-2.667-1.2083-5.542-1.8333-8.625-1.875h-19.687c-3.084.0417-5.98.6667-8.688 1.875-2.667 1.1667-5 2.7708-7 4.8125-2 2-3.583 4.3542-4.75 7.0625-1.125 2.7083-1.688 5.6042-1.688 8.6875s.563 5.9792 1.688 8.6875c1.167 2.7083 2.75 5.0833 4.75 7.125 2 2 4.333 3.6042 7 4.8125 2.708 1.1667 5.604 1.75 8.688 1.75h19.687c3.083 0 5.958-.5833 8.625-1.75 2.708-1.2083 5.062-2.8125 7.062-4.8125 2-2.0417 3.584-4.4167 4.75-7.125 1.167-2.7083 1.75-5.6042 1.75-8.6875z"/><path d="m307.875 99.1875c0 3.1245-.583 6.0415-1.75 8.7505-1.167 2.708-2.771 5.083-4.813 7.124-2 2.042-4.354 3.646-7.062 4.813s-5.625 1.75-8.75 1.75h-59.062l19.687-8.95v-4.737l39.375.874c1.292 0 2.521-.25 3.688-.75 1.166-.5 2.187-1.187 3.062-2.062s1.562-1.896 2.062-3.062c.5-1.167.75-2.417.75-3.7505v-73.5625h12.813zm3.187-89.5625c0 1.3333-.25 2.5833-.75 3.75-.5 1.125-1.187 2.125-2.062 3-.833.875-1.833 1.5625-3 2.0625s-2.417.75-3.75.75-2.583-.25-3.75-.75-2.188-1.1875-3.062-2.0625c-.876-.875-1.563-1.875-2.063-3-.5-1.1667-.75-2.4167-.75-3.75 0-1.29167.25-2.52083.75-3.6875s1.187-2.1875 2.063-3.0625c.874-.875 1.895-1.5625 3.062-2.0625 1.167-.541667 2.417-.8125 3.75-.8125s2.583.270833 3.75.8125c1.167.5 2.167 1.1875 3 2.0625.875.875 1.562 1.89583 2.062 3.0625s.75 2.39583.75 3.6875z"/><path d="m408.25 48c0 3.125-.583 6.0417-1.75 8.75s-2.771 5.0833-4.812 7.125c-2 2-4.376 3.5833-7.126 4.75-2.708 1.1667-5.604 1.75-8.687 1.75h-49.063c.917 1.875 2.063 3.6042 3.438 5.1875s2.917 2.9375 4.625 4.0625 3.563 2 5.563 2.625c2.041.625 4.166.9375 6.374.9375h41.876v12.8125h-41.876c-4.833-.0417-9.374-.9792-13.624-2.8125-4.25-1.875-7.959-4.3958-11.126-7.5625-3.124-3.2083-5.604-6.9375-7.437-11.1875s-2.75-8.7917-2.75-13.625.917-9.375 2.75-13.625 4.313-7.9583 7.437-11.125c3.167-3.2083 6.876-5.7292 11.126-7.5625 4.25-1.875 8.791-2.8333 13.624-2.875h29.063c3.083 0 5.979.5833 8.687 1.75 2.75 1.1667 5.126 2.7708 7.126 4.8125 2.041 2 3.645 4.3542 4.812 7.0625s1.75 5.625 1.75 8.75zm-22.375 9.625c1.292 0 2.521-.25 3.687-.75 1.167-.5 2.188-1.1875 3.063-2.0625s1.563-1.8958 2.063-3.0625.75-2.4167.75-3.75c0-1.2917-.25-2.5208-.75-3.6875s-1.188-2.1875-2.063-3.0625-1.896-1.5625-3.063-2.0625c-1.166-.5417-2.395-.8125-3.687-.8125h-29.063c-2.833 0-5.5.5-8 1.5-2.458 1-4.666 2.375-6.624 4.125-1.917 1.7083-3.521 3.75-4.813 6.125-1.25 2.3333-2.063 4.8333-2.437 7.5z"/><path d="m493.188 96h-41.876c-4.833-.0417-9.374-.9792-13.624-2.8125-4.25-1.875-7.959-4.3958-11.126-7.5625-3.124-3.2083-5.604-6.9375-7.437-11.1875s-2.75-8.7917-2.75-13.625.917-9.375 2.75-13.625c1.833-4.2917 4.313-8.0208 7.437-11.1875 3.167-3.2083 6.876-5.7292 11.126-7.5625 4.25-1.875 8.791-2.8125 13.624-2.8125h41.876v12.75h-41.876c-3.083.0417-5.979.6667-8.687 1.875-2.667 1.1667-5 2.7708-7 4.8125-2 2-3.583 4.3542-4.75 7.0625-1.125 2.7083-1.687 5.6042-1.687 8.6875s.562 5.9792 1.687 8.6875c1.167 2.7083 2.75 5.0833 4.75 7.125 2 2 4.333 3.6042 7 4.8125 2.708 1.1667 5.604 1.75 8.687 1.75h41.876z"/><path d="m531.938 96h-12.813v-57.625h-19.187v-12.75h19.187v-25.625h12.813v25.625h44.812v12.75h-44.812z"/><path d="m660.312 73.625c0 3.0833-.583 6-1.75 8.75-1.166 2.7083-2.77 5.0833-4.812 7.125-2 2-4.375 3.5833-7.125 4.75-2.708 1.1667-5.604 1.75-8.687 1.75h-54.438v-12.8125h54.438c1.291 0 2.52-.25 3.687-.75s2.187-1.1875 3.063-2.0625c.874-.875 1.562-1.875 2.062-3 .5-1.1667.75-2.4167.75-3.75 0-1.2917-.25-2.5208-.75-3.6875s-1.188-2.1875-2.062-3.0625c-.876-.875-1.896-1.5625-3.063-2.0625-1.167-.5417-2.396-.8125-3.687-.8125h-35.25c-2.667 0-5.167-.5-7.5-1.5-2.334-1-4.376-2.3542-6.126-4.0625-1.708-1.75-3.062-3.7917-4.062-6.125s-1.5-4.8333-1.5-7.5.5-5.1667 1.5-7.5 2.354-4.3542 4.062-6.0625c1.75-1.75 3.792-3.125 6.126-4.125 2.333-1 4.833-1.5 7.5-1.5h51.25v12.75h-51.25c-1.792 0-3.313.625-4.563 1.875-1.208 1.2083-1.813 2.7292-1.813 4.5625 0 1.7917.605 3.3125 1.813 4.5625 1.25 1.2083 2.771 1.8125 4.563 1.8125h35.25c3.083 0 5.979.5833 8.687 1.75 2.75 1.1667 5.125 2.7708 7.125 4.8125 2.042 2.0417 3.646 4.4167 4.812 7.125 1.167 2.7083 1.75 5.625 1.75 8.75z"/><path d="m246.125 96h-19.687c10.895 10.684 10.608 16.277 0 25.625l19.687-8.95z"/></g></svg>