<svg fill="none" height="181" viewBox="0 0 769 181" width="769" xmlns="http://www.w3.org/2000/svg" xmlns:xlink="http://www.w3.org/1999/xlink"><mask id="a" fill="#000" height="181" maskUnits="userSpaceOnUse" width="769" x="0" y="0"><path d="m0 0h769v181h-769z" fill="#fff"/><path d="m218.634 1.56515c-2.365.43059-14.408.75353-26.774.75353-20.322-.10765-23.226.10764-27.634 2.04529-2.688 1.07647-5.269 2.58353-5.592 3.22941-1.29 2.0453-2.903 1.29177-2.58-1.29176.43-3.01412-2.366-3.33706-20.43-2.36824l-13.226.75353.645 24.22059.538 24.3282-2.689 3.5524c-2.688 3.5523-3.01 3.66-10.86 3.66-7.097 0-8.387-.323-10.6449-2.6912l-2.6882-2.5835v-24.2206c0-19.3765-.3226-24.43589-1.5053-25.72765-1.9355-1.93765-16.5592-1.29177-18.8173.86117-1.2903 1.29177-1.9354 1.29177-4.5161 0-3.4408-1.83-3.2258-1.83-29.4623-1.29176-22.6882.53823-27.4194 1.50706-33.11833 6.56644-4.30108 3.8753-8.27957 12.0565-8.27957 17.1159 0 6.3512 4.51613 16.9006 8.49462 20.0224l3.65588 2.7988h24.5162c22.4731 0 24.5161.1076 26.6666 2.0453 1.2904 1.1841 2.2581 3.337 2.2581 5.0594 0 4.4135-5.2688 6.3512-18.8172 6.8894-15.8065.5382-23.6559-1.83-24.4086-7.4276-.3226-2.0453-1.0753-2.2606-10.3226-2.5836-7.84945-.2153-9.99999 0-10.53762 1.2918-1.07527 2.6912 1.6129 9.9035 5.37634 14.64 6.23658 7.8582 12.68818 9.9035 32.79568 10.1188l10.3226.1077.1075 3.7676c.1076 2.0453.5377 23.5751.8602 47.9031.5377 34.016.9678 44.458 2.0431 45.535 1.0752 1.076 3.4408 1.184 10 .538l8.4946-.861.6451-29.496 3.7635 2.261c3.6559 2.153 4.9462 2.261 25.054 1.722 11.72-.323 22.15-1.076 23.333-1.722 1.505-.754 4.194-.538 10.108.969 6.774 1.614 9.57 1.83 18.709.969 7.097-.754 11.828-1.723 14.194-3.122l3.548-2.153.645 3.229c.43 1.723 1.291 3.122 1.936 3.23 3.333.323 19.14-.216 24.193-.754 5.054-.646 5.592-.969 5.592-3.229 0-3.122.43-3.23 4.301-.431 5.591 3.983 17.097 5.598 34.193 4.737 12.904-.646 15.807-1.077 18.065-2.799 2.581-2.046 2.903-2.046 9.892-.431 6.237 1.615 9.14 1.615 22.258.646 19.678-1.615 37.312-1.615 40.216-.108 2.58 1.4 45.698 1.292 48.494-.107.86-.431 3.441-1.615 5.699-2.584 8.71-3.875 14.086-17.439 9.247-23.574-.43-.646-5.053-1.077-10.322-.969h-9.463l-1.827 3.875c-1.076 2.153-2.689 4.198-3.764 4.521s-7.634.646-14.516.861c-11.72.323-12.796.108-14.946-2.045-2.688-2.583-3.549-8.289-3.441-21.529.215-14.6403 3.333-17.0086 22.58-16.7933 13.656.1077 16.022 1.7224 16.667 11.0873l.323 3.768 7.097.323c3.87.215 8.279-.215 9.784-.754 2.796-1.076 2.796-1.184 2.259-10.0107-.323-6.0283-1.183-9.7959-2.366-11.6259-2.581-3.66-12.903-7.643-22.258-8.5041-8.065-.7536-34.086.2153-42.043 1.507l-4.624.8612v-3.4447c0-4.1982-1.398-4.8441-11.398-4.8441-11.828-.1077-11.613-.8612-10.645 23.2517.43 11.1956.86 21.0986.968 22.1756.107 1.184-.86 1.937-2.581 2.153-3.548.538-5.376 3.014-5.376 7.75 0 5.167-1.613 6.459-8.172 6.459-10 0-9.893.538-10.323-30.895l-.43-27.1267 6.667.6459c3.656.323 7.957.3229 9.57-.1076l2.903-.7536-.753-22.9288c-.86-25.5123-.215-28.9571 5.699-30.4641 8.817-2.2606 16.344.5382 18.28 6.997l1.29 4.1983 10.43.1076c5.807.1077 11.075-.2153 11.721-.6459.86-.5382 1.075-3.8752.537-11.5182-1.183-17.00822-2.903-18.40764-22.688-19.16116-13.656-.53824-20.86.86117-24.301 4.73647l-2.043 2.26058-.538-3.55235-.537-3.66-11.291-.21529c-34.623-.753532-60.43-.753532-64.086 0zm53.011 4.41353c.968.86117 2.473 14.42472 2.473 21.85232 0 5.0594-.43 8.0736-1.29 8.6118-.753.4306-11.505.9688-23.979 1.0765-25.591.3229-25.268.2153-25.268 8.9347 0 9.6882 5.053 12.9176 21.505 13.8864l11.29.6459.753 5.3824c.43 2.9064.538 5.5976.215 5.9206-.753.7535-30.968.2153-36.236-.6459-3.656-.6459-4.086-.9688-3.441-3.0141 3.763-11.6259 3.871-13.3483 3.441-31.8636-.431-19.3764-1.398-24.5435-5.377-27.88055-1.075-.75353-1.828-2.0453-1.828-2.90647 0-1.18412 5.269-1.29177 28.71-.96883 15.699.32294 28.817.75353 29.032.96883zm18.925.32294c.43.21529.753 1.93764.753 3.66 0 4.84408 2.688 5.05938 7.311.75348 6.99-6.67407 9.14-6.99701 29.785-4.62878 10.43 1.18412 12.366 3.76765 12.366 16.14708v6.997h-14.839l-2.043-4.0905c-2.58-5.2748-7.634-7.7506-15.806-7.7506-7.527 0-13.226 2.9064-14.194 7.32-.322 1.6147-.86 3.66-1.183 4.5211-.215.8612-.43 11.4106-.43 23.3595l.215 21.8523h-4.623c-2.581 0-5.699-.3229-6.99-.6459l-2.473-.6459 2.581-3.1217c2.688-3.2294 4.409-11.4106 3.656-17.6541-.323-2.9065-.753-3.2295-4.086-3.2295-3.656-.1076-3.764-.2152-4.086-4.6288-.323-4.3059-.215-4.6288 3.011-5.167 5.053-1.0765 6.451-3.983 6.451-13.3483 0-6.8894-.537-8.9347-3.226-13.8864-1.828-3.22945-3.225-6.24357-3.225-6.88945 0-.96883 9.139-.10765 11.075 1.07647zm-155.807 10.22648c.538 7.7506 1.076 54.0388.753 60.8206-.107.8612-1.72 1.3994-4.408 1.3994-3.979 0-4.302-.2153-4.302-3.0141 0-1.6147-.322-4.0906-.752-5.3824-.645-2.4759-.753-2.4759-4.516 1.83-3.764 4.3059-4.194 4.5212-12.796 5.49-4.946.5383-10.5377.7536-12.3657.4306-6.2365-.9688-12.6881-2.9065-12.258-3.5523 2.9032-5.3824 5.0537-11.8412 5.0537-15.1783 0-7.7506-2.3655-15.1782-6.2365-19.1612-3.2258-3.4447-3.5484-4.4135-3.2258-9.2576.3226-5.3824.4301-5.49 3.8709-5.5977 1.9355-.1076 3.7635-.4305 4.1936-.7535 1.0753-1.1841-2.9032-8.9347-6.2366-12.1641-1.6129-1.6147-2.7957-3.33706-2.4731-3.87529.3226-.43059 3.6559-.86118 7.5269-.86118h6.8817l.1076 9.36527c0 5.2747.1075 15.2859 0 22.3906 0 15.3935.9677 19.0535 5.6989 22.0677 4.4084 2.5835 14.9464 2.9064 20.6454.5382 6.236-2.5835 6.774-5.2747 6.129-31.3253-.645-25.08176-.968-23.57471 5.699-24.00529 2.043-.10765 2.365.64588 3.01 9.79589zm18.388 2.4759 2.15-2.2606c1.183-1.2918 3.226-3.5524 4.624-5.0594 3.01-3.44474 15.054-5.27474 31.613-4.7365 14.193.43059 16.236 1.61471 14.623 8.6118-.537 2.5835-.752 13.3482-.322 25.5123.43 14.7477.322 20.5606-.43 19.3765-.646-.8612-1.183-3.3371-1.183-5.49 0-2.3683-.645-4.1983-1.398-4.5212-1.183-.4306-1.29-1.9376-.538-7.4276.968-6.8894.323-16.0394-1.398-19.3765-.537-.9688-2.688-2.7988-4.838-4.1982-3.334-2.0453-5.162-2.3683-14.301-2.153-23.441.323-26.99 3.1218-26.99 21.3141 0 19.3765 1.291 20.9912 16.667 21.8524l9.678.5382v12.9177l-5.699-.1077c-6.882-.2153-11.506-2.0453-16.129-6.2435-1.936-1.83-3.979-3.3371-4.624-3.3371-.753 0-1.075 5.813-1.075 17.4389l.215 17.5464h-4.947c-4.516 0-4.838-.2153-5.053-3.0141-.645-9.3653-.43-15.3935.322-15.9318.538-.3229.968-17.0082.968-37.1382v-36.49234h7.419zm-88.4951-9.90356c5.0538.10765 9.6774.64588 10.1075 1.07646.5377.4306.8603 3.3371.9678 6.4588 0 5.5977 0 5.5977-3.2258 5.49-1.828-.1076-5.1613-1.3994-7.4194-3.0141-3.9785-2.6912-4.9462-2.7988-17.3118-2.7988-15.1613 0-22.9032 1.83-26.2366 6.1359-2.4731 3.1217-3.0107 9.15-.8602 10.8723.7527.6459 11.1828 1.3994 23.871 1.83 16.0215.4306 23.871 1.1841 27.2043 2.2606l4.5161 1.7224.2151 9.2576c.1075 5.1671.215 13.133.4301 17.6541.215 8.0736.1075 8.2889-2.7957 9.473-4.1936 1.7223-48.4946 1.83-54.6237.1076-3.4408-.9688-5.5914-2.5835-8.8172-6.6741-2.36557-3.0141-4.30106-6.6741-4.30106-8.0735 0-2.4759.32259-2.5836 6.98926-2.5836 6.5591 0 6.9892.1077 7.6344 2.6912 1.1828 4.9518 7.7419 7.32 20.2151 7.2124 15.9139-.1077 21.8279-1.0765 25.4838-4.3059 2.7957-2.2606 3.2258-3.3371 2.9032-7.1047-.3225-3.7677-.8602-4.6288-4.4085-6.6741-2.5807-1.3994-6.2366-2.3683-10.1076-2.4759-3.3333-.1077-6.3441-.323-6.6666-.6459-.4302-.2153-7.5269.1076-15.914.7535-17.742 1.3994-20.7527.6459-23.87099-5.49-3.11828-6.1358-4.51613-14.2094-3.22581-18.8382s6.6667-11.0876 10.5376-12.81c2.7957-1.07647 31.3979-2.79882 36.6667-2.04529 1.5054.10764 6.8817.43058 12.043.53823zm77.6341 3.55236c.323 2.7988.645 18.1923.645 34.3394 0 24.7588-.215 29.4953-1.612 30.6794-1.398 1.1841-1.613.7535-1.613-2.7988 0-2.3682-.108-18.4077-.323-35.7388-.107-22.4983.108-31.43297.968-31.43297.645 0 1.505 2.26059 1.935 4.95177zm138.495 2.1529c2.15 6.1359 2.473 17.7618.645 19.5918-.753.7535-2.15 1.2918-3.226 1.2918-1.72 0-1.935-1.1842-1.935-13.5636 0-14.96291 1.183-17.0082 4.516-7.32zm-67.527-.9688c4.194 8.3965 5.807 41.0135 2.258 49.5177-2.043 5.2747-3.118 5.7053-5.054 2.1529-1.075-1.7224-1.397-8.8271-1.397-26.5888 0-27.6653.645-31.75591 4.193-25.0818zm-130.215 4.4135c1.828 3.1218 1.828 3.4447.2151 4.0906-2.2581.8612-3.3334-.3229-4.1936-4.7364-.7527-4.5212 1.1828-4.1983 3.9785.6458zm-24.7312 1.2918c1.7205 0 3.871 1.0765 5.2688 2.6912 1.828 2.1529 3.3334 2.6912 7.5269 2.6912h5.1613v5.49c0 4.8441-.215 5.3823-1.8279 4.7364-4.9463-2.0453-10.7527-2.6911-26.6667-2.7988-19.6774-.2153-23.4409-.7535-23.9785-3.4447-.4301-2.1529 2.2581-5.5976 5.6989-7.5353 2.5807-1.3994 16.6667-2.7988 22.043-2.2606 2.043.2153 5.0538.4306 6.7742.4306zm137.8492 3.2294c1.076.8612 2.258 2.7988 2.904 4.3059 1.182 3.2294 1.29 20.4529 0 21.7447-.431.4306-4.624 1.1841-9.14 1.5071l-8.28.7535v7.2123h-7.527c-10.645 0-14.516-1.83-15.376-7.1047-1.075-6.4588-.86-16.147.43-21.4217.968-3.983 1.828-4.9518 5.376-6.3512 2.258-.9688 6.129-1.6147 8.495-1.5071 2.366.1077 4.516-.1076 4.839-.4305 1.29-1.1842 16.559-.1077 18.279 1.2917zm77.742 20.8835c.538 4.4136-1.183 5.49-9.247 5.49h-7.204l-1.076 8.6118-10.215-.3229c-13.441-.5383-17.204-2.2606-19.032-8.8271-.968-3.2294-1.075-5.0594-.215-5.9206s40.108-2.6912 45.591-2.1529c.646.1076 1.183 1.507 1.398 3.1217zm-190.86 1.7224c1.0753 1.7224 2.1505 6.2435 2.5807 10.0112.5376 5.7053.215 7.5353-1.828 11.4106-1.7204 3.5523-2.5806 4.4135-3.3333 3.2294-1.1828-1.83-1.2904-27.8806-.1076-27.8806.4302 0 1.7205 1.3994 2.6882 3.2294zm179.785 8.6118c0 .8611-.86 1.7223-1.828 1.9376-1.398.2153-1.935-.3229-1.935-1.9376s.537-2.153 1.935-1.9377c.968.2153 1.828 1.0765 1.828 1.9377zm10.645 5.7053c1.29 9.7958.215 12.1641-6.236 13.1329-2.581.4306-5.269.4306-5.914 0-.646-.3229-1.183-3.2294-1.183-6.3512 0-4.4135.537-6.1359 2.258-7.7506 1.29-1.0764 2.688-3.1217 3.226-4.5211.752-1.9377 1.613-2.4759 3.978-2.153 2.688.323 3.011.7535 3.871 7.643zm8.172-3.0142c0 4.6289-1.72 10.2265-3.226 10.2265-1.075 0-2.15-5.7053-2.15-10.8723 0-3.7677.322-4.1983 2.688-4.1983 2.473 0 2.688.4306 2.688 4.8441zm-83.871-1.6147c0 3.5524-13.118 4.3059-13.763.7536-.323-1.6147.537-1.83 6.666-1.83 3.871 0 7.097.4305 7.097 1.0764zm4.194 13.133c.107 4.9517 0 5.0594-3.334 5.3823-1.935.2153-5.806.1077-8.602 0l-5.161-.4306v-6.3511c0-5.813.215-6.3512 2.473-6.4589 5.807-.1076 8.817-.9688 10.86-3.1217l2.258-2.2606.753 4.0906c.43 2.2606.753 6.3512.753 9.15zm5.914.4306c1.075 2.6911.752 3.66-.968 3.66-.968 0-1.613-.9689-1.613-2.6912 0-3.0141 1.613-3.66 2.581-.9688zm-46.882 4.9517c2.151 2.0453 3.978 2.5836 11.613 2.9065 9.892.3229 11.72 1.6147 4.193 2.6912-2.58.4306-5.053 1.1841-5.268 1.6147-.323.4306-.538 8.2888-.538 17.4388 0 23.1438 0 23.4668-1.29 29.7108-.753 4.09-1.721 5.813-3.226 6.243-2.903.969-12.903.969-15.699.108-3.871-1.184-5.484-6.674-5.914-18.946l-.323-11.303 5.377-.323c3.01-.215 5.806-.753 6.451-1.399.538-.538.861-7.4278.646-16.0396-.108-8.2888.107-15.0706.537-15.0706s1.936 1.0765 3.441 2.3682zm79.247 3.2294c13.656.323 16.129.5383 16.452 2.0453.215 1.3994-.86 1.6147-7.527 1.2918-4.301-.1076-9.355-.5382-11.183-.7535-6.021-.8612-26.344 1.2917-28.924 3.0141-2.904 1.9376-3.764 1.2918-3.764-2.7988 0-2.153.538-3.0141 1.936-3.0141 1.075 0 2.903-.6459 3.978-1.5071 1.613-1.1841 2.903-1.1841 7.419 0 3.011.7535 12.689 1.5071 21.613 1.7223zm34.301 2.3683c.431 2.0453.753 15.3935.753 29.7103l.108 25.943 2.688 1.077c3.441 1.291 14.946 1.291 17.527-.108 1.075-.538 2.795-3.445 3.871-6.459 1.075-2.906 2.58-5.382 3.333-5.382 1.398 0 1.505 1.184 1.828 16.147l.107 6.997-9.139.861c-10.108.969-26.775.215-28.172-1.184-.43-.431-.108-3.229.86-6.028 1.505-4.414 1.72-8.504 1.29-25.835-.645-22.714-1.398-26.1587-7.204-31.1105-6.022-4.9518-3.333-7.6429 8.064-8.1812 3.119-.1076 3.441.2153 4.086 3.5524zm47.205-.7536c.322 1.6148-.108 4.1983-.861 5.813-1.827 3.5523-3.763 22.0679-3.118 30.1409l.538 6.029-4.946.107c-3.119.215-5.054-.215-5.269-1.076-.323-.754-.753-10.657-1.075-22.068l-.646-20.6682 2.904-.4306c1.72-.2153 5.053-.5382 7.419-.6459 4.086-.1076 4.516.1077 5.054 2.7988zm-239.6777-1.1841c2.043.7536 2.258 2.5836.3226 2.5836-.7527 0-3.1183 1.1841-5.3764 2.6911-3.871 2.6912-3.9785 2.6912-3.9785.5383 0-1.2918 1.3979-3.0141 3.5484-4.3059 3.9785-2.4759 3.3333-2.3682 5.4839-1.5071zm119.9997 6.9971c0 4.0906.43 7.4276.968 7.4276s2.366-1.1841 4.086-2.5835c3.226-2.6912 6.667-4.0906 11.075-4.4135 1.506-.2153 7.312-.8612 12.904-1.6147 8.064-.9689 11.827-.9689 17.957 0l7.741 1.3994.108 26.8036c0 14.856.538 29.173 1.183 31.864 1.183 5.382.43 6.566-4.409 6.782-35.161 1.184-38.71.753-45.269-5.167-4.731-4.306-6.021-3.983-6.559 1.83-.322 3.337-.752 3.767-3.656 4.09l-3.333.323-.645-7.32c-.43-3.983-.753-19.807-.753-34.985 0-26.2659-.107-27.773-2.043-28.8494-1.183-.5383-3.118-1.0765-4.408-1.0765-1.291 0-2.044-.3229-1.721-.8612.215-.4306 4.086-.8612 8.602-.9688l8.172-.2153zm-133.118.1076c.1075 1.9377.215 4.5212.3226 5.7053.1075 2.5836 3.7634 2.3683 5.2688-.3229.5376-1.0765 2.3656-3.1218 3.9785-4.8441l2.9032-2.9065h19.9999c10.968 0 20.323.1076 20.753.2153.322.2153.537 9.0423.43 19.6992-.108 10.657.322 24.006 1.075 29.603 2.043 17.331 3.118 15.286-9.247 17.008-8.602 1.184-13.011 1.292-22.2582.323-6.3441-.646-12.2581-1.507-13.1183-1.83s-2.7957-2.476-4.4086-4.844c-4.7312-7.212-5.3763-5.49-5.3763 14.21v17.654l-5.5914.323-5.699.323v-4.091c-.1075-2.261-.5376-6.244-1.1827-8.935-.9678-4.844-3.2259-78.3667-2.3656-79.9814.215-.4306 3.5483-.7536 7.4193-.7536h6.8817zm66.882-.6458c.967 2.6911.752 9.0423-.43 9.0423-.538 0-1.291-1.7223-1.721-3.7676-.322-2.0453-1.075-4.0906-1.613-4.4136-.537-.3229-.752-1.0764-.43-1.6147 1.075-1.507 3.441-1.1841 4.194.7536zm46.559 9.5805c.107 5.9206.43 17.2236.753 25.0816.322 7.858.215 18.3-.108 23.252-.645 8.719-.753 9.042-3.441 9.581-3.548.753-4.731-.431-4.623-4.522.107-4.521-1.398-5.059-5.269-1.83-1.721 1.507-5.269 3.337-7.742 3.983-4.731 1.292-27.957.969-29.355-.323-.43-.43.322-3.229 1.613-6.136 2.58-6.135 3.441-17.331 2.043-27.449-1.183-8.505-.538-11.411 2.796-11.411 2.473 0 2.58.215 3.118 12.056.215 6.675 1.075 13.672 1.72 15.502 1.828 4.844 6.237 6.889 14.839 6.997 8.71.107 12.903-1.292 14.193-4.629.538-1.4 1.076-13.133 1.076-26.158.215-25.0822.322-25.6204 5.484-25.0822 2.688.3229 2.688.4306 2.903 11.0876zm8.279-8.3964c.753 4.4135.753 51.455 0 59.313-.43 4.199-1.182 6.675-2.043 6.675-.967 0-1.505-6.136-2.043-24.006-.322-13.133-.967-28.6338-1.29-34.4467l-.645-10.4418h2.688c2.151 0 2.903.6459 3.333 2.9065zm192.151-1.7224c3.226.7536 6.667 2.2606 8.172 3.7677 2.258 2.3682 2.581 3.337 2.258 10.3341l-.323 7.8586h-5.913c-5.484 0-5.914-.216-6.237-2.692-.753-6.6737-1.398-7.6425-6.452-9.9031-4.408-2.0453-6.344-2.1529-17.742-1.6147-18.924.9688-21.182 3.3371-21.182 21.8528 0 12.487 1.505 17.977 5.699 21.529 3.118 2.583 3.763 2.691 15.698 2.476 14.517-.323 17.85-1.184 20-5.275 1.291-2.476 2.366-3.014 7.527-3.552 8.28-.861 9.14-.323 9.14 5.167 0 8.289-1.613 10.98-8.172 13.348-5.161 1.938-8.495 2.261-29.57 2.368-21.72 0-24.086-.107-25.806-1.937-1.721-1.615-2.043-4.414-2.473-18.623-.323-9.15-.861-22.821-1.291-30.3567l-.752-13.7789 2.58-.9688c3.656-1.507 48.065-1.3994 54.839 0zm-251.183 9.5806c1.075 3.0141 1.613 10.0108 1.721 22.9288.215 15.716 0 19.269-1.721 23.144-1.183 2.799-2.258 4.306-2.903 3.66-.538-.538-1.398-5.275-1.936-10.549-1.182-10.98-1.397-45.9656-.322-47.042.968-.9689 3.333 2.5835 5.161 7.8582zm130.968-3.7676c2.903 3.9829 3.978 12.1644 4.301 31.7554.215 14.963-.108 18.3-1.613 20.992l-1.72 3.229-1.291-3.229c-.645-1.83-1.505-6.675-1.72-10.765-.753-13.241-1.183-44.6736-.538-44.6736.323 0 1.506 1.2918 2.581 2.6912zm61.075 17.9774c.323 16.039 0 31.325-.753 31.971-1.505 1.614-2.043-3.553-2.043-21.745 0-18.5152.538-24.4358 2.043-24.4358.216 0 .646 6.4588.753 14.2098zm-8.172 19.161c.86 2.691-.215 10.011-2.258 14.747-1.505 3.768-4.086 4.629-5.161 1.83-.86-2.26-.86-17.115.107-17.977.323-.43 2.043-.753 3.656-.753 2.043 0 3.226.646 3.656 2.153zm5.592 16.362c1.29 1.83 2.15 3.768 1.827 4.306-.645.969-7.311 1.184-8.279.215-.645-.753 2.473-7.966 3.441-7.966.322 0 1.72 1.615 3.011 3.445z" fill="#000"/><path d="m235.409 15.344c-5.484.8611-7.635 2.3682-10.323 7.4276-3.656 6.7818-2.473 8.0735 7.742 8.9347 10.538.9688 26.021.9688 30.43.1077 3.011-.6459 3.333-1.0765 3.333-4.6289-.107-9.3652-5.591-13.0252-18.817-12.7023-4.731.1076-10.322.5382-12.365.8612zm26.451 5.5976c2.796 3.3371 3.334 6.6741 1.291 7.4277-.753.3229-9.033.6458-18.28.7535l-16.989.2153v-3.1218c0-6.3512 5.376-8.3964 22.365-8.2888 8.495 0 9.14.2153 11.613 3.0141z" fill="#000"/><path d="m213.366 95.1105c-3.549.5382-7.312 1.8299-8.28 2.7988-3.763 3.6597-5.591 26.6967-2.688 32.5097.753 1.507 3.548 3.875 6.129 5.382 4.408 2.476 5.914 2.691 16.452 2.584 6.344-.108 13.655-.754 16.344-1.507 8.172-2.261 10.645-10.55 8.064-27.881-1.075-7.643-2.903-10.2266-9.14-13.133-4.838-2.2606-15.699-2.4759-26.881-.7535zm26.451 3.5523c4.731 2.4762 6.344 6.7822 6.882 18.4072.43 11.519-.538 14.856-4.731 16.47-5.484 2.153-19.678 3.122-26.344 1.723-10.215-2.153-11.183-4.306-10.43-24.759.215-5.49.86-9.15 1.828-10.119 2.903-3.1216 27.634-4.3057 32.795-1.7222z" fill="#000"/><path d="m78.4194 96.1869c-6.8818 2.9065-7.5269 3.5524-8.7097 7.7511-1.0753 3.982-.9678 9.042.7527 22.713.215 2.368 1.3978 5.49 2.4731 6.997 2.6882 3.768 12.4731 5.382 24.6236 4.091 13.8709-1.507 17.3119-2.584 18.7099-6.029 1.828-4.628 1.398-26.265-.645-30.141-3.119-6.028-5.054-6.6738-20.538-6.5662-7.6344 0-15.1613.5382-16.6666 1.1841zm28.2796 2.5835c5.484.9689 6.989 4.0906 7.849 16.6856.538 7.858.323 10.98-.967 13.994l-1.613 3.875-12.6884.754c-12.6882.753-20.9678-.108-23.3334-2.476-1.3978-1.4-2.6881-10.765-2.7957-20.13-.1075-9.796 1.6129-11.5184 12.4732-12.3796 12.9032-.9688 16.6663-.9688 21.0753-.323z" fill="#000"/><path d="m302.72 48.4993c-.967 1.507-.43 13.3482.538 14.64 1.075 1.507 20.968 1.3994 22.258 0 .645-.6459.753-4.0906.323-8.0736l-.645-6.997-10.968-.323c-6.237-.1076-11.183.1077-11.506.7536zm19.678 2.9064c.322.323.645 2.4759.645 4.7365.108 4.7365-.968 5.3823-9.355 5.3823-7.527 0-8.387-.6458-8.387-5.9205 0-2.6912.538-4.9518 1.398-5.2747 1.505-.6459 14.946.2153 15.699 1.0764z" fill="#000"/><path d="m457.758 58.9844h25.664l1.601 1.6015-4.57 3.5938h-21.562l-3.047-4.1016zm-2.735 1.6406 3.282 4.1016-3.282 19.1406-2.539 1.9531-2.382-2.7734 3.554-21.3281zm22.774 23.5156 2.344 2.5782-3.086 2.8515h-10.782l.743-5.4297zm-22.227 5.4297-2.734-2.9687 3.281-2.461h10.274l-.782 5.4297zm24.844-1.9141 2.461 2.7344-3.555 21.4064-1.64 1.015-3.203-3.867 3.242-18.8669zm-28.008 21.8358 21.367.039 3.086 4.102-2.187 1.367h-25.391l-1.367-1.641z" fill="#000"/><path d="m504.789 58.9844h25.664l1.602 1.6015-4.571 3.5938h-21.562l-3.047-4.1016zm-2.734 1.6406 3.281 4.1016-3.281 19.1406-2.539 1.9531-2.383-2.7734 3.555-21.3281zm30.586.5469 1.367 1.6406-3.281 20.7813-3.008 2.4609-2.188-2.4609 2.657-18.9454zm-7.813 22.9687 2.344 2.5782-3.086 2.8515h-10.781l.742-5.4297zm-22.226 5.4297-2.735-2.9687 3.281-2.461h10.274l-.781 5.4297zm-3.282-2.1875 2.188 2.7344-2.852 18.8278-4.531 3.594-1.094-1.641 3.555-21.6011z" fill="#000"/><path d="m567.758 109.531 3.086 4.102-2.188 1.367h-12.5l.977-5.469zm-24.492 5.469-1.368-1.641 4.493-3.867 10.273.039-.976 5.469z" fill="#000"/><path d="m598.695 58.9844h25.664l1.602 1.6015-4.57 3.5938h-21.563l-3.047-4.1016zm-2.734 1.6406 3.281 4.1016-3.281 19.1406-2.539 1.9531-2.383-2.7734 3.555-21.3281zm22.773 23.5156 2.344 2.5782-3.086 2.8515h-10.781l.742-5.4297zm-22.226 5.4297-2.735-2.9687 3.282-2.461h10.273l-.781 5.4297zm24.844-1.9141 2.46 2.7344-3.554 21.4064-1.641 1.015-3.203-3.867 3.242-18.8669zm-28.008 21.8358 21.367.039 3.086 4.102-2.188 1.367h-25.39l-1.367-1.641z" fill="#000"/><path d="m645.727 58.9844h25.664l1.601 1.6015-4.57 3.5938h-21.563l-3.047-4.1016zm-5.352 50.5076 21.367.039 3.086 4.102-2.187 1.367h-25.391l-1.367-1.641zm11.602-25.742h5.117l3.164-19.0234h-5.196zm-.508 6.25h5l-3.008 19.023h-5.195z" fill="#000"/><path d="m692.68 58.9844h25.664l1.601 1.6015-4.57 3.5938h-21.563l-3.046-4.1016zm6.25 24.7656h5.117l3.164-19.0234h-5.195zm-.508 6.25h5l-3.008 19.023h-5.195z" fill="#000"/><path d="m739.633 58.9844h25.664l1.601 1.6015-4.57 3.5938h-21.562l-3.047-4.1016zm-2.735 1.6406 3.282 4.1016-3.282 19.1406-2.539 1.9531-2.382-2.7734 3.554-21.3281zm22.774 23.5156 2.344 2.5782-3.086 2.8515h-10.782l.743-5.4297zm-22.227 5.4297-2.734-2.9687 3.281-2.461h10.274l-.782 5.4297zm-3.281-2.1875 2.188 2.7344-2.852 18.8278-4.531 3.594-1.094-1.641 3.555-21.6011zm.117 22.1092 21.367.039 3.086 4.102-2.187 1.367h-25.391l-1.367-1.641z" fill="#000"/></mask><g fill="#000"><path d="m218.634 1.56515c-2.365.43059-14.408.75353-26.774.75353-20.322-.10765-23.226.10764-27.634 2.04529-2.688 1.07647-5.269 2.58353-5.592 3.22941-1.29 2.0453-2.903 1.29177-2.58-1.29176.43-3.01412-2.366-3.33706-20.43-2.36824l-13.226.75353.645 24.22059.538 24.3282-2.689 3.5524c-2.688 3.5523-3.01 3.66-10.86 3.66-7.097 0-8.387-.323-10.6449-2.6912l-2.6882-2.5835v-24.2206c0-19.3765-.3226-24.43589-1.5053-25.72765-1.9355-1.93765-16.5592-1.29177-18.8173.86117-1.2903 1.29177-1.9354 1.29177-4.5161 0-3.4408-1.83-3.2258-1.83-29.4623-1.29176-22.6882.53823-27.4194 1.50706-33.11833 6.56644-4.30108 3.8753-8.27957 12.0565-8.27957 17.1159 0 6.3512 4.51613 16.9006 8.49462 20.0224l3.65588 2.7988h24.5162c22.4731 0 24.5161.1076 26.6666 2.0453 1.2904 1.1841 2.2581 3.337 2.2581 5.0594 0 4.4135-5.2688 6.3512-18.8172 6.8894-15.8065.5382-23.6559-1.83-24.4086-7.4276-.3226-2.0453-1.0753-2.2606-10.3226-2.5836-7.84945-.2153-9.99999 0-10.53762 1.2918-1.07527 2.6912 1.6129 9.9035 5.37634 14.64 6.23658 7.8582 12.68818 9.9035 32.79568 10.1188l10.3226.1077.1075 3.7676c.1076 2.0453.5377 23.5751.8602 47.9031.5377 34.016.9678 44.458 2.0431 45.535 1.0752 1.076 3.4408 1.184 10 .538l8.4946-.861.6451-29.496 3.7635 2.261c3.6559 2.153 4.9462 2.261 25.054 1.722 11.72-.323 22.15-1.076 23.333-1.722 1.505-.754 4.194-.538 10.108.969 6.774 1.614 9.57 1.83 18.709.969 7.097-.754 11.828-1.723 14.194-3.122l3.548-2.153.645 3.229c.43 1.723 1.291 3.122 1.936 3.23 3.333.323 19.14-.216 24.193-.754 5.054-.646 5.592-.969 5.592-3.229 0-3.122.43-3.23 4.301-.431 5.591 3.983 17.097 5.598 34.193 4.737 12.904-.646 15.807-1.077 18.065-2.799 2.581-2.046 2.903-2.046 9.892-.431 6.237 1.615 9.14 1.615 22.258.646 19.678-1.615 37.312-1.615 40.216-.108 2.58 1.4 45.698 1.292 48.494-.107.86-.431 3.441-1.615 5.699-2.584 8.71-3.875 14.086-17.439 9.247-23.574-.43-.646-5.053-1.077-10.322-.969h-9.463l-1.827 3.875c-1.076 2.153-2.689 4.198-3.764 4.521s-7.634.646-14.516.861c-11.72.323-12.796.108-14.946-2.045-2.688-2.583-3.549-8.289-3.441-21.529.215-14.6403 3.333-17.0086 22.58-16.7933 13.656.1077 16.022 1.7224 16.667 11.0873l.323 3.768 7.097.323c3.87.215 8.279-.215 9.784-.754 2.796-1.076 2.796-1.184 2.259-10.0107-.323-6.0283-1.183-9.7959-2.366-11.6259-2.581-3.66-12.903-7.643-22.258-8.5041-8.065-.7536-34.086.2153-42.043 1.507l-4.624.8612v-3.4447c0-4.1982-1.398-4.8441-11.398-4.8441-11.828-.1077-11.613-.8612-10.645 23.2517.43 11.1956.86 21.0986.968 22.1756.107 1.184-.86 1.937-2.581 2.153-3.548.538-5.376 3.014-5.376 7.75 0 5.167-1.613 6.459-8.172 6.459-10 0-9.893.538-10.323-30.895l-.43-27.1267 6.667.6459c3.656.323 7.957.3229 9.57-.1076l2.903-.7536-.753-22.9288c-.86-25.5123-.215-28.9571 5.699-30.4641 8.817-2.2606 16.344.5382 18.28 6.997l1.29 4.1983 10.43.1076c5.807.1077 11.075-.2153 11.721-.6459.86-.5382 1.075-3.8752.537-11.5182-1.183-17.00822-2.903-18.40764-22.688-19.16116-13.656-.53824-20.86.86117-24.301 4.73647l-2.043 2.26058-.538-3.55235-.537-3.66-11.291-.21529c-34.623-.753532-60.43-.753532-64.086 0zm53.011 4.41353c.968.86117 2.473 14.42472 2.473 21.85232 0 5.0594-.43 8.0736-1.29 8.6118-.753.4306-11.505.9688-23.979 1.0765-25.591.3229-25.268.2153-25.268 8.9347 0 9.6882 5.053 12.9176 21.505 13.8864l11.29.6459.753 5.3824c.43 2.9064.538 5.5976.215 5.9206-.753.7535-30.968.2153-36.236-.6459-3.656-.6459-4.086-.9688-3.441-3.0141 3.763-11.6259 3.871-13.3483 3.441-31.8636-.431-19.3764-1.398-24.5435-5.377-27.88055-1.075-.75353-1.828-2.0453-1.828-2.90647 0-1.18412 5.269-1.29177 28.71-.96883 15.699.32294 28.817.75353 29.032.96883zm18.925.32294c.43.21529.753 1.93764.753 3.66 0 4.84408 2.688 5.05938 7.311.75348 6.99-6.67407 9.14-6.99701 29.785-4.62878 10.43 1.18412 12.366 3.76765 12.366 16.14708v6.997h-14.839l-2.043-4.0905c-2.58-5.2748-7.634-7.7506-15.806-7.7506-7.527 0-13.226 2.9064-14.194 7.32-.322 1.6147-.86 3.66-1.183 4.5211-.215.8612-.43 11.4106-.43 23.3595l.215 21.8523h-4.623c-2.581 0-5.699-.3229-6.99-.6459l-2.473-.6459 2.581-3.1217c2.688-3.2294 4.409-11.4106 3.656-17.6541-.323-2.9065-.753-3.2295-4.086-3.2295-3.656-.1076-3.764-.2152-4.086-4.6288-.323-4.3059-.215-4.6288 3.011-5.167 5.053-1.0765 6.451-3.983 6.451-13.3483 0-6.8894-.537-8.9347-3.226-13.8864-1.828-3.22945-3.225-6.24357-3.225-6.88945 0-.96883 9.139-.10765 11.075 1.07647zm-155.807 10.22648c.538 7.7506 1.076 54.0388.753 60.8206-.107.8612-1.72 1.3994-4.408 1.3994-3.979 0-4.302-.2153-4.302-3.0141 0-1.6147-.322-4.0906-.752-5.3824-.645-2.4759-.753-2.4759-4.516 1.83-3.764 4.3059-4.194 4.5212-12.796 5.49-4.946.5383-10.5377.7536-12.3657.4306-6.2365-.9688-12.6881-2.9065-12.258-3.5523 2.9032-5.3824 5.0537-11.8412 5.0537-15.1783 0-7.7506-2.3655-15.1782-6.2365-19.1612-3.2258-3.4447-3.5484-4.4135-3.2258-9.2576.3226-5.3824.4301-5.49 3.8709-5.5977 1.9355-.1076 3.7635-.4305 4.1936-.7535 1.0753-1.1841-2.9032-8.9347-6.2366-12.1641-1.6129-1.6147-2.7957-3.33706-2.4731-3.87529.3226-.43059 3.6559-.86118 7.5269-.86118h6.8817l.1076 9.36527c0 5.2747.1075 15.2859 0 22.3906 0 15.3935.9677 19.0535 5.6989 22.0677 4.4084 2.5835 14.9464 2.9064 20.6454.5382 6.236-2.5835 6.774-5.2747 6.129-31.3253-.645-25.08176-.968-23.57471 5.699-24.00529 2.043-.10765 2.365.64588 3.01 9.79589zm18.388 2.4759 2.15-2.2606c1.183-1.2918 3.226-3.5524 4.624-5.0594 3.01-3.44474 15.054-5.27474 31.613-4.7365 14.193.43059 16.236 1.61471 14.623 8.6118-.537 2.5835-.752 13.3482-.322 25.5123.43 14.7477.322 20.5606-.43 19.3765-.646-.8612-1.183-3.3371-1.183-5.49 0-2.3683-.645-4.1983-1.398-4.5212-1.183-.4306-1.29-1.9376-.538-7.4276.968-6.8894.323-16.0394-1.398-19.3765-.537-.9688-2.688-2.7988-4.838-4.1982-3.334-2.0453-5.162-2.3683-14.301-2.153-23.441.323-26.99 3.1218-26.99 21.3141 0 19.3765 1.291 20.9912 16.667 21.8524l9.678.5382v12.9177l-5.699-.1077c-6.882-.2153-11.506-2.0453-16.129-6.2435-1.936-1.83-3.979-3.3371-4.624-3.3371-.753 0-1.075 5.813-1.075 17.4389l.215 17.5464h-4.947c-4.516 0-4.838-.2153-5.053-3.0141-.645-9.3653-.43-15.3935.322-15.9318.538-.3229.968-17.0082.968-37.1382v-36.49234h7.419zm-88.4951-9.90356c5.0538.10765 9.6774.64588 10.1075 1.07646.5377.4306.8603 3.3371.9678 6.4588 0 5.5977 0 5.5977-3.2258 5.49-1.828-.1076-5.1613-1.3994-7.4194-3.0141-3.9785-2.6912-4.9462-2.7988-17.3118-2.7988-15.1613 0-22.9032 1.83-26.2366 6.1359-2.4731 3.1217-3.0107 9.15-.8602 10.8723.7527.6459 11.1828 1.3994 23.871 1.83 16.0215.4306 23.871 1.1841 27.2043 2.2606l4.5161 1.7224.2151 9.2576c.1075 5.1671.215 13.133.4301 17.6541.215 8.0736.1075 8.2889-2.7957 9.473-4.1936 1.7223-48.4946 1.83-54.6237.1076-3.4408-.9688-5.5914-2.5835-8.8172-6.6741-2.36557-3.0141-4.30106-6.6741-4.30106-8.0735 0-2.4759.32259-2.5836 6.98926-2.5836 6.5591 0 6.9892.1077 7.6344 2.6912 1.1828 4.9518 7.7419 7.32 20.2151 7.2124 15.9139-.1077 21.8279-1.0765 25.4838-4.3059 2.7957-2.2606 3.2258-3.3371 2.9032-7.1047-.3225-3.7677-.8602-4.6288-4.4085-6.6741-2.5807-1.3994-6.2366-2.3683-10.1076-2.4759-3.3333-.1077-6.3441-.323-6.6666-.6459-.4302-.2153-7.5269.1076-15.914.7535-17.742 1.3994-20.7527.6459-23.87099-5.49-3.11828-6.1358-4.51613-14.2094-3.22581-18.8382s6.6667-11.0876 10.5376-12.81c2.7957-1.07647 31.3979-2.79882 36.6667-2.04529 1.5054.10764 6.8817.43058 12.043.53823zm77.6341 3.55236c.323 2.7988.645 18.1923.645 34.3394 0 24.7588-.215 29.4953-1.612 30.6794-1.398 1.1841-1.613.7535-1.613-2.7988 0-2.3682-.108-18.4077-.323-35.7388-.107-22.4983.108-31.43297.968-31.43297.645 0 1.505 2.26059 1.935 4.95177zm138.495 2.1529c2.15 6.1359 2.473 17.7618.645 19.5918-.753.7535-2.15 1.2918-3.226 1.2918-1.72 0-1.935-1.1842-1.935-13.5636 0-14.96291 1.183-17.0082 4.516-7.32zm-67.527-.9688c4.194 8.3965 5.807 41.0135 2.258 49.5177-2.043 5.2747-3.118 5.7053-5.054 2.1529-1.075-1.7224-1.397-8.8271-1.397-26.5888 0-27.6653.645-31.75591 4.193-25.0818zm-130.215 4.4135c1.828 3.1218 1.828 3.4447.2151 4.0906-2.2581.8612-3.3334-.3229-4.1936-4.7364-.7527-4.5212 1.1828-4.1983 3.9785.6458zm-24.7312 1.2918c1.7205 0 3.871 1.0765 5.2688 2.6912 1.828 2.1529 3.3334 2.6912 7.5269 2.6912h5.1613v5.49c0 4.8441-.215 5.3823-1.8279 4.7364-4.9463-2.0453-10.7527-2.6911-26.6667-2.7988-19.6774-.2153-23.4409-.7535-23.9785-3.4447-.4301-2.1529 2.2581-5.5976 5.6989-7.5353 2.5807-1.3994 16.6667-2.7988 22.043-2.2606 2.043.2153 5.0538.4306 6.7742.4306zm137.8492 3.2294c1.076.8612 2.258 2.7988 2.904 4.3059 1.182 3.2294 1.29 20.4529 0 21.7447-.431.4306-4.624 1.1841-9.14 1.5071l-8.28.7535v7.2123h-7.527c-10.645 0-14.516-1.83-15.376-7.1047-1.075-6.4588-.86-16.147.43-21.4217.968-3.983 1.828-4.9518 5.376-6.3512 2.258-.9688 6.129-1.6147 8.495-1.5071 2.366.1077 4.516-.1076 4.839-.4305 1.29-1.1842 16.559-.1077 18.279 1.2917zm77.742 20.8835c.538 4.4136-1.183 5.49-9.247 5.49h-7.204l-1.076 8.6118-10.215-.3229c-13.441-.5383-17.204-2.2606-19.032-8.8271-.968-3.2294-1.075-5.0594-.215-5.9206s40.108-2.6912 45.591-2.1529c.646.1076 1.183 1.507 1.398 3.1217zm-190.86 1.7224c1.0753 1.7224 2.1505 6.2435 2.5807 10.0112.5376 5.7053.215 7.5353-1.828 11.4106-1.7204 3.5523-2.5806 4.4135-3.3333 3.2294-1.1828-1.83-1.2904-27.8806-.1076-27.8806.4302 0 1.7205 1.3994 2.6882 3.2294zm179.785 8.6118c0 .8611-.86 1.7223-1.828 1.9376-1.398.2153-1.935-.3229-1.935-1.9376s.537-2.153 1.935-1.9377c.968.2153 1.828 1.0765 1.828 1.9377zm10.645 5.7053c1.29 9.7958.215 12.1641-6.236 13.1329-2.581.4306-5.269.4306-5.914 0-.646-.3229-1.183-3.2294-1.183-6.3512 0-4.4135.537-6.1359 2.258-7.7506 1.29-1.0764 2.688-3.1217 3.226-4.5211.752-1.9377 1.613-2.4759 3.978-2.153 2.688.323 3.011.7535 3.871 7.643zm8.172-3.0142c0 4.6289-1.72 10.2265-3.226 10.2265-1.075 0-2.15-5.7053-2.15-10.8723 0-3.7677.322-4.1983 2.688-4.1983 2.473 0 2.688.4306 2.688 4.8441zm-83.871-1.6147c0 3.5524-13.118 4.3059-13.763.7536-.323-1.6147.537-1.83 6.666-1.83 3.871 0 7.097.4305 7.097 1.0764zm4.194 13.133c.107 4.9517 0 5.0594-3.334 5.3823-1.935.2153-5.806.1077-8.602 0l-5.161-.4306v-6.3511c0-5.813.215-6.3512 2.473-6.4589 5.807-.1076 8.817-.9688 10.86-3.1217l2.258-2.2606.753 4.0906c.43 2.2606.753 6.3512.753 9.15zm5.914.4306c1.075 2.6911.752 3.66-.968 3.66-.968 0-1.613-.9689-1.613-2.6912 0-3.0141 1.613-3.66 2.581-.9688zm-46.882 4.9517c2.151 2.0453 3.978 2.5836 11.613 2.9065 9.892.3229 11.72 1.6147 4.193 2.6912-2.58.4306-5.053 1.1841-5.268 1.6147-.323.4306-.538 8.2888-.538 17.4388 0 23.1438 0 23.4668-1.29 29.7108-.753 4.09-1.721 5.813-3.226 6.243-2.903.969-12.903.969-15.699.108-3.871-1.184-5.484-6.674-5.914-18.946l-.323-11.303 5.377-.323c3.01-.215 5.806-.753 6.451-1.399.538-.538.861-7.4278.646-16.0396-.108-8.2888.107-15.0706.537-15.0706s1.936 1.0765 3.441 2.3682zm79.247 3.2294c13.656.323 16.129.5383 16.452 2.0453.215 1.3994-.86 1.6147-7.527 1.2918-4.301-.1076-9.355-.5382-11.183-.7535-6.021-.8612-26.344 1.2917-28.924 3.0141-2.904 1.9376-3.764 1.2918-3.764-2.7988 0-2.153.538-3.0141 1.936-3.0141 1.075 0 2.903-.6459 3.978-1.5071 1.613-1.1841 2.903-1.1841 7.419 0 3.011.7535 12.689 1.5071 21.613 1.7223zm34.301 2.3683c.431 2.0453.753 15.3935.753 29.7103l.108 25.943 2.688 1.077c3.441 1.291 14.946 1.291 17.527-.108 1.075-.538 2.795-3.445 3.871-6.459 1.075-2.906 2.58-5.382 3.333-5.382 1.398 0 1.505 1.184 1.828 16.147l.107 6.997-9.139.861c-10.108.969-26.775.215-28.172-1.184-.43-.431-.108-3.229.86-6.028 1.505-4.414 1.72-8.504 1.29-25.835-.645-22.714-1.398-26.1587-7.204-31.1105-6.022-4.9518-3.333-7.6429 8.064-8.1812 3.119-.1076 3.441.2153 4.086 3.5524zm47.205-.7536c.322 1.6148-.108 4.1983-.861 5.813-1.827 3.5523-3.763 22.0679-3.118 30.1409l.538 6.029-4.946.107c-3.119.215-5.054-.215-5.269-1.076-.323-.754-.753-10.657-1.075-22.068l-.646-20.6682 2.904-.4306c1.72-.2153 5.053-.5382 7.419-.6459 4.086-.1076 4.516.1077 5.054 2.7988zm-239.6777-1.1841c2.043.7536 2.258 2.5836.3226 2.5836-.7527 0-3.1183 1.1841-5.3764 2.6911-3.871 2.6912-3.9785 2.6912-3.9785.5383 0-1.2918 1.3979-3.0141 3.5484-4.3059 3.9785-2.4759 3.3333-2.3682 5.4839-1.5071zm119.9997 6.9971c0 4.0906.43 7.4276.968 7.4276s2.366-1.1841 4.086-2.5835c3.226-2.6912 6.667-4.0906 11.075-4.4135 1.506-.2153 7.312-.8612 12.904-1.6147 8.064-.9689 11.827-.9689 17.957 0l7.741 1.3994.108 26.8036c0 14.856.538 29.173 1.183 31.864 1.183 5.382.43 6.566-4.409 6.782-35.161 1.184-38.71.753-45.269-5.167-4.731-4.306-6.021-3.983-6.559 1.83-.322 3.337-.752 3.767-3.656 4.09l-3.333.323-.645-7.32c-.43-3.983-.753-19.807-.753-34.985 0-26.2659-.107-27.773-2.043-28.8494-1.183-.5383-3.118-1.0765-4.408-1.0765-1.291 0-2.044-.3229-1.721-.8612.215-.4306 4.086-.8612 8.602-.9688l8.172-.2153zm-133.118.1076c.1075 1.9377.215 4.5212.3226 5.7053.1075 2.5836 3.7634 2.3683 5.2688-.3229.5376-1.0765 2.3656-3.1218 3.9785-4.8441l2.9032-2.9065h19.9999c10.968 0 20.323.1076 20.753.2153.322.2153.537 9.0423.43 19.6992-.108 10.657.322 24.006 1.075 29.603 2.043 17.331 3.118 15.286-9.247 17.008-8.602 1.184-13.011 1.292-22.2582.323-6.3441-.646-12.2581-1.507-13.1183-1.83s-2.7957-2.476-4.4086-4.844c-4.7312-7.212-5.3763-5.49-5.3763 14.21v17.654l-5.5914.323-5.699.323v-4.091c-.1075-2.261-.5376-6.244-1.1827-8.935-.9678-4.844-3.2259-78.3667-2.3656-79.9814.215-.4306 3.5483-.7536 7.4193-.7536h6.8817zm66.882-.6458c.967 2.6911.752 9.0423-.43 9.0423-.538 0-1.291-1.7223-1.721-3.7676-.322-2.0453-1.075-4.0906-1.613-4.4136-.537-.3229-.752-1.0764-.43-1.6147 1.075-1.507 3.441-1.1841 4.194.7536zm46.559 9.5805c.107 5.9206.43 17.2236.753 25.0816.322 7.858.215 18.3-.108 23.252-.645 8.719-.753 9.042-3.441 9.581-3.548.753-4.731-.431-4.623-4.522.107-4.521-1.398-5.059-5.269-1.83-1.721 1.507-5.269 3.337-7.742 3.983-4.731 1.292-27.957.969-29.355-.323-.43-.43.322-3.229 1.613-6.136 2.58-6.135 3.441-17.331 2.043-27.449-1.183-8.505-.538-11.411 2.796-11.411 2.473 0 2.58.215 3.118 12.056.215 6.675 1.075 13.672 1.72 15.502 1.828 4.844 6.237 6.889 14.839 6.997 8.71.107 12.903-1.292 14.193-4.629.538-1.4 1.076-13.133 1.076-26.158.215-25.0822.322-25.6204 5.484-25.0822 2.688.3229 2.688.4306 2.903 11.0876zm8.279-8.3964c.753 4.4135.753 51.455 0 59.313-.43 4.199-1.182 6.675-2.043 6.675-.967 0-1.505-6.136-2.043-24.006-.322-13.133-.967-28.6338-1.29-34.4467l-.645-10.4418h2.688c2.151 0 2.903.6459 3.333 2.9065zm192.151-1.7224c3.226.7536 6.667 2.2606 8.172 3.7677 2.258 2.3682 2.581 3.337 2.258 10.3341l-.323 7.8586h-5.913c-5.484 0-5.914-.216-6.237-2.692-.753-6.6737-1.398-7.6425-6.452-9.9031-4.408-2.0453-6.344-2.1529-17.742-1.6147-18.924.9688-21.182 3.3371-21.182 21.8528 0 12.487 1.505 17.977 5.699 21.529 3.118 2.583 3.763 2.691 15.698 2.476 14.517-.323 17.85-1.184 20-5.275 1.291-2.476 2.366-3.014 7.527-3.552 8.28-.861 9.14-.323 9.14 5.167 0 8.289-1.613 10.98-8.172 13.348-5.161 1.938-8.495 2.261-29.57 2.368-21.72 0-24.086-.107-25.806-1.937-1.721-1.615-2.043-4.414-2.473-18.623-.323-9.15-.861-22.821-1.291-30.3567l-.752-13.7789 2.58-.9688c3.656-1.507 48.065-1.3994 54.839 0zm-251.183 9.5806c1.075 3.0141 1.613 10.0108 1.721 22.9288.215 15.716 0 19.269-1.721 23.144-1.183 2.799-2.258 4.306-2.903 3.66-.538-.538-1.398-5.275-1.936-10.549-1.182-10.98-1.397-45.9656-.322-47.042.968-.9689 3.333 2.5835 5.161 7.8582zm130.968-3.7676c2.903 3.9829 3.978 12.1644 4.301 31.7554.215 14.963-.108 18.3-1.613 20.992l-1.72 3.229-1.291-3.229c-.645-1.83-1.505-6.675-1.72-10.765-.753-13.241-1.183-44.6736-.538-44.6736.323 0 1.506 1.2918 2.581 2.6912zm61.075 17.9774c.323 16.039 0 31.325-.753 31.971-1.505 1.614-2.043-3.553-2.043-21.745 0-18.5152.538-24.4358 2.043-24.4358.216 0 .646 6.4588.753 14.2098zm-8.172 19.161c.86 2.691-.215 10.011-2.258 14.747-1.505 3.768-4.086 4.629-5.161 1.83-.86-2.26-.86-17.115.107-17.977.323-.43 2.043-.753 3.656-.753 2.043 0 3.226.646 3.656 2.153zm5.592 16.362c1.29 1.83 2.15 3.768 1.827 4.306-.645.969-7.311 1.184-8.279.215-.645-.753 2.473-7.966 3.441-7.966.322 0 1.72 1.615 3.011 3.445z"/><path d="m235.409 15.344c-5.484.8611-7.635 2.3682-10.323 7.4276-3.656 6.7818-2.473 8.0735 7.742 8.9347 10.538.9688 26.021.9688 30.43.1077 3.011-.6459 3.333-1.0765 3.333-4.6289-.107-9.3652-5.591-13.0252-18.817-12.7023-4.731.1076-10.322.5382-12.365.8612zm26.451 5.5976c2.796 3.3371 3.334 6.6741 1.291 7.4277-.753.3229-9.033.6458-18.28.7535l-16.989.2153v-3.1218c0-6.3512 5.376-8.3964 22.365-8.2888 8.495 0 9.14.2153 11.613 3.0141z"/><path d="m213.366 95.1105c-3.549.5382-7.312 1.8299-8.28 2.7988-3.763 3.6597-5.591 26.6967-2.688 32.5097.753 1.507 3.548 3.875 6.129 5.382 4.408 2.476 5.914 2.691 16.452 2.584 6.344-.108 13.655-.754 16.344-1.507 8.172-2.261 10.645-10.55 8.064-27.881-1.075-7.643-2.903-10.2266-9.14-13.133-4.838-2.2606-15.699-2.4759-26.881-.7535zm26.451 3.5523c4.731 2.4762 6.344 6.7822 6.882 18.4072.43 11.519-.538 14.856-4.731 16.47-5.484 2.153-19.678 3.122-26.344 1.723-10.215-2.153-11.183-4.306-10.43-24.759.215-5.49.86-9.15 1.828-10.119 2.903-3.1216 27.634-4.3057 32.795-1.7222z"/><path d="m78.4194 96.1869c-6.8818 2.9065-7.5269 3.5524-8.7097 7.7511-1.0753 3.982-.9678 9.042.7527 22.713.215 2.368 1.3978 5.49 2.4731 6.997 2.6882 3.768 12.4731 5.382 24.6236 4.091 13.8709-1.507 17.3119-2.584 18.7099-6.029 1.828-4.628 1.398-26.265-.645-30.141-3.119-6.028-5.054-6.6738-20.538-6.5662-7.6344 0-15.1613.5382-16.6666 1.1841zm28.2796 2.5835c5.484.9689 6.989 4.0906 7.849 16.6856.538 7.858.323 10.98-.967 13.994l-1.613 3.875-12.6884.754c-12.6882.753-20.9678-.108-23.3334-2.476-1.3978-1.4-2.6881-10.765-2.7957-20.13-.1075-9.796 1.6129-11.5184 12.4732-12.3796 12.9032-.9688 16.6663-.9688 21.0753-.323z"/><path d="m302.72 48.4993c-.967 1.507-.43 13.3482.538 14.64 1.075 1.507 20.968 1.3994 22.258 0 .645-.6459.753-4.0906.323-8.0736l-.645-6.997-10.968-.323c-6.237-.1076-11.183.1077-11.506.7536zm19.678 2.9064c.322.323.645 2.4759.645 4.7365.108 4.7365-.968 5.3823-9.355 5.3823-7.527 0-8.387-.6458-8.387-5.9205 0-2.6912.538-4.9518 1.398-5.2747 1.505-.6459 14.946.2153 15.699 1.0764z"/><path d="m457.758 58.9844h25.664l1.601 1.6015-4.57 3.5938h-21.562l-3.047-4.1016zm-2.735 1.6406 3.282 4.1016-3.282 19.1406-2.539 1.9531-2.382-2.7734 3.554-21.3281zm22.774 23.5156 2.344 2.5782-3.086 2.8515h-10.782l.743-5.4297zm-22.227 5.4297-2.734-2.9687 3.281-2.461h10.274l-.782 5.4297zm24.844-1.9141 2.461 2.7344-3.555 21.4064-1.64 1.015-3.203-3.867 3.242-18.8669zm-28.008 21.8358 21.367.039 3.086 4.102-2.187 1.367h-25.391l-1.367-1.641z"/><path d="m504.789 58.9844h25.664l1.602 1.6015-4.571 3.5938h-21.562l-3.047-4.1016zm-2.734 1.6406 3.281 4.1016-3.281 19.1406-2.539 1.9531-2.383-2.7734 3.555-21.3281zm30.586.5469 1.367 1.6406-3.281 20.7813-3.008 2.4609-2.188-2.4609 2.657-18.9454zm-7.813 22.9687 2.344 2.5782-3.086 2.8515h-10.781l.742-5.4297zm-22.226 5.4297-2.735-2.9687 3.281-2.461h10.274l-.781 5.4297zm-3.282-2.1875 2.188 2.7344-2.852 18.8278-4.531 3.594-1.094-1.641 3.555-21.6011z"/><path d="m567.758 109.531 3.086 4.102-2.188 1.367h-12.5l.977-5.469zm-24.492 5.469-1.368-1.641 4.493-3.867 10.273.039-.976 5.469z"/><path d="m598.695 58.9844h25.664l1.602 1.6015-4.57 3.5938h-21.563l-3.047-4.1016zm-2.734 1.6406 3.281 4.1016-3.281 19.1406-2.539 1.9531-2.383-2.7734 3.555-21.3281zm22.773 23.5156 2.344 2.5782-3.086 2.8515h-10.781l.742-5.4297zm-22.226 5.4297-2.735-2.9687 3.282-2.461h10.273l-.781 5.4297zm24.844-1.9141 2.46 2.7344-3.554 21.4064-1.641 1.015-3.203-3.867 3.242-18.8669zm-28.008 21.8358 21.367.039 3.086 4.102-2.188 1.367h-25.39l-1.367-1.641z"/><path d="m645.727 58.9844h25.664l1.601 1.6015-4.57 3.5938h-21.563l-3.047-4.1016zm-5.352 50.5076 21.367.039 3.086 4.102-2.187 1.367h-25.391l-1.367-1.641zm11.602-25.742h5.117l3.164-19.0234h-5.196zm-.508 6.25h5l-3.008 19.023h-5.195z"/><path d="m692.68 58.9844h25.664l1.601 1.6015-4.57 3.5938h-21.563l-3.046-4.1016zm6.25 24.7656h5.117l3.164-19.0234h-5.195zm-.508 6.25h5l-3.008 19.023h-5.195z"/><path d="m739.633 58.9844h25.664l1.601 1.6015-4.57 3.5938h-21.562l-3.047-4.1016zm-2.735 1.6406 3.282 4.1016-3.282 19.1406-2.539 1.9531-2.382-2.7734 3.554-21.3281zm22.774 23.5156 2.344 2.5782-3.086 2.8515h-10.782l.743-5.4297zm-22.227 5.4297-2.734-2.9687 3.281-2.461h10.274l-.782 5.4297zm-3.281-2.1875 2.188 2.7344-2.852 18.8278-4.531 3.594-1.094-1.641 3.555-21.6011zm.117 22.1092 21.367.039 3.086 4.102-2.187 1.367h-25.391l-1.367-1.641z"/></g><path d="m218.634 1.56515c-2.365.43059-14.408.75353-26.774.75353-20.322-.10765-23.226.10764-27.634 2.04529-2.688 1.07647-5.269 2.58353-5.592 3.22941-1.29 2.0453-2.903 1.29177-2.58-1.29176.43-3.01412-2.366-3.33706-20.43-2.36824l-13.226.75353.645 24.22059.538 24.3282-2.689 3.5524c-2.688 3.5523-3.01 3.66-10.86 3.66-7.097 0-8.387-.323-10.6449-2.6912l-2.6882-2.5835v-24.2206c0-19.3765-.3226-24.43589-1.5053-25.72765-1.9355-1.93765-16.5592-1.29177-18.8173.86117-1.2903 1.29177-1.9354 1.29177-4.5161 0-3.4408-1.83-3.2258-1.83-29.4623-1.29176-22.6882.53823-27.4194 1.50706-33.11833 6.56644-4.30108 3.8753-8.27957 12.0565-8.27957 17.1159 0 6.3512 4.51613 16.9006 8.49462 20.0224l3.65588 2.7988h24.5162c22.4731 0 24.5161.1076 26.6666 2.0453 1.2904 1.1841 2.2581 3.337 2.2581 5.0594 0 4.4135-5.2688 6.3512-18.8172 6.8894-15.8065.5382-23.6559-1.83-24.4086-7.4276-.3226-2.0453-1.0753-2.2606-10.3226-2.5836-7.84945-.2153-9.99999 0-10.53762 1.2918-1.07527 2.6912 1.6129 9.9035 5.37634 14.64 6.23658 7.8582 12.68818 9.9035 32.79568 10.1188l10.3226.1077.1075 3.7676c.1076 2.0453.5377 23.5751.8602 47.9031.5377 34.016.9678 44.458 2.0431 45.535 1.0752 1.076 3.4408 1.184 10 .538l8.4946-.861.6451-29.496 3.7635 2.261c3.6559 2.153 4.9462 2.261 25.054 1.722 11.72-.323 22.15-1.076 23.333-1.722 1.505-.754 4.194-.538 10.108.969 6.774 1.614 9.57 1.83 18.709.969 7.097-.754 11.828-1.723 14.194-3.122l3.548-2.153.645 3.229c.43 1.723 1.291 3.122 1.936 3.23 3.333.323 19.14-.216 24.193-.754 5.054-.646 5.592-.969 5.592-3.229 0-3.122.43-3.23 4.301-.431 5.591 3.983 17.097 5.598 34.193 4.737 12.904-.646 15.807-1.077 18.065-2.799 2.581-2.046 2.903-2.046 9.892-.431 6.237 1.615 9.14 1.615 22.258.646 19.678-1.615 37.312-1.615 40.216-.108 2.58 1.4 45.698 1.292 48.494-.107.86-.431 3.441-1.615 5.699-2.584 8.71-3.875 14.086-17.439 9.247-23.574-.43-.646-5.053-1.077-10.322-.969h-9.463l-1.827 3.875c-1.076 2.153-2.689 4.198-3.764 4.521s-7.634.646-14.516.861c-11.72.323-12.796.108-14.946-2.045-2.688-2.583-3.549-8.289-3.441-21.529.215-14.6403 3.333-17.0086 22.58-16.7933 13.656.1077 16.022 1.7224 16.667 11.0873l.323 3.768 7.097.323c3.87.215 8.279-.215 9.784-.754 2.796-1.076 2.796-1.184 2.259-10.0107-.323-6.0283-1.183-9.7959-2.366-11.6259-2.581-3.66-12.903-7.643-22.258-8.5041-8.065-.7536-34.086.2153-42.043 1.507l-4.624.8612v-3.4447c0-4.1982-1.398-4.8441-11.398-4.8441-11.828-.1077-11.613-.8612-10.645 23.2517.43 11.1956.86 21.0986.968 22.1756.107 1.184-.86 1.937-2.581 2.153-3.548.538-5.376 3.014-5.376 7.75 0 5.167-1.613 6.459-8.172 6.459-10 0-9.893.538-10.323-30.895l-.43-27.1267 6.667.6459c3.656.323 7.957.3229 9.57-.1076l2.903-.7536-.753-22.9288c-.86-25.5123-.215-28.9571 5.699-30.4641 8.817-2.2606 16.344.5382 18.28 6.997l1.29 4.1983 10.43.1076c5.807.1077 11.075-.2153 11.721-.6459.86-.5382 1.075-3.8752.537-11.5182-1.183-17.00822-2.903-18.40764-22.688-19.16116-13.656-.53824-20.86.86117-24.301 4.73647l-2.043 2.26058-.538-3.55235-.537-3.66-11.291-.21529c-34.623-.753532-60.43-.753532-64.086 0zm53.011 4.41353c.968.86117 2.473 14.42472 2.473 21.85232 0 5.0594-.43 8.0736-1.29 8.6118-.753.4306-11.505.9688-23.979 1.0765-25.591.3229-25.268.2153-25.268 8.9347 0 9.6882 5.053 12.9176 21.505 13.8864l11.29.6459.753 5.3824c.43 2.9064.538 5.5976.215 5.9206-.753.7535-30.968.2153-36.236-.6459-3.656-.6459-4.086-.9688-3.441-3.0141 3.763-11.6259 3.871-13.3483 3.441-31.8636-.431-19.3764-1.398-24.5435-5.377-27.88055-1.075-.75353-1.828-2.0453-1.828-2.90647 0-1.18412 5.269-1.29177 28.71-.96883 15.699.32294 28.817.75353 29.032.96883zm18.925.32294c.43.21529.753 1.93764.753 3.66 0 4.84408 2.688 5.05938 7.311.75348 6.99-6.67407 9.14-6.99701 29.785-4.62878 10.43 1.18412 12.366 3.76765 12.366 16.14708v6.997h-14.839l-2.043-4.0905c-2.58-5.2748-7.634-7.7506-15.806-7.7506-7.527 0-13.226 2.9064-14.194 7.32-.322 1.6147-.86 3.66-1.183 4.5211-.215.8612-.43 11.4106-.43 23.3595l.215 21.8523h-4.623c-2.581 0-5.699-.3229-6.99-.6459l-2.473-.6459 2.581-3.1217c2.688-3.2294 4.409-11.4106 3.656-17.6541-.323-2.9065-.753-3.2295-4.086-3.2295-3.656-.1076-3.764-.2152-4.086-4.6288-.323-4.3059-.215-4.6288 3.011-5.167 5.053-1.0765 6.451-3.983 6.451-13.3483 0-6.8894-.537-8.9347-3.226-13.8864-1.828-3.22945-3.225-6.24357-3.225-6.88945 0-.96883 9.139-.10765 11.075 1.07647zm-155.807 10.22648c.538 7.7506 1.076 54.0388.753 60.8206-.107.8612-1.72 1.3994-4.408 1.3994-3.979 0-4.302-.2153-4.302-3.0141 0-1.6147-.322-4.0906-.752-5.3824-.645-2.4759-.753-2.4759-4.516 1.83-3.764 4.3059-4.194 4.5212-12.796 5.49-4.946.5383-10.5377.7536-12.3657.4306-6.2365-.9688-12.6881-2.9065-12.258-3.5523 2.9032-5.3824 5.0537-11.8412 5.0537-15.1783 0-7.7506-2.3655-15.1782-6.2365-19.1612-3.2258-3.4447-3.5484-4.4135-3.2258-9.2576.3226-5.3824.4301-5.49 3.8709-5.5977 1.9355-.1076 3.7635-.4305 4.1936-.7535 1.0753-1.1841-2.9032-8.9347-6.2366-12.1641-1.6129-1.6147-2.7957-3.33706-2.4731-3.87529.3226-.43059 3.6559-.86118 7.5269-.86118h6.8817l.1076 9.36527c0 5.2747.1075 15.2859 0 22.3906 0 15.3935.9677 19.0535 5.6989 22.0677 4.4084 2.5835 14.9464 2.9064 20.6454.5382 6.236-2.5835 6.774-5.2747 6.129-31.3253-.645-25.08176-.968-23.57471 5.699-24.00529 2.043-.10765 2.365.64588 3.01 9.79589zm18.388 2.4759 2.15-2.2606c1.183-1.2918 3.226-3.5524 4.624-5.0594 3.01-3.44474 15.054-5.27474 31.613-4.7365 14.193.43059 16.236 1.61471 14.623 8.6118-.537 2.5835-.752 13.3482-.322 25.5123.43 14.7477.322 20.5606-.43 19.3765-.646-.8612-1.183-3.3371-1.183-5.49 0-2.3683-.645-4.1983-1.398-4.5212-1.183-.4306-1.29-1.9376-.538-7.4276.968-6.8894.323-16.0394-1.398-19.3765-.537-.9688-2.688-2.7988-4.838-4.1982-3.334-2.0453-5.162-2.3683-14.301-2.153-23.441.323-26.99 3.1218-26.99 21.3141 0 19.3765 1.291 20.9912 16.667 21.8524l9.678.5382v12.9177l-5.699-.1077c-6.882-.2153-11.506-2.0453-16.129-6.2435-1.936-1.83-3.979-3.3371-4.624-3.3371-.753 0-1.075 5.813-1.075 17.4389l.215 17.5464h-4.947c-4.516 0-4.838-.2153-5.053-3.0141-.645-9.3653-.43-15.3935.322-15.9318.538-.3229.968-17.0082.968-37.1382v-36.49234h7.419zm-88.4951-9.90356c5.0538.10765 9.6774.64588 10.1075 1.07646.5377.4306.8603 3.3371.9678 6.4588 0 5.5977 0 5.5977-3.2258 5.49-1.828-.1076-5.1613-1.3994-7.4194-3.0141-3.9785-2.6912-4.9462-2.7988-17.3118-2.7988-15.1613 0-22.9032 1.83-26.2366 6.1359-2.4731 3.1217-3.0107 9.15-.8602 10.8723.7527.6459 11.1828 1.3994 23.871 1.83 16.0215.4306 23.871 1.1841 27.2043 2.2606l4.5161 1.7224.2151 9.2576c.1075 5.1671.215 13.133.4301 17.6541.215 8.0736.1075 8.2889-2.7957 9.473-4.1936 1.7223-48.4946 1.83-54.6237.1076-3.4408-.9688-5.5914-2.5835-8.8172-6.6741-2.36557-3.0141-4.30106-6.6741-4.30106-8.0735 0-2.4759.32259-2.5836 6.98926-2.5836 6.5591 0 6.9892.1077 7.6344 2.6912 1.1828 4.9518 7.7419 7.32 20.2151 7.2124 15.9139-.1077 21.8279-1.0765 25.4838-4.3059 2.7957-2.2606 3.2258-3.3371 2.9032-7.1047-.3225-3.7677-.8602-4.6288-4.4085-6.6741-2.5807-1.3994-6.2366-2.3683-10.1076-2.4759-3.3333-.1077-6.3441-.323-6.6666-.6459-.4302-.2153-7.5269.1076-15.914.7535-17.742 1.3994-20.7527.6459-23.87099-5.49-3.11828-6.1358-4.51613-14.2094-3.22581-18.8382s6.6667-11.0876 10.5376-12.81c2.7957-1.07647 31.3979-2.79882 36.6667-2.04529 1.5054.10764 6.8817.43058 12.043.53823zm77.6341 3.55236c.323 2.7988.645 18.1923.645 34.3394 0 24.7588-.215 29.4953-1.612 30.6794-1.398 1.1841-1.613.7535-1.613-2.7988 0-2.3682-.108-18.4077-.323-35.7388-.107-22.4983.108-31.43297.968-31.43297.645 0 1.505 2.26059 1.935 4.95177zm138.495 2.1529c2.15 6.1359 2.473 17.7618.645 19.5918-.753.7535-2.15 1.2918-3.226 1.2918-1.72 0-1.935-1.1842-1.935-13.5636 0-14.96291 1.183-17.0082 4.516-7.32zm-67.527-.9688c4.194 8.3965 5.807 41.0135 2.258 49.5177-2.043 5.2747-3.118 5.7053-5.054 2.1529-1.075-1.7224-1.397-8.8271-1.397-26.5888 0-27.6653.645-31.75591 4.193-25.0818zm-130.215 4.4135c1.828 3.1218 1.828 3.4447.2151 4.0906-2.2581.8612-3.3334-.3229-4.1936-4.7364-.7527-4.5212 1.1828-4.1983 3.9785.6458zm-24.7312 1.2918c1.7205 0 3.871 1.0765 5.2688 2.6912 1.828 2.1529 3.3334 2.6912 7.5269 2.6912h5.1613v5.49c0 4.8441-.215 5.3823-1.8279 4.7364-4.9463-2.0453-10.7527-2.6911-26.6667-2.7988-19.6774-.2153-23.4409-.7535-23.9785-3.4447-.4301-2.1529 2.2581-5.5976 5.6989-7.5353 2.5807-1.3994 16.6667-2.7988 22.043-2.2606 2.043.2153 5.0538.4306 6.7742.4306zm137.8492 3.2294c1.076.8612 2.258 2.7988 2.904 4.3059 1.182 3.2294 1.29 20.4529 0 21.7447-.431.4306-4.624 1.1841-9.14 1.5071l-8.28.7535v7.2123h-7.527c-10.645 0-14.516-1.83-15.376-7.1047-1.075-6.4588-.86-16.147.43-21.4217.968-3.983 1.828-4.9518 5.376-6.3512 2.258-.9688 6.129-1.6147 8.495-1.5071 2.366.1077 4.516-.1076 4.839-.4305 1.29-1.1842 16.559-.1077 18.279 1.2917zm77.742 20.8835c.538 4.4136-1.183 5.49-9.247 5.49h-7.204l-1.076 8.6118-10.215-.3229c-13.441-.5383-17.204-2.2606-19.032-8.8271-.968-3.2294-1.075-5.0594-.215-5.9206s40.108-2.6912 45.591-2.1529c.646.1076 1.183 1.507 1.398 3.1217zm-190.86 1.7224c1.0753 1.7224 2.1505 6.2435 2.5807 10.0112.5376 5.7053.215 7.5353-1.828 11.4106-1.7204 3.5523-2.5806 4.4135-3.3333 3.2294-1.1828-1.83-1.2904-27.8806-.1076-27.8806.4302 0 1.7205 1.3994 2.6882 3.2294zm179.785 8.6118c0 .8611-.86 1.7223-1.828 1.9376-1.398.2153-1.935-.3229-1.935-1.9376s.537-2.153 1.935-1.9377c.968.2153 1.828 1.0765 1.828 1.9377zm10.645 5.7053c1.29 9.7958.215 12.1641-6.236 13.1329-2.581.4306-5.269.4306-5.914 0-.646-.3229-1.183-3.2294-1.183-6.3512 0-4.4135.537-6.1359 2.258-7.7506 1.29-1.0764 2.688-3.1217 3.226-4.5211.752-1.9377 1.613-2.4759 3.978-2.153 2.688.323 3.011.7535 3.871 7.643zm8.172-3.0142c0 4.6289-1.72 10.2265-3.226 10.2265-1.075 0-2.15-5.7053-2.15-10.8723 0-3.7677.322-4.1983 2.688-4.1983 2.473 0 2.688.4306 2.688 4.8441zm-83.871-1.6147c0 3.5524-13.118 4.3059-13.763.7536-.323-1.6147.537-1.83 6.666-1.83 3.871 0 7.097.4305 7.097 1.0764zm4.194 13.133c.107 4.9517 0 5.0594-3.334 5.3823-1.935.2153-5.806.1077-8.602 0l-5.161-.4306v-6.3511c0-5.813.215-6.3512 2.473-6.4589 5.807-.1076 8.817-.9688 10.86-3.1217l2.258-2.2606.753 4.0906c.43 2.2606.753 6.3512.753 9.15zm5.914.4306c1.075 2.6911.752 3.66-.968 3.66-.968 0-1.613-.9689-1.613-2.6912 0-3.0141 1.613-3.66 2.581-.9688zm-46.882 4.9517c2.151 2.0453 3.978 2.5836 11.613 2.9065 9.892.3229 11.72 1.6147 4.193 2.6912-2.58.4306-5.053 1.1841-5.268 1.6147-.323.4306-.538 8.2888-.538 17.4388 0 23.1438 0 23.4668-1.29 29.7108-.753 4.09-1.721 5.813-3.226 6.243-2.903.969-12.903.969-15.699.108-3.871-1.184-5.484-6.674-5.914-18.946l-.323-11.303 5.377-.323c3.01-.215 5.806-.753 6.451-1.399.538-.538.861-7.4278.646-16.0396-.108-8.2888.107-15.0706.537-15.0706s1.936 1.0765 3.441 2.3682zm79.247 3.2294c13.656.323 16.129.5383 16.452 2.0453.215 1.3994-.86 1.6147-7.527 1.2918-4.301-.1076-9.355-.5382-11.183-.7535-6.021-.8612-26.344 1.2917-28.924 3.0141-2.904 1.9376-3.764 1.2918-3.764-2.7988 0-2.153.538-3.0141 1.936-3.0141 1.075 0 2.903-.6459 3.978-1.5071 1.613-1.1841 2.903-1.1841 7.419 0 3.011.7535 12.689 1.5071 21.613 1.7223zm34.301 2.3683c.431 2.0453.753 15.3935.753 29.7103l.108 25.943 2.688 1.077c3.441 1.291 14.946 1.291 17.527-.108 1.075-.538 2.795-3.445 3.871-6.459 1.075-2.906 2.58-5.382 3.333-5.382 1.398 0 1.505 1.184 1.828 16.147l.107 6.997-9.139.861c-10.108.969-26.775.215-28.172-1.184-.43-.431-.108-3.229.86-6.028 1.505-4.414 1.72-8.504 1.29-25.835-.645-22.714-1.398-26.1587-7.204-31.1105-6.022-4.9518-3.333-7.6429 8.064-8.1812 3.119-.1076 3.441.2153 4.086 3.5524zm47.205-.7536c.322 1.6148-.108 4.1983-.861 5.813-1.827 3.5523-3.763 22.0679-3.118 30.1409l.538 6.029-4.946.107c-3.119.215-5.054-.215-5.269-1.076-.323-.754-.753-10.657-1.075-22.068l-.646-20.6682 2.904-.4306c1.72-.2153 5.053-.5382 7.419-.6459 4.086-.1076 4.516.1077 5.054 2.7988zm-239.6777-1.1841c2.043.7536 2.258 2.5836.3226 2.5836-.7527 0-3.1183 1.1841-5.3764 2.6911-3.871 2.6912-3.9785 2.6912-3.9785.5383 0-1.2918 1.3979-3.0141 3.5484-4.3059 3.9785-2.4759 3.3333-2.3682 5.4839-1.5071zm119.9997 6.9971c0 4.0906.43 7.4276.968 7.4276s2.366-1.1841 4.086-2.5835c3.226-2.6912 6.667-4.0906 11.075-4.4135 1.506-.2153 7.312-.8612 12.904-1.6147 8.064-.9689 11.827-.9689 17.957 0l7.741 1.3994.108 26.8036c0 14.856.538 29.173 1.183 31.864 1.183 5.382.43 6.566-4.409 6.782-35.161 1.184-38.71.753-45.269-5.167-4.731-4.306-6.021-3.983-6.559 1.83-.322 3.337-.752 3.767-3.656 4.09l-3.333.323-.645-7.32c-.43-3.983-.753-19.807-.753-34.985 0-26.2659-.107-27.773-2.043-28.8494-1.183-.5383-3.118-1.0765-4.408-1.0765-1.291 0-2.044-.3229-1.721-.8612.215-.4306 4.086-.8612 8.602-.9688l8.172-.2153zm-133.118.1076c.1075 1.9377.215 4.5212.3226 5.7053.1075 2.5836 3.7634 2.3683 5.2688-.3229.5376-1.0765 2.3656-3.1218 3.9785-4.8441l2.9032-2.9065h19.9999c10.968 0 20.323.1076 20.753.2153.322.2153.537 9.0423.43 19.6992-.108 10.657.322 24.006 1.075 29.603 2.043 17.331 3.118 15.286-9.247 17.008-8.602 1.184-13.011 1.292-22.2582.323-6.3441-.646-12.2581-1.507-13.1183-1.83s-2.7957-2.476-4.4086-4.844c-4.7312-7.212-5.3763-5.49-5.3763 14.21v17.654l-5.5914.323-5.699.323v-4.091c-.1075-2.261-.5376-6.244-1.1827-8.935-.9678-4.844-3.2259-78.3667-2.3656-79.9814.215-.4306 3.5483-.7536 7.4193-.7536h6.8817zm66.882-.6458c.967 2.6911.752 9.0423-.43 9.0423-.538 0-1.291-1.7223-1.721-3.7676-.322-2.0453-1.075-4.0906-1.613-4.4136-.537-.3229-.752-1.0764-.43-1.6147 1.075-1.507 3.441-1.1841 4.194.7536zm46.559 9.5805c.107 5.9206.43 17.2236.753 25.0816.322 7.858.215 18.3-.108 23.252-.645 8.719-.753 9.042-3.441 9.581-3.548.753-4.731-.431-4.623-4.522.107-4.521-1.398-5.059-5.269-1.83-1.721 1.507-5.269 3.337-7.742 3.983-4.731 1.292-27.957.969-29.355-.323-.43-.43.322-3.229 1.613-6.136 2.58-6.135 3.441-17.331 2.043-27.449-1.183-8.505-.538-11.411 2.796-11.411 2.473 0 2.58.215 3.118 12.056.215 6.675 1.075 13.672 1.72 15.502 1.828 4.844 6.237 6.889 14.839 6.997 8.71.107 12.903-1.292 14.193-4.629.538-1.4 1.076-13.133 1.076-26.158.215-25.0822.322-25.6204 5.484-25.0822 2.688.3229 2.688.4306 2.903 11.0876zm8.279-8.3964c.753 4.4135.753 51.455 0 59.313-.43 4.199-1.182 6.675-2.043 6.675-.967 0-1.505-6.136-2.043-24.006-.322-13.133-.967-28.6338-1.29-34.4467l-.645-10.4418h2.688c2.151 0 2.903.6459 3.333 2.9065zm192.151-1.7224c3.226.7536 6.667 2.2606 8.172 3.7677 2.258 2.3682 2.581 3.337 2.258 10.3341l-.323 7.8586h-5.913c-5.484 0-5.914-.216-6.237-2.692-.753-6.6737-1.398-7.6425-6.452-9.9031-4.408-2.0453-6.344-2.1529-17.742-1.6147-18.924.9688-21.182 3.3371-21.182 21.8528 0 12.487 1.505 17.977 5.699 21.529 3.118 2.583 3.763 2.691 15.698 2.476 14.517-.323 17.85-1.184 20-5.275 1.291-2.476 2.366-3.014 7.527-3.552 8.28-.861 9.14-.323 9.14 5.167 0 8.289-1.613 10.98-8.172 13.348-5.161 1.938-8.495 2.261-29.57 2.368-21.72 0-24.086-.107-25.806-1.937-1.721-1.615-2.043-4.414-2.473-18.623-.323-9.15-.861-22.821-1.291-30.3567l-.752-13.7789 2.58-.9688c3.656-1.507 48.065-1.3994 54.839 0zm-251.183 9.5806c1.075 3.0141 1.613 10.0108 1.721 22.9288.215 15.716 0 19.269-1.721 23.144-1.183 2.799-2.258 4.306-2.903 3.66-.538-.538-1.398-5.275-1.936-10.549-1.182-10.98-1.397-45.9656-.322-47.042.968-.9689 3.333 2.5835 5.161 7.8582zm130.968-3.7676c2.903 3.9829 3.978 12.1644 4.301 31.7554.215 14.963-.108 18.3-1.613 20.992l-1.72 3.229-1.291-3.229c-.645-1.83-1.505-6.675-1.72-10.765-.753-13.241-1.183-44.6736-.538-44.6736.323 0 1.506 1.2918 2.581 2.6912zm61.075 17.9774c.323 16.039 0 31.325-.753 31.971-1.505 1.614-2.043-3.553-2.043-21.745 0-18.5152.538-24.4358 2.043-24.4358.216 0 .646 6.4588.753 14.2098zm-8.172 19.161c.86 2.691-.215 10.011-2.258 14.747-1.505 3.768-4.086 4.629-5.161 1.83-.86-2.26-.86-17.115.107-17.977.323-.43 2.043-.753 3.656-.753 2.043 0 3.226.646 3.656 2.153zm5.592 16.362c1.29 1.83 2.15 3.768 1.827 4.306-.645.969-7.311 1.184-8.279.215-.645-.753 2.473-7.966 3.441-7.966.322 0 1.72 1.615 3.011 3.445z" mask="url(#a)" stroke="#000" stroke-width="2"/><path d="m235.409 15.344c-5.484.8611-7.635 2.3682-10.323 7.4276-3.656 6.7818-2.473 8.0735 7.742 8.9347 10.538.9688 26.021.9688 30.43.1077 3.011-.6459 3.333-1.0765 3.333-4.6289-.107-9.3652-5.591-13.0252-18.817-12.7023-4.731.1076-10.322.5382-12.365.8612zm26.451 5.5976c2.796 3.3371 3.334 6.6741 1.291 7.4277-.753.3229-9.033.6458-18.28.7535l-16.989.2153v-3.1218c0-6.3512 5.376-8.3964 22.365-8.2888 8.495 0 9.14.2153 11.613 3.0141z" mask="url(#a)" stroke="#000" stroke-width="2"/><path d="m213.366 95.1105c-3.549.5382-7.312 1.8299-8.28 2.7988-3.763 3.6597-5.591 26.6967-2.688 32.5097.753 1.507 3.548 3.875 6.129 5.382 4.408 2.476 5.914 2.691 16.452 2.584 6.344-.108 13.655-.754 16.344-1.507 8.172-2.261 10.645-10.55 8.064-27.881-1.075-7.643-2.903-10.2266-9.14-13.133-4.838-2.2606-15.699-2.4759-26.881-.7535zm26.451 3.5523c4.731 2.4762 6.344 6.7822 6.882 18.4072.43 11.519-.538 14.856-4.731 16.47-5.484 2.153-19.678 3.122-26.344 1.723-10.215-2.153-11.183-4.306-10.43-24.759.215-5.49.86-9.15 1.828-10.119 2.903-3.1216 27.634-4.3057 32.795-1.7222z" mask="url(#a)" stroke="#000" stroke-width="2"/><path d="m78.4194 96.1869c-6.8818 2.9065-7.5269 3.5524-8.7097 7.7511-1.0753 3.982-.9678 9.042.7527 22.713.215 2.368 1.3978 5.49 2.4731 6.997 2.6882 3.768 12.4731 5.382 24.6236 4.091 13.8709-1.507 17.3119-2.584 18.7099-6.029 1.828-4.628 1.398-26.265-.645-30.141-3.119-6.028-5.054-6.6738-20.538-6.5662-7.6344 0-15.1613.5382-16.6666 1.1841zm28.2796 2.5835c5.484.9689 6.989 4.0906 7.849 16.6856.538 7.858.323 10.98-.967 13.994l-1.613 3.875-12.6884.754c-12.6882.753-20.9678-.108-23.3334-2.476-1.3978-1.4-2.6881-10.765-2.7957-20.13-.1075-9.796 1.6129-11.5184 12.4732-12.3796 12.9032-.9688 16.6663-.9688 21.0753-.323z" mask="url(#a)" stroke="#000" stroke-width="2"/><path d="m302.72 48.4993c-.967 1.507-.43 13.3482.538 14.64 1.075 1.507 20.968 1.3994 22.258 0 .645-.6459.753-4.0906.323-8.0736l-.645-6.997-10.968-.323c-6.237-.1076-11.183.1077-11.506.7536zm19.678 2.9064c.322.323.645 2.4759.645 4.7365.108 4.7365-.968 5.3823-9.355 5.3823-7.527 0-8.387-.6458-8.387-5.9205 0-2.6912.538-4.9518 1.398-5.2747 1.505-.6459 14.946.2153 15.699 1.0764z" mask="url(#a)" stroke="#000" stroke-width="2"/><path d="m457.758 58.9844h25.664l1.601 1.6015-4.57 3.5938h-21.562l-3.047-4.1016zm-2.735 1.6406 3.282 4.1016-3.282 19.1406-2.539 1.9531-2.382-2.7734 3.554-21.3281zm22.774 23.5156 2.344 2.5782-3.086 2.8515h-10.782l.743-5.4297zm-22.227 5.4297-2.734-2.9687 3.281-2.461h10.274l-.782 5.4297zm24.844-1.9141 2.461 2.7344-3.555 21.4064-1.64 1.015-3.203-3.867 3.242-18.8669zm-28.008 21.8358 21.367.039 3.086 4.102-2.187 1.367h-25.391l-1.367-1.641z" mask="url(#a)" stroke="#000" stroke-width="2"/><path d="m504.789 58.9844h25.664l1.602 1.6015-4.571 3.5938h-21.562l-3.047-4.1016zm-2.734 1.6406 3.281 4.1016-3.281 19.1406-2.539 1.9531-2.383-2.7734 3.555-21.3281zm30.586.5469 1.367 1.6406-3.281 20.7813-3.008 2.4609-2.188-2.4609 2.657-18.9454zm-7.813 22.9687 2.344 2.5782-3.086 2.8515h-10.781l.742-5.4297zm-22.226 5.4297-2.735-2.9687 3.281-2.461h10.274l-.781 5.4297zm-3.282-2.1875 2.188 2.7344-2.852 18.8278-4.531 3.594-1.094-1.641 3.555-21.6011z" mask="url(#a)" stroke="#000" stroke-width="2"/><path d="m567.758 109.531 3.086 4.102-2.188 1.367h-12.5l.977-5.469zm-24.492 5.469-1.368-1.641 4.493-3.867 10.273.039-.976 5.469z" mask="url(#a)" stroke="#000" stroke-width="2"/><path d="m598.695 58.9844h25.664l1.602 1.6015-4.57 3.5938h-21.563l-3.047-4.1016zm-2.734 1.6406 3.281 4.1016-3.281 19.1406-2.539 1.9531-2.383-2.7734 3.555-21.3281zm22.773 23.5156 2.344 2.5782-3.086 2.8515h-10.781l.742-5.4297zm-22.226 5.4297-2.735-2.9687 3.282-2.461h10.273l-.781 5.4297zm24.844-1.9141 2.46 2.7344-3.554 21.4064-1.641 1.015-3.203-3.867 3.242-18.8669zm-28.008 21.8358 21.367.039 3.086 4.102-2.188 1.367h-25.39l-1.367-1.641z" mask="url(#a)" stroke="#000" stroke-width="2"/><path d="m645.727 58.9844h25.664l1.601 1.6015-4.57 3.5938h-21.563l-3.047-4.1016zm-5.352 50.5076 21.367.039 3.086 4.102-2.187 1.367h-25.391l-1.367-1.641zm11.602-25.742h5.117l3.164-19.0234h-5.196zm-.508 6.25h5l-3.008 19.023h-5.195z" mask="url(#a)" stroke="#000" stroke-width="2"/><path d="m692.68 58.9844h25.664l1.601 1.6015-4.57 3.5938h-21.563l-3.046-4.1016zm6.25 24.7656h5.117l3.164-19.0234h-5.195zm-.508 6.25h5l-3.008 19.023h-5.195z" mask="url(#a)" stroke="#000" stroke-width="2"/><path d="m739.633 58.9844h25.664l1.601 1.6015-4.57 3.5938h-21.562l-3.047-4.1016zm-2.735 1.6406 3.282 4.1016-3.282 19.1406-2.539 1.9531-2.382-2.7734 3.554-21.3281zm22.774 23.5156 2.344 2.5782-3.086 2.8515h-10.782l.743-5.4297zm-22.227 5.4297-2.734-2.9687 3.281-2.461h10.274l-.782 5.4297zm-3.281-2.1875 2.188 2.7344-2.852 18.8278-4.531 3.594-1.094-1.641 3.555-21.6011zm.117 22.1092 21.367.039 3.086 4.102-2.187 1.367h-25.391l-1.367-1.641z" mask="url(#a)" stroke="#000" stroke-width="2"/></svg>