<svg fill="none" height="177" viewBox="0 0 368 177" width="368" xmlns="http://www.w3.org/2000/svg"><g fill="#000"><path clip-rule="evenodd" d="m144.745 127c9.595-13.195 15.255-29.4365 15.255-47 0-19.8523-7.231-38.0159-19.203-52h-121.5937c-11.97212 13.9841-19.2033 32.1477-19.2033 52 0 17.5635 5.6598 33.805 15.255 47zm-37.314-73.8701-27.931-11.1299-27.9307 11.1299-11.5693 26.8701 11.5693 26.87 27.9307 11.13 27.931-11.13 11.569-26.87z" fill-rule="evenodd"/><path d="m130.561 142h-101.1218c13.7807 11.252 31.3827 18 50.5608 18s36.78-6.748 50.561-18z"/><path d="m80 0c16.1396 0 31.163 4.7793 43.732 13h-87.4638c12.5689-8.2207 27.5922-13 43.7318-13z"/><path d="m168.312 176.672c-1.643 0-3.179-.149-4.608-.448-1.408-.277-2.592-.651-3.552-1.12s-1.749-.917-2.368-1.344c-.597-.427-1.099-.853-1.504-1.28l.8-7.776c.875 1.173 2.048 2.197 3.52 3.072 1.472.853 3.061 1.28 4.768 1.28s2.933-.181 3.68-.544c.768-.363 1.152-1.024 1.152-1.984 0-1.024-.437-1.899-1.312-2.624-.853-.725-2.336-1.6-4.448-2.624-.768-.384-1.419-.725-1.952-1.024-.533-.32-1.248-.832-2.144-1.536-.875-.725-1.589-1.472-2.144-2.24-.555-.789-1.045-1.792-1.472-3.008-.427-1.237-.64-2.56-.64-3.968 0-7.616 4.299-11.424 12.896-11.424 1.365 0 2.645.149 3.84.448 1.216.277 2.165.587 2.848.928s1.301.747 1.856 1.216c.576.448.939.768 1.088.96.149.171.256.309.32.416l-1.6 6.176c-.832-.981-1.877-1.707-3.136-2.176-1.237-.491-2.421-.736-3.552-.736-2.731 0-4.096.853-4.096 2.56 0 .448.085.853.256 1.216s.448.693.832.992.736.555 1.056.768c.341.213.8.48 1.376.8.597.299 1.045.544 1.344.736 3.115 1.323 5.397 2.891 6.848 4.704 1.472 1.813 2.208 4.021 2.208 6.624 0 4.224-1.045 7.445-3.136 9.664-2.069 2.197-5.077 3.296-9.024 3.296z"/><path d="m199.863 171.744c-.128.299-.395.693-.8 1.184-.384.491-.896 1.035-1.536 1.632-.64.576-1.43 1.067-2.368 1.472-.939.427-1.888.64-2.848.64-3.008 0-5.163-.896-6.464-2.688-1.28-1.792-1.92-4.779-1.92-8.96v-11.392l-1.12-1.152v-3.68h11.616v18.24c-.022.96.138 1.675.48 2.144.341.448.96.672 1.856.672h.352c.106-.021.213-.043.32-.064.106-.043.192-.075.256-.096.085-.021.181-.053.288-.096.106-.064.192-.117.256-.16s.149-.096.256-.16c.106-.085.181-.149.224-.192.064-.043.149-.107.256-.192.128-.107.224-.181.288-.224v-15.04l-1.728-1.152v-3.68h12.192v27.2h-8.864z"/><path d="m224.457 176h-10.336v-20.704l-1.92-1.184v-3.424l6.88-1.888h5.44v4.128l.384-.48c.256-.341.629-.747 1.12-1.216.512-.469 1.077-.928 1.696-1.376.619-.469 1.355-.864 2.208-1.184.875-.341 1.728-.512 2.56-.512 2.923 0 4.981.8 6.176 2.4 1.216 1.6 1.824 4.277 1.824 8.032v.576c-.021.256-.032.459-.032.608v16.224h-10.56v-17.152c.064-2.005-.789-3.008-2.56-3.008-.128 0-.256.011-.384.032-.107.021-.213.043-.32.064-.085.021-.192.064-.32.128-.107.043-.203.085-.288.128-.085.021-.181.075-.288.16-.107.064-.192.117-.256.16s-.16.117-.288.224c-.107.085-.192.149-.256.192-.043.043-.128.117-.256.224-.107.085-.181.149-.224.192z"/><path d="m252.912 176.672c-2.005 0-4.032-.331-6.08-.992-2.048-.683-3.36-1.344-3.936-1.984l.832-5.152c.725.704 1.931 1.312 3.616 1.824 1.707.512 3.445.768 5.216.768 1.28 0 2.155-.16 2.624-.48.491-.32.736-.768.736-1.344 0-.555-.427-1.045-1.28-1.472-.853-.448-2.24-.96-4.16-1.536-4.971-1.493-7.456-4.587-7.456-9.28 0-1.92.555-3.563 1.664-4.928 1.109-1.387 2.528-2.389 4.256-3.008s3.659-.928 5.792-.928c3.648 0 6.336.672 8.064 2.016.384.363.576.544.576.544l-1.408 4.576c-1.408-1.387-3.349-2.08-5.824-2.08-2.027 0-3.04.597-3.04 1.792 0 .341.075.629.224.864.149.213.395.405.736.576.363.149.715.277 1.056.384.341.085.821.213 1.44.384.619.149 1.152.288 1.6.416 2.496.832 4.309 2.005 5.44 3.52s1.696 3.403 1.696 5.664c0 6.571-4.128 9.856-12.384 9.856z"/><path d="m277.947 176h-10.368v-36.192l-1.92-1.152v-2.976l10.272-1.6h2.08v18.848l.384-.48c.256-.341.63-.747 1.12-1.216.512-.469 1.078-.928 1.696-1.376.619-.469 1.355-.864 2.208-1.184.875-.341 1.728-.512 2.56-.512 2.923 0 4.982.8 6.176 2.4 1.216 1.6 1.824 4.277 1.824 8.032v.576c-.021.256-.032.459-.032.608v16.224h-10.56v-17.152c.064-2.005-.789-3.008-2.56-3.008-.17 0-.341.011-.512.032-.149.021-.309.075-.48.16-.17.085-.309.149-.416.192-.085.043-.224.128-.416.256-.17.128-.288.213-.352.256-.042.043-.17.149-.384.32-.192.171-.298.267-.32.288z"/><path d="m297.934 176v-20.704l-1.921-1.184v-3.424l6.88-1.888h5.344v27.2zm4.639-30.144-5.247-5.28v-1.12l5.247-5.248h1.216l5.472 5.248v1.12l-5.472 5.28z"/><path d="m322.988 176h-10.336v-20.704l-1.92-1.184v-3.424l6.88-1.888h5.44v4.128l.384-.48c.256-.341.63-.747 1.12-1.216.512-.469 1.078-.928 1.696-1.376.619-.469 1.355-.864 2.208-1.184.875-.341 1.728-.512 2.56-.512 2.923 0 4.982.8 6.176 2.4 1.216 1.6 1.824 4.277 1.824 8.032v.576c-.021.256-.032.459-.032.608v16.224h-10.56v-17.152c.064-2.005-.789-3.008-2.56-3.008-.128 0-.256.011-.384.032-.106.021-.213.043-.32.064-.085.021-.192.064-.32.128-.106.043-.202.085-.288.128-.085.021-.181.075-.288.16-.106.064-.192.117-.256.16s-.16.117-.288.224c-.106.085-.192.149-.256.192-.042.043-.128.117-.256.224-.106.085-.181.149-.224.192z"/><path d="m357.395 159.456c0-2.709-.138-4.629-.416-5.76-.277-1.131-.789-1.696-1.536-1.696-.64 0-1.162.117-1.568.352-.405.213-.704.565-.896 1.056-.192.469-.32.96-.384 1.472-.042.491-.064 1.12-.064 1.888v2.688zm-2.56 17.216c-2.389 0-4.469-.363-6.24-1.088-1.749-.725-3.136-1.739-4.16-3.04-1.002-1.301-1.738-2.763-2.208-4.384-.469-1.643-.704-3.467-.704-5.472 0-4.779 1.216-8.395 3.648-10.848s5.835-3.68 10.208-3.68c4.203 0 7.211.992 9.024 2.976 1.814 1.963 2.72 5.131 2.72 9.504v3.552h-14.624v.608c0 1.259.128 2.293.384 3.104.278.811.672 1.408 1.184 1.792s1.035.64 1.568.768c.534.128 1.184.192 1.952.192.747 0 1.547-.096 2.4-.288.875-.192 1.75-.491 2.624-.896.896-.405 1.643-.885 2.24-1.44l1.888 3.232c-.789 1.28-1.952 2.357-3.488 3.232-1.514.853-2.976 1.429-4.384 1.728s-2.752.448-4.032.448z"/></g></svg>