<svg enable-background="new 0 0 32 32" viewBox="0 0 32 32" xmlns="http://www.w3.org/2000/svg"><path d="m16 14c-3.8598633 0-7-3.140625-7-7s3.1401367-7 7-7 7 3.140625 7 7-3.1401367 7-7 7zm0-12c-2.7568359 0-5 2.2431641-5 5s2.2431641 5 5 5 5-2.2431641 5-5-2.2431641-5-5-5z"/><path d="m27 32c-.5522461 0-1-.4472656-1-1v-6.1152344c0-3.828125-3.1142578-6.9423828-6.9423828-6.9423828h-6.1152344c-3.828125 0-6.9423828 3.1142578-6.9423828 6.9423828v6.1152344c0 .5527344-.4477539 1-1 1s-1-.4472656-1-1v-6.1152344c0-4.9306641 4.0117188-8.9423828 8.9423828-8.9423828h6.1152344c4.9306641 0 8.9423828 4.0117188 8.9423828 8.9423828v6.1152344c0 .5527344-.4477539 1-1 1z"/></svg>