<svg width="285" height="176" viewBox="0 0 285 176" fill="none" xmlns="http://www.w3.org/2000/svg">
<path fill-rule="evenodd" clip-rule="evenodd" d="M193.825 0H181.336V18.7336H171.345V34.345H181.336V67.649L137 90.1306L142.648 101.269L181.336 81.6519V106.782H193.825V75.3191L205.44 69.4296L207.32 75.216H244.025L255.367 40.308L247.16 34.345H280V18.7336H225.672H193.825V0ZM193.825 34.345V18.7336H181.336V34.345H193.825ZM193.825 61.3161V34.345H204.185L195.978 40.308L201.534 57.4074L193.825 61.3161ZM193.825 61.3161V75.3191L181.336 81.6519V67.649L193.825 61.3161ZM204.185 34.345H247.16L225.672 18.7336L204.185 34.345ZM201.534 57.4074L232.238 41.8384L237.886 52.9773L205.44 69.4296L201.534 57.4074Z" fill="#080606"/>
<path fill-rule="evenodd" clip-rule="evenodd" d="M56.8253 69H44.3362V87.0319H34.345V102.058H44.3362V134.115L0 155.754L5.64821 166.476L44.3362 147.593V171.782H56.8253V141.498L68.4401 135.829L70.3203 141.398H107.025L118.367 107.798L110.16 102.058H143V87.0319H88.6725H56.8253V69ZM56.8253 102.058V87.0319H44.3362V102.058H56.8253ZM56.8253 128.019V102.058H67.1854L58.978 107.798L64.5339 124.257L56.8253 128.019ZM56.8253 128.019V141.498L44.3362 147.593V134.115L56.8253 128.019ZM67.1854 102.058H110.16L88.6725 87.0319L67.1854 102.058ZM64.5339 124.257L95.2376 109.271L100.886 119.993L68.4401 135.829L64.5339 124.257Z" fill="#080606"/>
<path d="M128.281 129.562H148.062L156 159.406L161.094 141.812L157.312 129.562H177.094L184.406 159.406L192.094 129.562L200.25 129.531L186.344 176L171.625 175.969L164.75 153.688L157.938 176L143.219 175.969L128.281 129.562Z" fill="black"/>
<path d="M206.625 129.562H224.719L224.688 176H206.625V129.562Z" fill="black"/>
<path d="M236.625 129.562H247.938L277.406 154.312L277.438 129.562H284.312V176H273L243.5 151.344V176H236.625V129.562Z" fill="black"/>
</svg>
