<svg width="540" height="206" viewBox="0 0 540 206" fill="none" xmlns="http://www.w3.org/2000/svg">
<path d="M218.476 67.2401V68.7401H219.976H297.962L272.965 137.483L257.737 95.7816L256.323 91.9082L254.918 95.7851L239.813 137.469L212.682 62.8873L212.322 61.9001H211.272H207.176H205.034L205.766 63.9129L238.406 153.641L239.819 157.524L241.226 153.639L256.333 111.948L271.559 153.643L272.971 157.509L274.378 153.641L307.018 63.9129L307.75 61.9001H305.608H219.976H218.476V63.4001V67.2401ZM344.742 154.5H346.242V153V63.4001V61.9001H344.742H340.902H339.402V63.4001V153V154.5H340.902H344.742ZM439.921 84.0546L440.72 83.453L440.472 82.484C438.631 75.2953 435.607 69.7743 431.287 66.0978C426.943 62.4007 421.279 60.6201 414.443 60.6201C404.923 60.6201 397.691 62.4693 393.102 66.4967C388.464 70.5664 386.319 77.0483 386.319 85.5441C386.319 90.3412 388.219 94.5576 391.892 98.1381L391.898 98.1446L391.905 98.151C395.546 101.614 399.924 104.438 405.017 106.634C409.973 108.77 414.929 110.863 419.885 112.914L419.894 112.918C424.811 114.918 428.89 117.316 432.16 120.095L432.166 120.101L432.173 120.107C435.408 122.789 436.879 125.722 436.879 128.936C436.879 136.763 434.918 141.784 431.435 144.526L431.429 144.53L431.423 144.535C427.886 147.38 422.236 148.94 414.187 148.94C407.013 148.94 401.575 147.645 397.724 145.214C394.062 142.766 391.314 138.348 389.659 131.649L389.236 129.934L387.612 130.629L384.028 132.165L382.851 132.67L383.165 133.912C385.022 141.252 388.47 146.842 393.603 150.509L393.61 150.514L393.618 150.519C398.736 154.083 405.646 155.78 414.187 155.78C424.55 155.78 432.264 153.679 436.874 149.075C441.529 144.509 443.719 137.695 443.719 128.936C443.719 124.129 441.768 119.911 438.012 116.336C434.449 112.864 430.066 110.039 424.889 107.845C419.934 105.709 414.98 103.616 410.025 101.566C405.193 99.567 401.107 97.1668 397.743 94.3792C394.599 91.7038 393.159 88.7706 393.159 85.5441C393.159 81.4019 393.741 78.1271 394.825 75.6493C395.904 73.1841 397.435 71.5053 399.389 70.4917L399.398 70.4871L399.407 70.4823C401.68 69.2651 403.879 68.4707 406.007 68.0759C408.282 67.6702 411.088 67.4601 414.443 67.4601C419.156 67.4601 422.979 68.5545 426.005 70.6494L426.012 70.6544L426.02 70.6594C428.861 72.5775 431.196 75.9157 432.906 80.8936L419.943 90.6161L416.343 93.3161H420.843H427.115H427.616L428.017 93.0146L439.921 84.0546ZM536.497 154.5H537.997V153V63.4001V61.9001H536.497H532.657H531.157V63.4001V102.86H488.077V63.4001V61.9001H486.577H482.737H481.237V63.4001V153V154.5H482.737H486.577H488.077V153V109.7H531.157V153V154.5H532.657H536.497Z" fill="black" stroke="black" stroke-width="3"/>
<path d="M102 0L152 50L102 100L52 50L102 0Z" fill="black"/>
<path d="M155 53L205 103L155 153L105 103L155 53Z" fill="black"/>
<path d="M50 53L100 103L50 153L0 103L50 53Z" fill="black"/>
<path d="M102 106L152 156L102 206L52 156L102 106Z" fill="black"/>
</svg>
